<?xml version="1.0" standalone="no"?>
<!DOCTYPE svg PUBLIC "-//W3C//DTD SVG 1.1//EN" "http://www.w3.org/Graphics/SVG/1.1/DTD/svg11.dtd" >
<svg xmlns="http://www.w3.org/2000/svg">
<metadata></metadata>
<defs>
<font id="district_prothin" horiz-adv-x="580" >
<font-face units-per-em="1000" ascent="800" descent="-200" />
<missing-glyph horiz-adv-x="240" />
<glyph unicode="ff" horiz-adv-x="558" d="M404 0h-41v463h-216v-463h-41v463h-81v38h81v88q0 57 29 91.5t74 34.5q29 0 57 -15v-44q-26 21 -52 21q-27 0 -47 -22.5t-20 -58.5v-95h216v88q0 57 29 91.5t74 34.5q28 0 57 -15v-44q-26 21 -52 21q-27 0 -47 -22.5t-20 -58.5v-95h117v-38h-117v-463z" />
<glyph unicode="fi" horiz-adv-x="481" d="M404 0h-41v463h-216v-463h-41v463h-81v38h81v88q0 57 29 91.5t74 34.5q29 0 57 -15v-44q-26 21 -52 21q-27 0 -47 -22.5t-20 -58.5v-95h257v-501z" />
<glyph unicode="fl" horiz-adv-x="482" d="M147 0h-41v463h-81v38h81v88q0 57 29 91.5t74 34.5q29 0 57 -15v-44q-26 21 -52 21q-27 0 -47 -22.5t-20 -58.5v-95h117v-38h-117v-463zM412 0h-41v703h41v-703z" />
<glyph unicode="ffi" horiz-adv-x="737" d="M660 0h-41v463h-215v-463h-41v463h-216v-463h-41v463h-81v38h81v88q0 57 29 91.5t74 34.5q29 0 57 -15v-44q-26 21 -52 21q-27 0 -47 -22.5t-20 -58.5v-95h216v88q0 57 29 91.5t74 34.5q28 0 57 -15v-44q-26 21 -52 21q-27 0 -47 -22.5t-20 -58.5v-95h256v-501z" />
<glyph unicode="ffl" horiz-adv-x="739" d="M404 0h-41v463h-216v-463h-41v463h-81v38h81v88q0 57 29 91.5t74 34.5q29 0 57 -15v-44q-26 21 -52 21q-27 0 -47 -22.5t-20 -58.5v-95h216v88q0 57 29 91.5t74 34.5q28 0 57 -15v-44q-26 21 -52 21q-27 0 -47 -22.5t-20 -58.5v-95h117v-38h-117v-463zM669 0h-41v703h41 v-703z" />
<glyph unicode=" "  horiz-adv-x="240" />
<glyph unicode="&#x09;" horiz-adv-x="240" />
<glyph unicode="&#xa0;" horiz-adv-x="240" />
<glyph unicode="!" horiz-adv-x="221" d="M129 182h-22l-11 247v274h45v-274zM161 30q0 -17 -12 -29t-29 -12t-28.5 12t-11.5 29q0 16 12 28t28 12q17 0 29 -11.5t12 -28.5z" />
<glyph unicode="&#x22;" horiz-adv-x="313" d="M94 429h-23l-19 274h62zM241 429h-23l-19 274h62z" />
<glyph unicode="#" d="M386 0h-40l15 230h-162l-15 -230h-40l15 230h-125v36h128l13 198h-129v37h132l13 202h40l-14 -202h163l13 202h40l-14 -202h126v-37h-128l-13 -198h130v-36h-133zM364 266l13 198h-162l-13 -198h162z" />
<glyph unicode="$" d="M318 -55h-42v120q-125 7 -177 126l35 20q19 -53 60 -80.5t97 -27.5q70 0 108.5 33t38.5 90q0 42 -38.5 75t-134.5 67q-85 31 -121 68.5t-36 90.5q0 66 48 104.5t120 42.5v113h42v-115q104 -11 160 -96l-32 -24q-55 85 -159 85q-59 0 -97.5 -28t-38.5 -80q0 -45 28 -69.5 t110 -56.5q107 -41 149.5 -82t42.5 -96q0 -67 -46 -109t-117 -50v-121z" />
<glyph unicode="%" horiz-adv-x="790" d="M194 340q-69 0 -106.5 53t-37.5 134q0 77 35.5 133t110.5 56q72 0 108.5 -53.5t36.5 -134.5q0 -74 -36 -131t-111 -57zM196 375q39 0 64.5 27t33.5 58.5t8 65.5q0 67 -28 111.5t-79 44.5q-50 0 -78 -44t-28 -109q0 -23 4.5 -47t15 -49.5t33.5 -41.5t54 -16zM213 -36 l-34 17l409 760l34 -16zM603 -13q-69 0 -106.5 53t-37.5 134q0 77 35.5 133t110.5 56q72 0 108.5 -53.5t36.5 -134.5q0 -74 -36 -131t-111 -57zM605 22q39 0 64.5 27t33.5 58.5t8 65.5q0 67 -28 111.5t-79 44.5q-50 0 -78 -44t-28 -109q0 -23 4.5 -47t15 -49.5t33.5 -41.5 t54 -16z" />
<glyph unicode="&#x26;" horiz-adv-x="596" d="M556 -21l-31 -26l-70 86q-71 -52 -175 -52q-107 0 -171 59t-64 142q0 58 33 111t95 84l-19 23q-60 72 -60 150q0 68 49 114t132 46q133 0 177 -114l-39 -16q-35 92 -138 92q-67 0 -102.5 -34t-35.5 -85q0 -67 48 -127l274 -336q43 47 43 111h42q0 -81 -59 -142zM430 69 l-233 285q-55 -27 -82 -72.5t-27 -93.5q0 -67 51.5 -115t140.5 -48q91 0 150 44z" />
<glyph unicode="'" horiz-adv-x="166" d="M94 429h-23l-20 274h64z" />
<glyph unicode="(" horiz-adv-x="350" d="M290 -106l-11 -34q-105 79 -167 203.5t-62 261.5q0 138 62 262t167 203l11 -34q-91 -81 -142 -194.5t-51 -236.5q0 -122 52 -237t141 -194z" />
<glyph unicode=")" horiz-adv-x="350" d="M71 -140l-11 34q89 79 141 194t52 237q0 123 -51 236.5t-142 194.5l11 34q105 -79 167 -203t62 -262q0 -137 -62 -261.5t-167 -203.5z" />
<glyph unicode="*" horiz-adv-x="399" d="M328 451l-118 76l12 -144h-46l14 144l-120 -76l-20 40l130 52l-130 52l20 40l120 -76l-14 144h46l-12 -143l118 75l21 -40l-130 -52l130 -52z" />
<glyph unicode="+" d="M311 66h-41v232h-230v39h229v232h41v-232h230v-39h-229v-232z" />
<glyph unicode="," horiz-adv-x="187" d="M49 -139l-29 11l56 194h63z" />
<glyph unicode="-" horiz-adv-x="320" d="M270 272h-220v38h220v-38z" />
<glyph unicode="." horiz-adv-x="187" d="M134 30q0 -17 -12 -29t-29 -12t-28.5 12t-11.5 29q0 16 11.5 28t28.5 12t29 -11.5t12 -28.5z" />
<glyph unicode="/" horiz-adv-x="498" d="M19 -143l-34 19l485 897l33 -18z" />
<glyph unicode="0" d="M290 -13q-117 0 -178.5 96.5t-61.5 268.5t61.5 268t178.5 96t178.5 -96t61.5 -268t-61.5 -268.5t-178.5 -96.5zM289 24q70 0 115.5 45t64 116t18.5 168q0 148 -48 237t-150 89q-70 0 -115 -44.5t-63 -115.5t-18 -168t18 -167.5t63 -115t115 -44.5z" />
<glyph unicode="1" d="M339 0h-42v614q-60 -53 -147 -53v38q133 10 155 111h34v-710z" />
<glyph unicode="2" d="M509 0h-445q4 38 22 73t51 68t60.5 56t71.5 55t62 47q48 39 73 63t48 66t23 88q0 78 -50.5 120.5t-133.5 42.5q-61 0 -106.5 -31t-65.5 -74l-33 20q25 52 81 87t127 35q106 0 165 -54.5t59 -145.5q0 -73 -37.5 -128t-121.5 -117q-10 -7 -44.5 -32t-50 -37t-45 -36 t-45 -41t-32.5 -40.5t-26 -45.5h393v-39z" />
<glyph unicode="3" d="M64 129l37 21q20 -64 67.5 -95t110.5 -31q81 0 133 40.5t52 124.5q0 159 -192 159h-72v37h66q179 0 179 146q0 66 -43.5 107t-124.5 41q-53 0 -95.5 -30.5t-60.5 -75.5l-35 20q60 123 198 123q98 0 151 -51t53 -130q0 -136 -122 -167q66 -13 103.5 -58.5t37.5 -116.5 q0 -94 -60.5 -150t-169.5 -56q-75 0 -132 37t-81 105z" />
<glyph unicode="4" d="M445 0h-42v179h-366v40l349 484h59v-486h110v-38h-110v-179zM403 217v445l-324 -445h324z" />
<glyph unicode="5" d="M55 105l31 24q67 -105 191 -105q97 0 152 55.5t55 150.5q0 87 -52.5 138.5t-143.5 51.5q-51 0 -98 -25t-76 -70l-37 12l18 366h386v-39h-348l-17 -283q70 76 180 76q108 0 169.5 -60.5t61.5 -164.5q0 -114 -67.5 -179.5t-183.5 -65.5q-71 0 -131 30.5t-90 87.5z" />
<glyph unicode="6" d="M473 681l-20 -36q-49 34 -125 34q-212 0 -239 -358q61 134 211 134q108 0 169 -63.5t61 -167.5q0 -109 -64 -173t-173 -64q-66 0 -115 25t-76 68t-39.5 93t-12.5 108q0 90 16 166.5t48.5 137.5t88.5 96t131 35q36 0 76.5 -10t62.5 -25zM294 24q89 0 141 56.5t52 147.5 q0 87 -51.5 138.5t-139.5 51.5t-144 -55t-56 -138q0 -26 10.5 -57.5t31.5 -65t62 -56t94 -22.5z" />
<glyph unicode="7" d="M258 0h-49q33 354 268 664h-414v39h454v-48q-121 -156 -183 -313t-76 -342z" />
<glyph unicode="8" d="M383 375q148 -47 148 -187q0 -89 -62 -145t-179 -56t-178.5 56.5t-61.5 144.5q0 140 148 187q-121 43 -121 162q0 78 56.5 128.5t156.5 50.5q101 0 157.5 -50.5t56.5 -128.5q0 -119 -121 -162zM461 536q0 60 -42.5 101.5t-128.5 41.5q-85 0 -127.5 -41.5t-42.5 -101.5 q0 -63 47 -104t123 -41q77 0 124 41t47 104zM488 190q0 79 -56.5 123t-141.5 44q-84 0 -140.5 -44t-56.5 -123q0 -76 53 -121t144 -45q92 0 145 45t53 121z" />
<glyph unicode="9" d="M107 22l20 36q49 -34 125 -34q212 0 239 358q-61 -134 -211 -134q-108 0 -169 63.5t-61 167.5q0 109 64 173t173 64q66 0 115 -25t76 -68t39.5 -93t12.5 -108q0 -90 -16 -166.5t-48.5 -137.5t-88.5 -96t-131 -35q-36 0 -76.5 10t-62.5 25zM484 478q0 26 -10.5 57.5 t-31.5 65t-62 56t-94 22.5q-89 0 -141 -56.5t-52 -147.5q0 -87 51.5 -138.5t139.5 -51.5t144 55t56 138z" />
<glyph unicode=":" horiz-adv-x="221" d="M151 30q0 -17 -12 -29t-29 -12t-28.5 12t-11.5 29q0 16 12 28t28 12q17 0 29 -11.5t12 -28.5zM151 461q0 -17 -12 -29t-29 -12t-28.5 12t-11.5 29t12 28.5t28 11.5q17 0 29 -11.5t12 -28.5z" />
<glyph unicode=";" horiz-adv-x="221" d="M151 461q0 -17 -12 -29t-29 -12t-28.5 12t-11.5 29t12 28.5t28 11.5q17 0 29 -11.5t12 -28.5zM62 -139l-29 11l56 194h63z" />
<glyph unicode="&#x3c;" d="M494 56l-444 269v48l444 268v-45l-412 -246l412 -248v-46z" />
<glyph unicode="=" d="M530 401h-480v39h480v-39zM530 197h-480v39h480v-39z" />
<glyph unicode="&#x3e;" d="M530 325l-444 -269v46l412 248l-412 246v45l444 -268v-48z" />
<glyph unicode="?" horiz-adv-x="479" d="M257 30q0 -17 -12 -29t-29 -12t-28.5 12t-11.5 29q0 16 12 28t28 12q17 0 29 -11.5t12 -28.5zM233 186h-38v18q0 50 19 89t38.5 57t54.5 43q47 35 68 67.5t21 80.5q0 63 -44 100t-111 37q-56 0 -105.5 -28t-68.5 -78l-37 16q22 61 81.5 94.5t129.5 33.5q91 0 144.5 -49.5 t53.5 -125.5q0 -57 -24.5 -96.5t-84.5 -83.5q-26 -19 -38 -29.5t-28.5 -30t-23.5 -43t-7 -54.5v-18z" />
<glyph unicode="@" horiz-adv-x="840" d="M656 48l12 -21q-114 -91 -246 -91q-150 0 -256 96.5t-106 262.5q0 174 114.5 297t285.5 123q144 0 232 -90.5t88 -227.5q0 -112 -60.5 -194.5t-137.5 -82.5q-37 0 -60.5 19t-23.5 59v4q-55 -72 -129 -72q-55 0 -87.5 42t-32.5 112q0 98 64 178t149 80q42 0 72.5 -26.5 t35.5 -63.5l22 71h38l-88 -283q-9 -24 -9 -43q0 -49 49 -49q52 0 92.5 42.5t59 98.5t18.5 108q0 131 -81 211.5t-212 80.5q-156 0 -263.5 -113.5t-107.5 -280.5q0 -154 95.5 -243.5t237.5 -89.5q125 0 235 86zM525 309q20 68 20 98q0 44 -22 72.5t-68 28.5 q-44 0 -83.5 -36.5t-61.5 -87.5t-22 -98q0 -55 23.5 -88t66.5 -33q46 0 87.5 42t59.5 102z" />
<glyph unicode="A" horiz-adv-x="589" d="M569 0h-44l-72 203h-317l-72 -203h-44l251 703h47zM441 239l-147 413l-146 -413h293z" />
<glyph unicode="B" horiz-adv-x="598" d="M360 0h-285v703h283q71 0 120 -49t49 -119q0 -53 -29.5 -94.5t-77.5 -59.5q61 -18 99.5 -68.5t38.5 -115.5q0 -82 -58 -139.5t-140 -57.5zM117 396h226q57 0 99 39.5t42 95.5t-37.5 95.5t-94.5 39.5h-235v-270zM117 37h237q70 0 115 46.5t45 114.5t-48.5 114.5 t-122.5 46.5h-226v-322z" />
<glyph unicode="C" horiz-adv-x="616" d="M517 149l40 -17q-36 -68 -95.5 -106.5t-134.5 -38.5q-128 0 -205 104.5t-77 260.5t78 260t206 104q86 0 149.5 -49t97.5 -135l-40 -15q-29 75 -82.5 118t-124.5 43q-107 0 -173.5 -93.5t-66.5 -232.5t65.5 -233t172.5 -94q125 0 190 124z" />
<glyph unicode="D" horiz-adv-x="622" d="M295 0h-220v703h220q128 0 205 -100.5t77 -250.5t-77 -251t-205 -101zM117 38h178q107 0 172.5 90t65.5 224q0 133 -65.5 223t-172.5 90h-178v-627z" />
<glyph unicode="E" horiz-adv-x="552" d="M517 0h-442v703h422v-38h-380v-278h289v-38h-289v-311h400v-38z" />
<glyph unicode="F" horiz-adv-x="522" d="M117 0h-42v703h422v-38h-380v-278h309v-38h-309v-349z" />
<glyph unicode="G" horiz-adv-x="643" d="M598 342v-11q0 -148 -77 -246t-194 -98q-128 0 -205 104t-77 260t78 260.5t206 104.5q86 0 149.5 -49t97.5 -135l-40 -15q-29 75 -82.5 118t-124.5 43q-107 0 -173.5 -94t-66.5 -233t65.5 -232.5t172.5 -93.5q93 0 156.5 79t72.5 200h-197v38h239z" />
<glyph unicode="H" horiz-adv-x="636" d="M561 0h-42v345h-402v-345h-42v703h42v-320h402v320h42v-703z" />
<glyph unicode="I" horiz-adv-x="192" d="M117 0h-42v703h42v-703z" />
<glyph unicode="J" horiz-adv-x="505" d="M393 195v508h42v-490q0 -106 -54 -166t-147 -60q-83 0 -141 53.5t-63 133.5l40 10q3 -67 50 -113.5t114 -46.5q70 0 114.5 49t44.5 122z" />
<glyph unicode="K" horiz-adv-x="593" d="M568 0h-47l-236 394l-168 -191v-203h-42v703h42v-444l388 444h51l-244 -277z" />
<glyph unicode="L" horiz-adv-x="496" d="M476 0h-401v703h42v-665h359v-38z" />
<glyph unicode="M" horiz-adv-x="751" d="M676 0h-42v614l-243 -614h-31l-243 614v-614h-42v703h49l251 -636l252 636h49v-703z" />
<glyph unicode="N" horiz-adv-x="650" d="M575 0h-47l-411 636v-636h-42v703h46l412 -637v637h42v-703z" />
<glyph unicode="O" horiz-adv-x="654" d="M327 -13q-128 0 -205 104t-77 260t77 260.5t205 104.5t205 -104.5t77 -260.5t-77 -260t-205 -104zM327 25q108 0 173 93.5t65 232.5q0 140 -65 233.5t-173 93.5q-107 0 -172.5 -94t-65.5 -233t65.5 -232.5t172.5 -93.5z" />
<glyph unicode="P" horiz-adv-x="585" d="M117 0h-42v703h294q83 0 134.5 -57.5t51.5 -139.5t-51.5 -139.5t-134.5 -57.5h-252v-309zM117 347h249q65 0 105 46.5t40 112.5t-40 112.5t-105 46.5h-249v-318z" />
<glyph unicode="Q" horiz-adv-x="654" d="M548 -88l-32 -23l-85 119q-47 -21 -104 -21q-128 0 -205 104t-77 260t77 260.5t205 104.5t205 -104t77 -260q0 -107 -37.5 -193t-105.5 -131zM408 41l-64 90l33 23l66 -93q57 40 89.5 117.5t32.5 173.5q0 139 -65.5 232.5t-172.5 93.5t-172.5 -94t-65.5 -233t65.5 -232.5 t172.5 -93.5q45 0 81 16z" />
<glyph unicode="R" horiz-adv-x="603" d="M558 0h-50l-197 315h-194v-315h-42v703h294q83 0 134.5 -56t51.5 -138t-54 -138t-140 -56zM117 353h249q65 0 105 45t40 111t-40 111t-105 45h-249v-312z" />
<glyph unicode="S" horiz-adv-x="540" d="M40 138l37 22q24 -66 72.5 -100.5t116.5 -34.5q84 0 132 42.5t48 114.5q0 50 -47 90.5t-162 82.5q-101 37 -143.5 82t-42.5 108q0 83 59.5 127t152.5 44q146 0 223 -118l-33 -26q-69 106 -193 106q-71 0 -118 -33.5t-47 -95.5q0 -55 35.5 -88t132.5 -70 q128 -49 177.5 -98t49.5 -115q0 -89 -64 -140t-162 -51q-158 0 -224 151z" />
<glyph unicode="T" horiz-adv-x="521" d="M281 0h-42v665h-214v38h471v-37h-215v-666z" />
<glyph unicode="U" horiz-adv-x="626" d="M514 285v418h42v-413q0 -153 -55.5 -228t-187.5 -75t-187.5 75t-55.5 228v413h42v-418q0 -133 45 -196.5t156 -63.5t156 63.5t45 196.5z" />
<glyph unicode="V" horiz-adv-x="589" d="M318 0h-47l-251 703h44l231 -651l230 651h44z" />
<glyph unicode="W" horiz-adv-x="827" d="M630 0h-52l-164 641l-165 -641h-52l-167 703h42l153 -647l166 647h45l166 -647l153 647h42z" />
<glyph unicode="X" horiz-adv-x="547" d="M527 0h-48l-206 347l-205 -347h-48l223 375l-195 328h47l178 -300l179 300h47l-196 -328z" />
<glyph unicode="Y" horiz-adv-x="566" d="M304 0h-42v283l-242 420h46l217 -379l216 379h47l-242 -420v-283z" />
<glyph unicode="Z" horiz-adv-x="550" d="M511 0h-481v40l439 625h-416v38h462v-40l-439 -625h435v-38z" />
<glyph unicode="[" horiz-adv-x="292" d="M242 -127h-172v902h172v-36h-130v-830h130v-36z" />
<glyph unicode="\" horiz-adv-x="488" d="M518 -124l-34 -19l-484 898l33 18z" />
<glyph unicode="]" horiz-adv-x="292" d="M222 -127h-172v36h130v830h-130v36h172v-902z" />
<glyph unicode="^" horiz-adv-x="529" d="M457 366h-42l-150 298l-152 -298h-41l175 337h38z" />
<glyph unicode="_" horiz-adv-x="507" d="M512 -127h-517v32h517v-32z" />
<glyph unicode="`" horiz-adv-x="450" d="M302 577h-38l-162 150h72z" />
<glyph unicode="a" horiz-adv-x="496" d="M456 0h-22q-54 0 -54 56v17q-29 -39 -79.5 -61.5t-103.5 -22.5q-66 0 -110.5 36.5t-44.5 107.5q0 83 61 127.5t149 44.5q68 0 128 -27v69q0 59 -40 94.5t-96 35.5q-40 0 -78 -21.5t-63 -61.5l-32 24q25 44 73.5 70t104.5 26q72 0 122 -43.5t50 -130.5v-286q0 -17 19 -17 h16v-37zM380 126v109q-48 33 -125 33q-72 0 -121 -36t-49 -95q0 -53 33 -82t83 -29q48 0 97.5 26.5t81.5 73.5z" />
<glyph unicode="b" horiz-adv-x="495" d="M111 0h-41v703h41v-292q57 103 160 103q80 0 131 -76t51 -187t-52.5 -187.5t-133.5 -76.5q-105 0 -156 94v-81zM111 314v-152q20 -62 60 -100.5t91 -38.5q65 0 106.5 66t41.5 162t-40.5 161.5t-104.5 65.5q-54 0 -96.5 -46.5t-57.5 -117.5z" />
<glyph unicode="c" horiz-adv-x="456" d="M380 104l34 -23q-59 -94 -165 -94q-95 0 -151 72t-56 191t56 191.5t151 72.5q109 0 167 -93l-34 -24q-53 80 -133 80q-74 0 -119 -63t-45 -164q0 -100 45 -163t119 -63q79 0 131 80z" />
<glyph unicode="d" horiz-adv-x="495" d="M425 0h-41v81q-51 -94 -156 -94q-81 0 -133.5 76.5t-52.5 187.5t51 187t131 76q104 0 160 -102v291h41v-703zM384 162v153q-15 71 -57.5 117t-96.5 46q-64 0 -104.5 -65.5t-40.5 -161.5t41.5 -162t106.5 -66q51 0 91 38.5t60 100.5z" />
<glyph unicode="e" horiz-adv-x="479" d="M386 104l32 -23q-28 -44 -73 -69t-99 -25q-91 0 -147.5 73t-56.5 191t54.5 190.5t145.5 72.5t143 -72t52 -191v-9h-352q2 -96 47 -157.5t114 -61.5q42 0 80 22t60 59zM86 278h309q-6 90 -47 145t-106 55t-107.5 -55t-48.5 -145z" />
<glyph unicode="f" horiz-adv-x="301" d="M147 0h-41v463h-81v38h81v88q0 57 29 91.5t74 34.5q29 0 57 -15v-44q-26 21 -52 21q-27 0 -47 -22.5t-20 -58.5v-95h117v-38h-117v-463z" />
<glyph unicode="g" horiz-adv-x="494" d="M383 17v77q-53 -107 -159 -107q-80 0 -131 76t-51 187t52.5 187.5t133.5 76.5q106 0 155 -92v79h41v-475q0 -116 -60 -177t-141 -61q-47 0 -87 21t-63 59l28 25q48 -68 121 -68q64 0 112.5 54t48.5 138zM383 187v153q-20 62 -59 100t-90 38q-65 0 -107 -66.5t-42 -161.5 q0 -96 40.5 -161.5t104.5 -65.5q55 0 96.5 46t56.5 118z" />
<glyph unicode="h" horiz-adv-x="493" d="M428 0h-41v315q0 76 -34 119t-95 43q-58 0 -102.5 -43.5t-44.5 -126.5v-307h-41v703h41v-275q23 42 63.5 64t88.5 22q82 0 123.5 -58.5t41.5 -151.5v-304z" />
<glyph unicode="i" horiz-adv-x="195" d="M118 0h-41v501h41v-501zM98 644q-15 0 -25.5 10.5t-10.5 25.5q0 14 10.5 24.5t25.5 10.5q14 0 24.5 -10.5t10.5 -24.5q0 -15 -10.5 -25.5t-24.5 -10.5z" />
<glyph unicode="j" horiz-adv-x="195" d="M98 644q-15 0 -25.5 10.5t-10.5 25.5q0 14 10.5 24.5t25.5 10.5q14 0 24.5 -10.5t10.5 -24.5q0 -15 -10.5 -25.5t-24.5 -10.5zM77 -92v593h41v-583q0 -57 -27.5 -91.5t-70.5 -34.5q-26 0 -55 15l13 35q17 -14 39 -14q25 0 42.5 22t17.5 58z" />
<glyph unicode="k" horiz-adv-x="458" d="M433 0h-45l-168 281l-109 -125v-156h-41v703h41v-490l251 288h51l-166 -189z" />
<glyph unicode="l" horiz-adv-x="181" d="M111 0h-41v703h41v-703z" />
<glyph unicode="m" horiz-adv-x="762" d="M697 0h-41v315q0 76 -31 119t-86 43q-60 0 -97.5 -48t-37.5 -116v-313h-41v315q0 76 -31 119t-86 43q-53 0 -94 -43.5t-41 -126.5v-307h-41v501h41v-68q47 81 139 81q104 0 140 -110q22 55 62 82.5t91 27.5q77 0 115.5 -58.5t38.5 -151.5v-304z" />
<glyph unicode="n" horiz-adv-x="493" d="M428 0h-41v315q0 76 -33.5 119t-94.5 43q-58 0 -103 -43.5t-45 -126.5v-307h-41v501h41v-73q23 42 63.5 64t88.5 22q82 0 123.5 -58.5t41.5 -151.5v-304z" />
<glyph unicode="o" horiz-adv-x="498" d="M249 -13q-97 0 -152 72t-55 192t55 191.5t152 71.5t152 -71.5t55 -191.5t-55 -192t-152 -72zM249 23q77 0 120.5 63t43.5 165t-43.5 164.5t-120.5 62.5t-120.5 -62.5t-43.5 -164.5t43.5 -165t120.5 -63z" />
<glyph unicode="p" horiz-adv-x="495" d="M111 -200h-41v701h41v-80q50 93 156 93q81 0 133.5 -76.5t52.5 -187.5t-51 -187t-131 -76q-103 0 -160 103v-290zM111 340v-153q15 -71 57.5 -117.5t96.5 -46.5q64 0 104.5 65.5t40.5 161.5t-41.5 162t-106.5 66q-52 0 -92 -38t-59 -100z" />
<glyph unicode="q" horiz-adv-x="495" d="M425 -200h-41v289q-56 -102 -160 -102q-80 0 -131 76t-51 187t52.5 187.5t133.5 76.5q105 0 156 -94v81h41v-701zM384 186v153q-20 62 -60 100.5t-91 38.5q-65 0 -106.5 -66t-41.5 -162t40.5 -161.5t104.5 -65.5q54 0 96.5 46t57.5 117z" />
<glyph unicode="r" horiz-adv-x="349" d="M111 0h-41v501h41v-73q23 42 63 64t87 22q30 0 63 -11l-16 -39q-26 11 -52 11q-58 0 -101.5 -44t-43.5 -127v-304z" />
<glyph unicode="s" horiz-adv-x="419" d="M45 83l32 24q52 -84 136 -84q56 0 87 28.5t31 71.5q0 40 -32.5 68t-119.5 59q-129 45 -129 139q0 54 41 89.5t114 35.5q97 0 160 -82l-32 -25q-49 71 -129 71q-50 0 -80.5 -23.5t-30.5 -65.5q0 -38 27.5 -61.5t89.5 -45.5q91 -33 127.5 -69.5t36.5 -88.5q0 -61 -43 -99 t-119 -38q-112 0 -167 96z" />
<glyph unicode="t" horiz-adv-x="306" d="M266 45v-43q-26 -15 -57 -15q-45 0 -74 33t-29 90v353h-81v38h81v202h41v-202h117v-38h-117v-358q0 -36 20 -57.5t48 -21.5t51 19z" />
<glyph unicode="u" horiz-adv-x="493" d="M423 0h-41v73q-23 -42 -63.5 -64t-88.5 -22q-82 0 -123.5 58.5t-41.5 151.5v304h41v-315q0 -76 33.5 -119t94.5 -43q58 0 103 43.5t45 126.5v307h41v-501z" />
<glyph unicode="v" horiz-adv-x="455" d="M243 0h-41l-177 501h45l154 -455l162 455h44z" />
<glyph unicode="w" horiz-adv-x="708" d="M528 0h-45l-129 452l-129 -452h-46l-149 501h44l128 -456l129 456h45l130 -456l128 456h44z" />
<glyph unicode="x" horiz-adv-x="441" d="M411 0h-48l-143 230l-142 -230h-48l164 258l-153 243h46l133 -214l133 214h47l-154 -243z" />
<glyph unicode="y" horiz-adv-x="454" d="M154 -129l49 127l-178 503h44l155 -454l161 454h44l-242 -644q-25 -65 -87 -65q-17 0 -35 8v34q16 -8 34 -8q39 0 55 45z" />
<glyph unicode="z" horiz-adv-x="403" d="M368 0h-333v33l281 430h-259v38h308v-32l-283 -431h286v-38z" />
<glyph unicode="{" horiz-adv-x="310" d="M270 -92v-36q-75 0 -123 54.5t-48 135.5v122q0 104 -79 136v32q79 32 79 136v99q0 81 48 136t123 55v-36q-56 0 -92.5 -40t-36.5 -109v-120q0 -42 -19.5 -79.5t-52.5 -57.5q33 -20 52.5 -57.5t19.5 -79.5v-143q0 -68 36.5 -108t92.5 -40z" />
<glyph unicode="|" horiz-adv-x="246" d="M146 -130h-46v873h46v-873z" />
<glyph unicode="}" horiz-adv-x="310" d="M40 -128v36q56 0 92.5 40t36.5 108v143q0 42 19.5 79.5t52.5 57.5q-33 20 -52.5 57.5t-19.5 79.5v120q0 69 -36.5 109t-92.5 40v36q75 0 123 -55t48 -136v-99q0 -104 79 -136v-32q-79 -32 -79 -136v-122q0 -81 -48 -135.5t-123 -54.5z" />
<glyph unicode="~" d="M482 380l31 -21q-49 -84 -123 -84q-32 0 -102 36.5t-101 36.5q-48 0 -88 -65l-32 20q42 85 126 85q34 0 104 -36.5t98 -36.5q29 0 48.5 16t38.5 49z" />
<glyph unicode="&#xa1;" horiz-adv-x="221" d="M145 -200h-45v274l12 247h22l11 -247v-274zM121 432q-17 0 -29 11.5t-12 28.5t12 29t29 12t28.5 -12t11.5 -29q0 -16 -11.5 -28t-28.5 -12z" />
<glyph unicode="&#xa2;" d="M326 -56h-43v126q-84 11 -134 79.5t-50 176.5t50 176.5t134 79.5v121h43v-119q100 -6 155 -93l-37 -25q-47 79 -132 79q-75 0 -120 -59.5t-45 -159.5q0 -99 45.5 -159t119.5 -60q85 0 132 79l37 -24q-55 -88 -155 -94v-124z" />
<glyph unicode="&#xa3;" d="M367 0h-278v533q0 82 47.5 132.5t138.5 50.5q98 0 161 -65l-28 -28q-57 55 -132 55q-76 0 -110.5 -42t-34.5 -106v-117h227v-37h-227v-339h228q57 0 89.5 27t32.5 77q0 66 -65 104l21 31q35 -19 59.5 -55t24.5 -78q0 -67 -42 -105t-112 -38z" />
<glyph unicode="&#xa4;" d="M563 97l-29 -29l-106 105q-60 -50 -139 -50q-78 0 -138 50l-105 -105l-29 29l106 106q-48 59 -48 139q0 78 48 136l-105 105l29 29l105 -104q57 49 137 49q79 0 139 -50l104 105l29 -29l-105 -105q47 -58 47 -136q0 -79 -47 -139zM289 165q74 0 121 50.5t47 126.5 q0 74 -47.5 124t-120.5 50q-72 0 -120 -50.5t-48 -123.5q0 -76 47.5 -126.5t120.5 -50.5z" />
<glyph unicode="&#xa5;" d="M487 175h-176v-175h-42v175h-176v35h176v73l-13 23h-163v35h143l-209 362h49l214 -381l216 381h47l-209 -362h143v-35h-163l-13 -23v-73h176v-35z" />
<glyph unicode="&#xa6;" horiz-adv-x="246" d="M146 394h-46v349h46v-349zM146 -130h-46v358h46v-358z" />
<glyph unicode="&#xa7;" horiz-adv-x="468" d="M82 -125l32 22q45 -73 127 -73q45 0 76.5 29t31.5 78q0 31 -10 53.5t-32.5 38.5t-41 25t-52.5 22q-33 13 -57 26t-50.5 35t-41 55.5t-14.5 75.5q0 55 30 99.5t80 73.5q-82 51 -82 141q0 61 44 100.5t104 39.5q98 0 160 -88l-32 -22q-45 73 -128 73q-45 0 -76.5 -29 t-31.5 -78q0 -31 10 -53.5t32.5 -39t41 -25t52.5 -21.5q33 -13 57 -26t51 -35.5t41.5 -56t14.5 -75.5q0 -55 -30.5 -99t-80.5 -73q83 -50 83 -141q0 -60 -44.5 -100t-104.5 -40q-98 0 -159 88zM275 85q50 27 77 70t27 85q0 61 -36.5 96.5t-100.5 60.5q-18 7 -50 21 q-50 -27 -77 -70.5t-27 -85.5q0 -61 36.5 -96t100.5 -60q30 -12 50 -21z" />
<glyph unicode="&#xa8;" horiz-adv-x="450" d="M340 647q0 -13 -10 -22.5t-23 -9.5t-22.5 9.5t-9.5 22.5t9.5 23t22.5 10t23 -10t10 -23zM175 647q0 -13 -10 -22.5t-23 -9.5t-22.5 9.5t-9.5 22.5t9.5 23t22.5 10q14 0 23.5 -10t9.5 -23z" />
<glyph unicode="&#xa9;" horiz-adv-x="849" d="M553 233l25 -22q-60 -73 -151 -73q-80 0 -135.5 59.5t-55.5 153.5q0 92 54.5 153t138.5 61q89 0 148 -70l-27 -23q-56 60 -121 60q-67 0 -112 -51t-45 -127q0 -79 45.5 -130.5t111.5 -51.5q69 0 124 61zM789 351q0 -151 -107 -257.5t-258 -106.5t-257.5 106.5 t-106.5 257.5t106.5 258t257.5 107q152 0 258.5 -107t106.5 -258zM760 351q0 139 -98 237.5t-238 98.5q-139 0 -237 -98.5t-98 -237.5t98 -237t237 -98t237.5 98t98.5 237z" />
<glyph unicode="&#xaa;" horiz-adv-x="370" d="M320 391h-18q-19 0 -33 11.5t-15 34.5q-49 -52 -104 -52q-44 0 -72 24.5t-28 68.5q0 52 39.5 79t97.5 27q39 0 69 -12v34q0 73 -76 73q-33 0 -52.5 -10.5t-36.5 -36.5l-26 20q38 58 120 58q45 0 75.5 -25t30.5 -67v-174q0 -22 21 -22h8v-31zM256 494v41q-15 20 -72 20 q-36 0 -67 -20t-31 -58q0 -31 19 -46t47 -15q35 0 67 25t37 53z" />
<glyph unicode="&#xab;" horiz-adv-x="479" d="M233 75l-40 -9l-158 220l158 220l40 -9l-151 -211zM419 75l-40 -9l-158 220l158 220l40 -9l-151 -211z" />
<glyph unicode="&#xac;" d="M540 119h-37v177h-463v39h500v-216z" />
<glyph unicode="&#xad;" horiz-adv-x="320" d="M270 272h-220v38h220v-38z" />
<glyph unicode="&#xae;" horiz-adv-x="626" d="M576 453q0 -109 -77 -186t-186 -77t-186 77t-77 186t77 186t186 77t186 -77t77 -186zM313 215q98 0 167.5 70t69.5 168t-69.5 167.5t-167.5 69.5t-168 -69.5t-70 -167.5t70 -168t168 -70zM438 290h-32l-91 145h-72v-145h-29v325h136q39 0 63 -26t24 -64t-25 -64t-65 -26z M243 461h103q29 0 45.5 18t16.5 46t-16.5 46t-45.5 18h-103v-128z" />
<glyph unicode="&#xaf;" horiz-adv-x="450" d="M352 621h-253v37h253v-37z" />
<glyph unicode="&#xb0;" horiz-adv-x="474" d="M237 397q-70 0 -118.5 49.5t-48.5 121.5q0 71 48.5 119.5t118.5 48.5q71 0 119 -48.5t48 -119.5q0 -72 -48 -121.5t-119 -49.5zM237 433q56 0 91.5 38.5t35.5 96.5q0 56 -36 94.5t-91 38.5t-91 -38.5t-36 -94.5q0 -58 36 -96.5t91 -38.5z" />
<glyph unicode="&#xb1;" d="M311 66h-41v232h-230v39h229v232h41v-232h230v-39h-229v-232zM540 0h-500v39h500v-39z" />
<glyph unicode="&#xb2;" horiz-adv-x="439" d="M389 203h-333q9 61 55 113.5t148 125.5q86 61 86 133q0 42 -35 72.5t-90 30.5q-46 0 -81.5 -23.5t-54.5 -65.5l-34 19q53 104 174 104q71 0 117 -39t46 -102q0 -50 -28.5 -88.5t-97.5 -85.5q-61 -41 -98 -76.5t-58 -81.5h284v-36z" />
<glyph unicode="&#xb3;" horiz-adv-x="454" d="M233 448h-66v35h53q58 0 92.5 29.5t34.5 68.5q0 40 -30 68t-84 28q-49 0 -82.5 -21t-49.5 -53l-35 16q51 93 165 93q77 0 117.5 -36t40.5 -93q0 -82 -83 -112q49 -15 73.5 -53.5t24.5 -81.5q0 -58 -43 -100t-133 -42q-62 0 -111 30t-67 77l33 18q17 -38 56 -64.5 t87 -26.5q62 0 98.5 30t36.5 79q0 48 -34 79.5t-94 31.5z" />
<glyph unicode="&#xb4;" horiz-adv-x="450" d="M348 727l-162 -150h-38l128 150h72z" />
<glyph unicode="&#xb5;" d="M469 0h-41v72q-47 -85 -150 -85q-90 0 -126 70v-257h-41v701h41v-301q0 -176 130 -176q61 0 103.5 47.5t42.5 128.5v301h41v-501z" />
<glyph unicode="&#xb6;" horiz-adv-x="522" d="M452 -200h-41v867h-128v-867h-41v502h-12q-83 0 -141.5 59t-58.5 142t58.5 141.5t141.5 58.5h222v-903z" />
<glyph unicode="&#xb7;" horiz-adv-x="181" d="M131 315q0 -17 -12 -29t-29 -12t-28.5 12t-11.5 29t12 28.5t28 11.5q17 0 29 -11.5t12 -28.5z" />
<glyph unicode="&#xb8;" horiz-adv-x="450" d="M113 -196l8 30q40 -18 79 -18t59 14t20 34q0 18 -14 29t-38 11q-25 0 -53 -13l-27 7l52 109h31l-42 -85q24 11 49 11q35 0 57.5 -19t22.5 -50q0 -34 -30.5 -55.5t-84.5 -21.5q-46 0 -89 17z" />
<glyph unicode="&#xb9;" horiz-adv-x="293" d="M203 203h-41v421q-52 -44 -132 -44v37q60 3 93 25.5t46 69.5h34v-509z" />
<glyph unicode="&#xba;" horiz-adv-x="376" d="M188 385q-62 0 -100 45t-38 118t38 118t100 45q61 0 99.5 -45t38.5 -118t-38.5 -118t-99.5 -45zM188 416q46 0 73.5 36.5t27.5 95.5t-27.5 96t-73.5 37q-47 0 -74 -37t-27 -96t27 -95.5t74 -36.5z" />
<glyph unicode="&#xbb;" horiz-adv-x="479" d="M286 66l-40 9l151 211l-151 211l40 9l158 -220zM100 66l-40 9l151 211l-151 211l40 9l158 -220z" />
<glyph unicode="&#xbc;" horiz-adv-x="1000" d="M302 -36l-34 17l409 760l34 -16zM870 0h-41v132h-271v30l270 344h42v-339h80v-35h-80v-132zM829 167v283l-221 -283h221zM242 203h-41v419q-50 -42 -132 -42v37q60 3 93 25.5t46 69.5h34v-509z" />
<glyph unicode="&#xbd;" horiz-adv-x="1000" d="M265 -36l-34 17l409 760l34 -16zM955 0h-333q5 58 56.5 115t162.5 136q70 50 70 121q0 43 -34 73t-89 30q-46 0 -84.5 -25t-53.5 -66l-34 21q23 51 72 77.5t108 26.5q68 0 112.5 -39.5t44.5 -101.5q0 -52 -28 -91t-98 -83q-57 -36 -95 -73t-63 -85h286v-36zM215 203h-41 v419q-50 -42 -132 -42v37q60 3 93 25.5t46 69.5h34v-509z" />
<glyph unicode="&#xbe;" horiz-adv-x="1000" d="M352 -36l-34 17l409 760l34 -16zM890 0h-41v132h-271v30l270 344h42v-339h80v-35h-80v-132zM849 167v283l-221 -283h221zM213 448h-66v35h53q58 0 92.5 29.5t34.5 68.5q0 40 -30 68t-84 28q-49 0 -82.5 -21t-49.5 -53l-35 16q51 93 165 93q77 0 117.5 -36t40.5 -93 q0 -82 -83 -112q49 -15 73.5 -53.5t24.5 -81.5q0 -58 -43 -100t-133 -42q-62 0 -111 30t-67 77l33 18q17 -38 56 -64.5t87 -26.5q62 0 98.5 30t36.5 79q0 48 -34 79.5t-94 31.5z" />
<glyph unicode="&#xbf;" horiz-adv-x="399" d="M303 473q0 -17 -11.5 -28.5t-28.5 -11.5t-29 11.5t-12 28.5t12 29t29 12t28.5 -12t11.5 -29zM412 -69l37 -16q-22 -61 -81.5 -94.5t-129.5 -33.5q-91 0 -144.5 49.5t-53.5 125.5q0 57 24.5 96.5t84.5 83.5q26 19 38 29.5t28.5 30t23.5 43t7 54.5v18h38v-18q0 -50 -19 -89 t-38.5 -57t-54.5 -43q-47 -35 -68 -67.5t-21 -80.5q0 -63 44 -100t111 -37q56 0 105.5 28t68.5 78z" />
<glyph unicode="&#xc0;" horiz-adv-x="609" d="M579 0h-44l-72 203h-317l-72 -203h-44l251 703h47zM451 239l-147 413l-146 -413h293zM332 762h-38l-162 150h72z" />
<glyph unicode="&#xc1;" horiz-adv-x="589" d="M569 0h-44l-72 203h-317l-72 -203h-44l251 703h47zM441 239l-147 413l-146 -413h293zM468 912l-162 -150h-38l128 150h72z" />
<glyph unicode="&#xc2;" horiz-adv-x="589" d="M569 0h-44l-72 203h-317l-72 -203h-44l251 703h47zM441 239l-147 413l-146 -413h293zM446 762h-38l-114 117l-116 -117h-36l125 150h55z" />
<glyph unicode="&#xc3;" horiz-adv-x="589" d="M569 0h-44l-72 203h-317l-72 -203h-44l251 703h47zM441 239l-147 413l-146 -413h293zM420 887l31 -5q-14 -89 -92 -89q-32 0 -70 29.5t-60 29.5q-44 0 -58 -59l-32 4q4 43 27.5 67.5t64.5 24.5q34 0 73.5 -29.5t58.5 -29.5q25 0 37.5 14.5t19.5 42.5z" />
<glyph unicode="&#xc4;" horiz-adv-x="589" d="M569 0h-44l-72 203h-317l-72 -203h-44l251 703h47zM441 239l-147 413l-146 -413h293zM409 832q0 -13 -10 -22.5t-23 -9.5t-22.5 9.5t-9.5 22.5t9.5 23t22.5 10q14 0 23.5 -9.5t9.5 -23.5zM244 832q0 -13 -10 -22.5t-23 -9.5t-22.5 9.5t-9.5 22.5t9.5 23t22.5 10t23 -9.5 t10 -23.5z" />
<glyph unicode="&#xc5;" horiz-adv-x="589" d="M569 0h-44l-72 203h-317l-72 -203h-44l248 699q-32 8 -52 34.5t-20 60.5q0 41 28 69.5t70 28.5t70 -28.5t28 -69.5q0 -34 -20 -60.5t-52 -34.5zM440 239l-146 416l-145 -416h291zM359 794q0 28 -19 47t-47 19t-46.5 -19t-18.5 -47t18.5 -47t46.5 -19t47 19t19 47z" />
<glyph unicode="&#xc6;" horiz-adv-x="954" d="M919 0h-442v199h-291l-128 -199h-48l455 703h434v-38h-380v-278h289v-38h-289v-311h400v-38zM477 237v412l-266 -412h266z" />
<glyph unicode="&#xc7;" horiz-adv-x="616" d="M234 -196l8 30q40 -18 79 -18t59 14t20 34q0 18 -14 29t-38 11q-25 0 -53 -13l-27 7l43 90q-122 7 -194 110t-72 254q0 156 78 260t206 104q86 0 149.5 -49t97.5 -135l-40 -15q-29 75 -82.5 118t-124.5 43q-107 0 -173.5 -93.5t-66.5 -232.5t65.5 -233t172.5 -94 q125 0 190 124l40 -17q-35 -64 -90 -102t-126 -42l-32 -66q24 11 49 11q35 0 57.5 -19t22.5 -50q0 -34 -30.5 -55.5t-84.5 -21.5q-47 0 -89 17z" />
<glyph unicode="&#xc8;" horiz-adv-x="552" d="M517 0h-442v703h422v-38h-380v-278h289v-38h-289v-311h400v-38zM347 762h-38l-162 150h72z" />
<glyph unicode="&#xc9;" horiz-adv-x="552" d="M517 0h-442v703h422v-38h-380v-278h289v-38h-289v-311h400v-38zM423 912l-162 -150h-38l128 150h72z" />
<glyph unicode="&#xca;" horiz-adv-x="552" d="M517 0h-442v703h422v-38h-380v-278h289v-38h-289v-311h400v-38zM447 762h-38l-114 117l-116 -117h-36l125 150h55z" />
<glyph unicode="&#xcb;" horiz-adv-x="552" d="M517 0h-442v703h422v-38h-380v-278h289v-38h-289v-311h400v-38zM405 832q0 -13 -10 -22.5t-23 -9.5t-22.5 9.5t-9.5 22.5t9.5 23t22.5 10q14 0 23.5 -9.5t9.5 -23.5zM240 832q0 -13 -10 -22.5t-23 -9.5t-22.5 9.5t-9.5 22.5t9.5 23t22.5 10t23 -9.5t10 -23.5z" />
<glyph unicode="&#xcc;" horiz-adv-x="192" d="M117 0h-42v703h42v-703zM117 762h-38l-162 150h72z" />
<glyph unicode="&#xcd;" horiz-adv-x="192" d="M117 0h-42v703h42v-703zM275 912l-162 -150h-38l128 150h72z" />
<glyph unicode="&#xce;" horiz-adv-x="192" d="M117 0h-42v703h42v-703zM248 762h-38l-114 117l-116 -117h-36l125 150h55z" />
<glyph unicode="&#xcf;" horiz-adv-x="192" d="M117 0h-42v703h42v-703zM211 832q0 -13 -10 -22.5t-23 -9.5t-22.5 9.5t-9.5 22.5t9.5 23t22.5 10q14 0 23.5 -9.5t9.5 -23.5zM46 832q0 -13 -10 -22.5t-23 -9.5t-22.5 9.5t-9.5 22.5t9.5 23t22.5 10t23 -9.5t10 -23.5z" />
<glyph unicode="&#xd0;" horiz-adv-x="639" d="M312 0h-220v346h-82v36h82v321h220q128 0 205 -100.5t77 -250.5t-77 -251t-205 -101zM135 38h177q107 0 172 90.5t65 223.5t-65 223t-172 90h-177v-283h186v-36h-186v-308z" />
<glyph unicode="&#xd1;" horiz-adv-x="650" d="M575 0h-47l-411 636v-636h-42v703h46l412 -637v637h42v-703zM451 887l31 -5q-14 -89 -92 -89q-32 0 -70 29.5t-60 29.5q-44 0 -58 -59l-32 4q4 43 27.5 67.5t64.5 24.5q34 0 73.5 -29.5t58.5 -29.5q25 0 37.5 14.5t19.5 42.5z" />
<glyph unicode="&#xd2;" horiz-adv-x="654" d="M327 -13q-128 0 -205 104t-77 260t77 260.5t205 104.5t205 -104.5t77 -260.5t-77 -260t-205 -104zM327 25q108 0 173 93.5t65 232.5q0 140 -65 233.5t-173 93.5q-107 0 -172.5 -94t-65.5 -233t65.5 -232.5t172.5 -93.5zM357 762h-38l-162 150h72z" />
<glyph unicode="&#xd3;" horiz-adv-x="654" d="M327 -13q-128 0 -205 104t-77 260t77 260.5t205 104.5t205 -104.5t77 -260.5t-77 -260t-205 -104zM327 25q108 0 173 93.5t65 232.5q0 140 -65 233.5t-173 93.5q-107 0 -172.5 -94t-65.5 -233t65.5 -232.5t172.5 -93.5zM493 912l-162 -150h-38l128 150h72z" />
<glyph unicode="&#xd4;" horiz-adv-x="654" d="M327 -13q-128 0 -205 104t-77 260t77 260.5t205 104.5t205 -104.5t77 -260.5t-77 -260t-205 -104zM327 25q108 0 173 93.5t65 232.5q0 140 -65 233.5t-173 93.5q-107 0 -172.5 -94t-65.5 -233t65.5 -232.5t172.5 -93.5zM479 762h-38l-114 117l-116 -117h-36l125 150h55z " />
<glyph unicode="&#xd5;" horiz-adv-x="654" d="M327 -13q-128 0 -205 104t-77 260t77 260.5t205 104.5t205 -104.5t77 -260.5t-77 -260t-205 -104zM327 25q108 0 173 93.5t65 232.5q0 140 -65 233.5t-173 93.5q-107 0 -172.5 -94t-65.5 -233t65.5 -232.5t172.5 -93.5zM453 887l31 -5q-14 -89 -92 -89q-32 0 -70 29.5 t-60 29.5q-44 0 -58 -59l-32 4q4 43 27.5 67.5t64.5 24.5q34 0 73.5 -29.5t58.5 -29.5q25 0 37.5 14.5t19.5 42.5z" />
<glyph unicode="&#xd6;" horiz-adv-x="654" d="M327 -13q-128 0 -205 104t-77 260t77 260.5t205 104.5t205 -104.5t77 -260.5t-77 -260t-205 -104zM327 25q108 0 173 93.5t65 232.5q0 140 -65 233.5t-173 93.5q-107 0 -172.5 -94t-65.5 -233t65.5 -232.5t172.5 -93.5zM442 832q0 -13 -10 -22.5t-23 -9.5t-22.5 9.5 t-9.5 22.5t9.5 23t22.5 10t23 -9.5t10 -23.5zM277 832q0 -13 -10 -22.5t-23 -9.5t-22.5 9.5t-9.5 22.5t9.5 23t22.5 10q14 0 23.5 -9.5t9.5 -23.5z" />
<glyph unicode="&#xd7;" d="M503 66l-28 -28l-184 187l-185 -187l-28 28l185 187l-185 187l28 28l185 -187l184 187l28 -28l-184 -187z" />
<glyph unicode="&#xd8;" horiz-adv-x="654" d="M93 -56l-28 17l71 113q-91 103 -91 277q0 156 77 260.5t205 104.5q98 0 167 -63l66 106l28 -17l-70 -113q91 -105 91 -278q0 -156 -77 -260t-205 -104q-97 0 -168 63zM160 111l313 505q-62 62 -146 62q-107 0 -172.5 -94t-65.5 -233q0 -147 71 -240zM494 592l-313 -505 q62 -62 146 -62q108 0 173 93.5t65 232.5q0 148 -71 241z" />
<glyph unicode="&#xd9;" horiz-adv-x="626" d="M514 285v418h42v-413q0 -153 -55.5 -228t-187.5 -75t-187.5 75t-55.5 228v413h42v-418q0 -133 45 -196.5t156 -63.5t156 63.5t45 196.5zM347 762h-38l-162 150h72z" />
<glyph unicode="&#xda;" horiz-adv-x="626" d="M514 285v418h42v-413q0 -153 -55.5 -228t-187.5 -75t-187.5 75t-55.5 228v413h42v-418q0 -133 45 -196.5t156 -63.5t156 63.5t45 196.5zM463 912l-162 -150h-38l128 150h72z" />
<glyph unicode="&#xdb;" horiz-adv-x="626" d="M514 285v418h42v-413q0 -153 -55.5 -228t-187.5 -75t-187.5 75t-55.5 228v413h42v-418q0 -133 45 -196.5t156 -63.5t156 63.5t45 196.5zM465 762h-38l-114 117l-116 -117h-36l125 150h55z" />
<glyph unicode="&#xdc;" horiz-adv-x="626" d="M514 285v418h42v-413q0 -153 -55.5 -228t-187.5 -75t-187.5 75t-55.5 228v413h42v-418q0 -133 45 -196.5t156 -63.5t156 63.5t45 196.5zM428 832q0 -13 -10 -22.5t-23 -9.5t-22.5 9.5t-9.5 22.5t9.5 23t22.5 10t23 -9.5t10 -23.5zM263 832q0 -13 -10 -22.5t-23 -9.5 t-22.5 9.5t-9.5 22.5t9.5 23t22.5 10q14 0 23.5 -9.5t9.5 -23.5z" />
<glyph unicode="&#xdd;" horiz-adv-x="566" d="M304 0h-42v283l-242 420h46l217 -379l216 379h47l-242 -420v-283zM438 912l-162 -150h-38l128 150h72z" />
<glyph unicode="&#xde;" horiz-adv-x="570" d="M117 0h-42v703h42v-123h174q115 0 179.5 -43.5t64.5 -150.5q0 -58 -20.5 -98.5t-58.5 -61.5t-82 -30t-100 -9h-157v-187zM117 224h154q120 0 170 37.5t50 123.5t-48 122t-157 36h-169v-319z" />
<glyph unicode="&#xdf;" horiz-adv-x="515" d="M197 1v39q32 -14 71 -14q74 0 118 42.5t44 123.5q0 80 -66 130t-161 54v34q68 0 122.5 36.5t54.5 102.5q0 56 -34.5 93.5t-94.5 37.5q-140 0 -140 -205v-475h-41v473q0 53 7.5 92.5t26 75.5t56.5 55.5t93 19.5q84 0 127 -47.5t43 -116.5q0 -120 -132 -157 q92 -24 137 -79.5t45 -127.5q0 -95 -56 -146.5t-150 -51.5q-44 0 -70 11z" />
<glyph unicode="&#xe0;" horiz-adv-x="496" d="M456 0h-22q-54 0 -54 56v17q-29 -39 -79.5 -61.5t-103.5 -22.5q-66 0 -110.5 36.5t-44.5 107.5q0 83 61 127.5t149 44.5q68 0 128 -27v69q0 59 -40 94.5t-96 35.5q-40 0 -78 -21.5t-63 -61.5l-32 24q25 44 73.5 70t104.5 26q72 0 122 -43.5t50 -130.5v-286q0 -17 19 -17 h16v-37zM380 126v109q-48 33 -125 33q-72 0 -121 -36t-49 -95q0 -53 33 -82t83 -29q48 0 97.5 26.5t81.5 73.5zM294 577h-38l-162 150h72z" />
<glyph unicode="&#xe1;" horiz-adv-x="496" d="M456 0h-22q-54 0 -54 56v17q-29 -39 -79.5 -61.5t-103.5 -22.5q-66 0 -110.5 36.5t-44.5 107.5q0 83 61 127.5t149 44.5q68 0 128 -27v69q0 59 -40 94.5t-96 35.5q-40 0 -78 -21.5t-63 -61.5l-32 24q25 44 73.5 70t104.5 26q72 0 122 -43.5t50 -130.5v-286q0 -17 19 -17 h16v-37zM380 126v109q-48 33 -125 33q-72 0 -121 -36t-49 -95q0 -53 33 -82t83 -29q48 0 97.5 26.5t81.5 73.5zM390 727l-162 -150h-38l128 150h72z" />
<glyph unicode="&#xe2;" horiz-adv-x="496" d="M456 0h-22q-54 0 -54 56v17q-29 -39 -79.5 -61.5t-103.5 -22.5q-66 0 -110.5 36.5t-44.5 107.5q0 83 61 127.5t149 44.5q68 0 128 -27v69q0 59 -40 94.5t-96 35.5q-40 0 -78 -21.5t-63 -61.5l-32 24q25 44 73.5 70t104.5 26q72 0 122 -43.5t50 -130.5v-286q0 -17 19 -17 h16v-37zM380 126v109q-48 33 -125 33q-72 0 -121 -36t-49 -95q0 -53 33 -82t83 -29q48 0 97.5 26.5t81.5 73.5zM399 577h-38l-114 117l-116 -117h-36l125 150h55z" />
<glyph unicode="&#xe3;" horiz-adv-x="496" d="M456 0h-22q-54 0 -54 56v17q-29 -39 -79.5 -61.5t-103.5 -22.5q-66 0 -110.5 36.5t-44.5 107.5q0 83 61 127.5t149 44.5q68 0 128 -27v69q0 59 -40 94.5t-96 35.5q-40 0 -78 -21.5t-63 -61.5l-32 24q25 44 73.5 70t104.5 26q72 0 122 -43.5t50 -130.5v-286q0 -17 19 -17 h16v-37zM380 126v109q-48 33 -125 33q-72 0 -121 -36t-49 -95q0 -53 33 -82t83 -29q48 0 97.5 26.5t81.5 73.5zM372 702l31 -5q-14 -89 -92 -89q-32 0 -70 29.5t-60 29.5q-44 0 -58 -59l-32 4q4 43 27.5 67.5t64.5 24.5q34 0 73.5 -29.5t58.5 -29.5q25 0 37.5 14.5 t19.5 42.5z" />
<glyph unicode="&#xe4;" horiz-adv-x="496" d="M456 0h-22q-54 0 -54 56v17q-29 -39 -79.5 -61.5t-103.5 -22.5q-66 0 -110.5 36.5t-44.5 107.5q0 83 61 127.5t149 44.5q68 0 128 -27v69q0 59 -40 94.5t-96 35.5q-40 0 -78 -21.5t-63 -61.5l-32 24q25 44 73.5 70t104.5 26q72 0 122 -43.5t50 -130.5v-286q0 -17 19 -17 h16v-37zM380 126v109q-48 33 -125 33q-72 0 -121 -36t-49 -95q0 -53 33 -82t83 -29q48 0 97.5 26.5t81.5 73.5zM352 647q0 -13 -10 -22.5t-23 -9.5t-22.5 9.5t-9.5 22.5t9.5 23t22.5 10t23 -10t10 -23zM187 647q0 -13 -10 -22.5t-23 -9.5t-22.5 9.5t-9.5 22.5t9.5 23 t22.5 10q14 0 23.5 -10t9.5 -23z" />
<glyph unicode="&#xe5;" horiz-adv-x="496" d="M456 0h-22q-54 0 -54 56v17q-29 -39 -79.5 -61.5t-103.5 -22.5q-66 0 -110.5 36.5t-44.5 107.5q0 83 61 127.5t149 44.5q68 0 128 -27v69q0 59 -40 94.5t-96 35.5q-40 0 -78 -21.5t-63 -61.5l-32 24q25 44 73.5 70t104.5 26q72 0 122 -43.5t50 -130.5v-286q0 -17 19 -17 h16v-37zM380 126v109q-48 33 -125 33q-72 0 -121 -36t-49 -95q0 -53 33 -82t83 -29q48 0 97.5 26.5t81.5 73.5zM343 673q0 -41 -28 -69.5t-70 -28.5t-70 28.5t-28 69.5t28 69.5t70 28.5t70 -28.5t28 -69.5zM310 673q0 28 -19 47t-47 19t-46.5 -19t-18.5 -47t18.5 -47 t46.5 -19t47 19t19 47z" />
<glyph unicode="&#xe6;" horiz-adv-x="820" d="M721 104l34 -23q-28 -44 -73 -69t-99 -25q-59 0 -104.5 31.5t-71.5 87.5q-35 -49 -92 -83t-118 -34q-66 0 -110.5 36.5t-44.5 107.5q0 83 61 127.5t149 44.5q68 0 128 -27v69q0 59 -40 94t-96 35q-40 0 -78 -21t-62 -61l-33 24q25 44 73.5 70t104.5 26q57 0 101.5 -27.5 t60.5 -82.5q54 110 169 110q91 0 145.5 -72.5t54.5 -190.5v-9h-358q2 -96 47 -157.5t114 -61.5q42 0 79 22t59 59zM393 144q-13 44 -14 92q-49 32 -124 32q-72 0 -121 -36t-49 -95q0 -53 33 -82t83 -29q52 0 104 32t88 86zM423 278h314q-6 90 -49 145t-108 55 q-66 0 -108.5 -55t-48.5 -145z" />
<glyph unicode="&#xe7;" horiz-adv-x="456" d="M154 -196l8 30q40 -18 79 -18t59 14t20 34q0 18 -14 29t-38 11q-25 0 -53 -13l-27 7l43 90q-87 7 -138 78t-51 184q0 119 56 191.5t151 72.5q109 0 167 -93l-34 -24q-53 80 -133 80q-74 0 -119 -63t-45 -164q0 -100 45 -163t119 -63q79 0 131 80l34 -23q-54 -87 -153 -93 l-32 -66q24 11 49 11q35 0 57.5 -19t22.5 -50q0 -34 -30.5 -55.5t-84.5 -21.5q-47 0 -89 17z" />
<glyph unicode="&#xe8;" horiz-adv-x="479" d="M386 104l32 -23q-28 -44 -73 -69t-99 -25q-91 0 -147.5 73t-56.5 191t54.5 190.5t145.5 72.5t143 -72t52 -191v-9h-352q2 -96 47 -157.5t114 -61.5q42 0 80 22t60 59zM86 278h309q-6 90 -47 145t-106 55t-107.5 -55t-48.5 -145zM284 577h-38l-162 150h72z" />
<glyph unicode="&#xe9;" horiz-adv-x="479" d="M386 104l32 -23q-28 -44 -73 -69t-99 -25q-91 0 -147.5 73t-56.5 191t54.5 190.5t145.5 72.5t143 -72t52 -191v-9h-352q2 -96 47 -157.5t114 -61.5q42 0 80 22t60 59zM86 278h309q-6 90 -47 145t-106 55t-107.5 -55t-48.5 -145zM380 727l-162 -150h-38l128 150h72z" />
<glyph unicode="&#xea;" horiz-adv-x="479" d="M386 104l32 -23q-28 -44 -73 -69t-99 -25q-91 0 -147.5 73t-56.5 191t54.5 190.5t145.5 72.5t143 -72t52 -191v-9h-352q2 -96 47 -157.5t114 -61.5q42 0 80 22t60 59zM86 278h309q-6 90 -47 145t-106 55t-107.5 -55t-48.5 -145zM399 577h-38l-114 117l-116 -117h-36 l125 150h55z" />
<glyph unicode="&#xeb;" horiz-adv-x="479" d="M386 104l32 -23q-28 -44 -73 -69t-99 -25q-91 0 -147.5 73t-56.5 191t54.5 190.5t145.5 72.5t143 -72t52 -191v-9h-352q2 -96 47 -157.5t114 -61.5q42 0 80 22t60 59zM86 278h309q-6 90 -47 145t-106 55t-107.5 -55t-48.5 -145zM362 647q0 -13 -10 -22.5t-23 -9.5 t-22.5 9.5t-9.5 22.5t9.5 23t22.5 10t23 -10t10 -23zM197 647q0 -13 -10 -22.5t-23 -9.5t-22.5 9.5t-9.5 22.5t9.5 23t22.5 10q14 0 23.5 -10t9.5 -23z" />
<glyph unicode="&#xec;" horiz-adv-x="195" d="M118 0h-41v501h41v-501zM117 577h-38l-162 150h72z" />
<glyph unicode="&#xed;" horiz-adv-x="195" d="M118 0h-41v501h41v-501zM278 727l-162 -150h-38l128 150h72z" />
<glyph unicode="&#xee;" horiz-adv-x="195" d="M118 0h-41v501h41v-501zM249 577h-38l-114 117l-116 -117h-36l125 150h55z" />
<glyph unicode="&#xef;" horiz-adv-x="195" d="M118 0h-41v501h41v-501zM212 647q0 -13 -10 -22.5t-23 -9.5t-22.5 9.5t-9.5 22.5t9.5 23t22.5 10t23 -10t10 -23zM47 647q0 -13 -10 -22.5t-23 -9.5t-22.5 9.5t-9.5 22.5t9.5 23t22.5 10q14 0 23.5 -10t9.5 -23z" />
<glyph unicode="&#xf0;" horiz-adv-x="523" d="M418 659l-65 -35q128 -132 128 -356q0 -48 -11.5 -94.5t-36 -90t-70 -70t-106.5 -26.5q-99 0 -157 69t-58 175q0 111 58.5 179.5t147.5 68.5q65 0 117.5 -33t78.5 -101q-16 90 -45 149.5t-77 111.5l-102 -57l-22 28l98 53q-44 35 -93 58l16 30q55 -23 110 -68l66 38z M257 23q81 0 127.5 57.5t47.5 152.5q0 26 -4.5 52.5t-17 55.5t-31.5 51t-51 36.5t-73 14.5q-60 0 -100 -33t-55 -78t-15 -100q0 -99 48.5 -154t123.5 -55z" />
<glyph unicode="&#xf1;" horiz-adv-x="493" d="M428 0h-41v315q0 76 -33.5 119t-94.5 43q-58 0 -103 -43.5t-45 -126.5v-307h-41v501h41v-73q23 42 63.5 64t88.5 22q82 0 123.5 -58.5t41.5 -151.5v-304zM369 702l31 -5q-14 -89 -92 -89q-32 0 -70 29.5t-60 29.5q-44 0 -58 -59l-32 4q4 43 27.5 67.5t64.5 24.5 q34 0 73.5 -29.5t58.5 -29.5q25 0 37.5 14.5t19.5 42.5z" />
<glyph unicode="&#xf2;" horiz-adv-x="498" d="M249 -13q-97 0 -152 72t-55 192t55 191.5t152 71.5t152 -71.5t55 -191.5t-55 -192t-152 -72zM249 23q77 0 120.5 63t43.5 165t-43.5 164.5t-120.5 62.5t-120.5 -62.5t-43.5 -164.5t43.5 -165t120.5 -63zM284 577h-38l-162 150h72z" />
<glyph unicode="&#xf3;" horiz-adv-x="498" d="M249 -13q-97 0 -152 72t-55 192t55 191.5t152 71.5t152 -71.5t55 -191.5t-55 -192t-152 -72zM249 23q77 0 120.5 63t43.5 165t-43.5 164.5t-120.5 62.5t-120.5 -62.5t-43.5 -164.5t43.5 -165t120.5 -63zM412 727l-162 -150h-38l128 150h72z" />
<glyph unicode="&#xf4;" horiz-adv-x="498" d="M249 -13q-97 0 -152 72t-55 192t55 191.5t152 71.5t152 -71.5t55 -191.5t-55 -192t-152 -72zM249 23q77 0 120.5 63t43.5 165t-43.5 164.5t-120.5 62.5t-120.5 -62.5t-43.5 -164.5t43.5 -165t120.5 -63zM398 577h-38l-114 117l-116 -117h-36l125 150h55z" />
<glyph unicode="&#xf5;" horiz-adv-x="498" d="M249 -13q-97 0 -152 72t-55 192t55 191.5t152 71.5t152 -71.5t55 -191.5t-55 -192t-152 -72zM249 23q77 0 120.5 63t43.5 165t-43.5 164.5t-120.5 62.5t-120.5 -62.5t-43.5 -164.5t43.5 -165t120.5 -63zM372 702l31 -5q-14 -89 -92 -89q-32 0 -70 29.5t-60 29.5 q-44 0 -58 -59l-32 4q4 43 27.5 67.5t64.5 24.5q34 0 73.5 -29.5t58.5 -29.5q25 0 37.5 14.5t19.5 42.5z" />
<glyph unicode="&#xf6;" horiz-adv-x="498" d="M249 -13q-97 0 -152 72t-55 192t55 191.5t152 71.5t152 -71.5t55 -191.5t-55 -192t-152 -72zM249 23q77 0 120.5 63t43.5 165t-43.5 164.5t-120.5 62.5t-120.5 -62.5t-43.5 -164.5t43.5 -165t120.5 -63zM361 647q0 -13 -10 -22.5t-23 -9.5t-22.5 9.5t-9.5 22.5t9.5 23 t22.5 10q14 0 23.5 -10t9.5 -23zM196 647q0 -13 -10 -22.5t-23 -9.5t-22.5 9.5t-9.5 22.5t9.5 23t22.5 10t23 -10t10 -23z" />
<glyph unicode="&#xf7;" d="M326 480q0 -15 -10.5 -25.5t-25.5 -10.5q-14 0 -24.5 10.5t-10.5 25.5q0 14 10.5 24.5t24.5 10.5q15 0 25.5 -10.5t10.5 -24.5zM540 296h-500v39h500v-39zM326 149q0 -14 -10.5 -24.5t-25.5 -10.5q-14 0 -24.5 10.5t-10.5 24.5q0 15 10.5 25.5t24.5 10.5q15 0 25.5 -10.5 t10.5 -25.5z" />
<glyph unicode="&#xf8;" horiz-adv-x="524" d="M67 -49l-25 19l62 87q-62 71 -62 194q0 118 60.5 190.5t159.5 72.5q76 0 135 -49l60 83l25 -19l-62 -87q62 -73 62 -192q0 -118 -60.5 -190.5t-159.5 -72.5q-79 0 -135 47zM130 92l244 339q-49 47 -112 47q-79 0 -128 -63.5t-49 -163.5q0 -98 45 -159zM394 408l-244 -340 q47 -45 112 -45q79 0 128 63.5t49 163.5q0 94 -45 158z" />
<glyph unicode="&#xf9;" horiz-adv-x="493" d="M423 0h-41v73q-23 -42 -63.5 -64t-88.5 -22q-82 0 -123.5 58.5t-41.5 151.5v304h41v-315q0 -76 33.5 -119t94.5 -43q58 0 103 43.5t45 126.5v307h41v-501zM262 577h-38l-162 150h72z" />
<glyph unicode="&#xfa;" horiz-adv-x="493" d="M423 0h-41v73q-23 -42 -63.5 -64t-88.5 -22q-82 0 -123.5 58.5t-41.5 151.5v304h41v-315q0 -76 33.5 -119t94.5 -43q58 0 103 43.5t45 126.5v307h41v-501zM398 727l-162 -150h-38l128 150h72z" />
<glyph unicode="&#xfb;" horiz-adv-x="493" d="M423 0h-41v73q-23 -42 -63.5 -64t-88.5 -22q-82 0 -123.5 58.5t-41.5 151.5v304h41v-315q0 -76 33.5 -119t94.5 -43q58 0 103 43.5t45 126.5v307h41v-501zM395 577h-38l-114 117l-116 -117h-36l125 150h55z" />
<glyph unicode="&#xfc;" horiz-adv-x="493" d="M423 0h-41v73q-23 -42 -63.5 -64t-88.5 -22q-82 0 -123.5 58.5t-41.5 151.5v304h41v-315q0 -76 33.5 -119t94.5 -43q58 0 103 43.5t45 126.5v307h41v-501zM358 647q0 -13 -10 -22.5t-23 -9.5t-22.5 9.5t-9.5 22.5t9.5 23t22.5 10t23 -10t10 -23zM193 647q0 -13 -10 -22.5 t-23 -9.5t-22.5 9.5t-9.5 22.5t9.5 23t22.5 10q14 0 23.5 -10t9.5 -23z" />
<glyph unicode="&#xfd;" horiz-adv-x="454" d="M154 -129l49 127l-178 503h44l155 -454l161 454h44l-242 -644q-25 -65 -87 -65q-17 0 -35 8v34q16 -8 34 -8q39 0 55 45zM383 727l-162 -150h-38l128 150h72z" />
<glyph unicode="&#xfe;" horiz-adv-x="495" d="M111 -200h-41v904h41v-281q49 91 156 91q81 0 133.5 -76.5t52.5 -187.5t-51 -187t-131 -76q-103 0 -160 103v-290zM111 340v-153q15 -71 57.5 -117.5t96.5 -46.5q64 0 104.5 65.5t40.5 161.5t-41.5 162t-106.5 66q-52 0 -92 -38t-59 -100z" />
<glyph unicode="&#xff;" horiz-adv-x="454" d="M154 -129l49 127l-178 503h44l155 -454l161 454h44l-242 -644q-25 -65 -87 -65q-17 0 -35 8v34q16 -8 34 -8q39 0 55 45zM339 647q0 -13 -10 -22.5t-23 -9.5t-22.5 9.5t-9.5 22.5t9.5 23t22.5 10q14 0 23.5 -10t9.5 -23zM174 647q0 -13 -10 -22.5t-23 -9.5t-22.5 9.5 t-9.5 22.5t9.5 23t22.5 10t23 -10t10 -23z" />
<glyph unicode="&#x100;" horiz-adv-x="589" d="M569 0h-44l-72 203h-317l-72 -203h-44l251 703h47zM441 239l-147 413l-146 -413h293zM421 806h-253v37h253v-37z" />
<glyph unicode="&#x101;" horiz-adv-x="496" d="M456 0h-22q-54 0 -54 56v17q-29 -39 -79.5 -61.5t-103.5 -22.5q-66 0 -110.5 36.5t-44.5 107.5q0 83 61 127.5t149 44.5q68 0 128 -27v69q0 59 -40 94.5t-96 35.5q-40 0 -78 -21.5t-63 -61.5l-32 24q25 44 73.5 70t104.5 26q72 0 122 -43.5t50 -130.5v-286q0 -17 19 -17 h16v-37zM380 126v109q-48 33 -125 33q-72 0 -121 -36t-49 -95q0 -53 33 -82t83 -29q48 0 97.5 26.5t81.5 73.5zM368 621h-253v37h253v-37z" />
<glyph unicode="&#x102;" horiz-adv-x="589" d="M569 0h-44l-72 203h-317l-72 -203h-44l251 703h47zM441 239l-147 413l-146 -413h293zM397 907h33q-3 -54 -39.5 -89t-99.5 -35q-58 0 -93.5 33.5t-39.5 90.5h35q4 -39 31 -64t69 -25q40 0 69.5 24.5t34.5 64.5z" />
<glyph unicode="&#x103;" horiz-adv-x="496" d="M456 0h-22q-54 0 -54 56v17q-29 -39 -79.5 -61.5t-103.5 -22.5q-66 0 -110.5 36.5t-44.5 107.5q0 83 61 127.5t149 44.5q68 0 128 -27v69q0 59 -40 94.5t-96 35.5q-40 0 -78 -21.5t-63 -61.5l-32 24q25 44 73.5 70t104.5 26q72 0 122 -43.5t50 -130.5v-286q0 -17 19 -17 h16v-37zM380 126v109q-48 33 -125 33q-72 0 -121 -36t-49 -95q0 -53 33 -82t83 -29q48 0 97.5 26.5t81.5 73.5zM346 722h33q-3 -54 -39.5 -89t-99.5 -35q-58 0 -93.5 33.5t-39.5 90.5h35q4 -39 31 -64t69 -25q40 0 69.5 24.5t34.5 64.5z" />
<glyph unicode="&#x104;" horiz-adv-x="589" d="M591 -165l8 -28q-40 -20 -74 -20q-43 0 -70.5 23.5t-27.5 59.5q0 34 29 71t69 59l-72 203h-317l-72 -203h-44l251 703h47l251 -703q-43 -23 -74.5 -59t-31.5 -66q0 -57 65 -57q23 0 63 17zM440 239l-146 412l-145 -412h291z" />
<glyph unicode="&#x105;" horiz-adv-x="496" d="M482 -165l8 -28q-40 -20 -74 -20q-43 0 -70.5 23.5t-27.5 59.5q0 35 30 72t68 59q-36 5 -36 53v19q-29 -39 -79.5 -61.5t-103.5 -22.5q-66 0 -110.5 36.5t-44.5 107.5q0 83 61 127.5t149 44.5q68 0 128 -27v68q0 59 -40 95t-96 36q-40 0 -79 -21.5t-63 -61.5l-31 24 q25 44 73.5 70t104.5 26q72 0 122 -44t50 -131v-285q0 -17 20 -17h15v-37q-38 -21 -70 -58.5t-32 -66.5q0 -57 65 -57q23 0 63 17zM380 126v109q-48 33 -125 33q-72 0 -121 -36t-49 -95q0 -53 33 -82t83 -29q48 0 97.5 26.5t81.5 73.5z" />
<glyph unicode="&#x106;" horiz-adv-x="616" d="M517 149l40 -17q-36 -68 -95.5 -106.5t-134.5 -38.5q-128 0 -205 104.5t-77 260.5t78 260t206 104q86 0 149.5 -49t97.5 -135l-40 -15q-29 75 -82.5 118t-124.5 43q-107 0 -173.5 -93.5t-66.5 -232.5t65.5 -233t172.5 -94q125 0 190 124zM483 912l-162 -150h-38l128 150 h72z" />
<glyph unicode="&#x107;" horiz-adv-x="456" d="M380 104l34 -23q-59 -94 -165 -94q-95 0 -151 72t-56 191t56 191.5t151 72.5q109 0 167 -93l-34 -24q-53 80 -133 80q-74 0 -119 -63t-45 -164q0 -100 45 -163t119 -63q79 0 131 80zM409 727l-162 -150h-38l128 150h72z" />
<glyph unicode="&#x108;" horiz-adv-x="616" d="M517 149l40 -17q-36 -68 -95.5 -106.5t-134.5 -38.5q-128 0 -205 104.5t-77 260.5t78 260t206 104q86 0 149.5 -49t97.5 -135l-40 -15q-29 75 -82.5 118t-124.5 43q-107 0 -173.5 -93.5t-66.5 -232.5t65.5 -233t172.5 -94q125 0 190 124zM487 762h-38l-114 117l-116 -117 h-36l125 150h55z" />
<glyph unicode="&#x109;" horiz-adv-x="456" d="M380 104l34 -23q-59 -94 -165 -94q-95 0 -151 72t-56 191t56 191.5t151 72.5q109 0 167 -93l-34 -24q-53 80 -133 80q-74 0 -119 -63t-45 -164q0 -100 45 -163t119 -63q79 0 131 80zM406 577h-38l-114 117l-116 -117h-36l125 150h55z" />
<glyph unicode="&#x10a;" horiz-adv-x="616" d="M517 149l40 -17q-36 -68 -95.5 -106.5t-134.5 -38.5q-128 0 -205 104.5t-77 260.5t78 260t206 104q86 0 149.5 -49t97.5 -135l-40 -15q-29 75 -82.5 118t-124.5 43q-107 0 -173.5 -93.5t-66.5 -232.5t65.5 -233t172.5 -94q125 0 190 124zM368 832q0 -13 -10 -22.5 t-23 -9.5t-22.5 9.5t-9.5 22.5t9.5 23t22.5 10t23 -9.5t10 -23.5z" />
<glyph unicode="&#x10b;" horiz-adv-x="456" d="M380 104l34 -23q-59 -94 -165 -94q-95 0 -151 72t-56 191t56 191.5t151 72.5q109 0 167 -93l-34 -24q-53 80 -133 80q-74 0 -119 -63t-45 -164q0 -100 45 -163t119 -63q79 0 131 80zM286 647q0 -13 -10 -22.5t-23 -9.5t-22.5 9.5t-9.5 22.5t9.5 23t22.5 10t23 -10t10 -23 z" />
<glyph unicode="&#x10c;" horiz-adv-x="616" d="M517 149l40 -17q-36 -68 -95.5 -106.5t-134.5 -38.5q-128 0 -205 104.5t-77 260.5t78 260t206 104q86 0 149.5 -49t97.5 -135l-40 -15q-29 75 -82.5 118t-124.5 43q-107 0 -173.5 -93.5t-66.5 -232.5t65.5 -233t172.5 -94q125 0 190 124zM364 762h-55l-129 150h37 l121 -117l116 117h36z" />
<glyph unicode="&#x10d;" horiz-adv-x="456" d="M380 104l34 -23q-59 -94 -165 -94q-95 0 -151 72t-56 191t56 191.5t151 72.5q109 0 167 -93l-34 -24q-53 80 -133 80q-74 0 -119 -63t-45 -164q0 -100 45 -163t119 -63q79 0 131 80zM273 577h-55l-129 150h37l121 -117l116 117h36z" />
<glyph unicode="&#x10e;" horiz-adv-x="622" d="M295 0h-220v703h220q128 0 205 -100.5t77 -250.5t-77 -251t-205 -101zM117 38h178q107 0 172.5 90t65.5 224q0 133 -65.5 223t-172.5 90h-178v-627zM295 762h-55l-129 150h37l121 -117l116 117h36z" />
<glyph unicode="&#x10f;" horiz-adv-x="643" d="M425 0h-41v81q-51 -94 -156 -94q-81 0 -133.5 76.5t-52.5 187.5t51 187t131 76q104 0 160 -102v291h41v-703zM384 162v153q-15 71 -57.5 117t-96.5 46q-64 0 -104.5 -65.5t-40.5 -161.5t41.5 -162t106.5 -66q51 0 91 38.5t60 100.5zM535 454l-29 11l75 238h63z" />
<glyph unicode="&#x110;" horiz-adv-x="639" d="M312 0h-220v346h-82v36h82v321h220q128 0 205 -100.5t77 -250.5t-77 -251t-205 -101zM135 38h177q107 0 172 90.5t65 223.5t-65 223t-172 90h-177v-283h186v-36h-186v-308z" />
<glyph unicode="&#x111;" horiz-adv-x="495" d="M425 0h-41v79q-50 -92 -156 -92q-81 0 -133.5 76t-52.5 187t51 187.5t131 76.5q104 0 160 -102v154h-104v31h104v106h41v-106h75v-31h-75v-566zM384 162v153q-15 71 -57.5 117t-96.5 46q-64 0 -104.5 -66t-40.5 -162t41.5 -161.5t106.5 -65.5q51 0 91 38.5t60 100.5z" />
<glyph unicode="&#x112;" horiz-adv-x="552" d="M517 0h-442v703h422v-38h-380v-278h289v-38h-289v-311h400v-38zM420 806h-253v37h253v-37z" />
<glyph unicode="&#x113;" horiz-adv-x="479" d="M386 104l32 -23q-28 -44 -73 -69t-99 -25q-91 0 -147.5 73t-56.5 191t54.5 190.5t145.5 72.5t143 -72t52 -191v-9h-352q2 -96 47 -157.5t114 -61.5q42 0 80 22t60 59zM86 278h309q-6 90 -47 145t-106 55t-107.5 -55t-48.5 -145zM370 621h-253v37h253v-37z" />
<glyph unicode="&#x114;" horiz-adv-x="552" d="M517 0h-442v703h422v-38h-380v-278h289v-38h-289v-311h400v-38zM396 907h33q-3 -54 -39.5 -89t-99.5 -35q-58 0 -93.5 33.5t-39.5 90.5h35q4 -39 31 -64t69 -25q40 0 69.5 24.5t34.5 64.5z" />
<glyph unicode="&#x115;" horiz-adv-x="479" d="M386 104l32 -23q-28 -44 -73 -69t-99 -25q-91 0 -147.5 73t-56.5 191t54.5 190.5t145.5 72.5t143 -72t52 -191v-9h-352q2 -96 47 -157.5t114 -61.5q42 0 80 22t60 59zM86 278h309q-6 90 -47 145t-106 55t-107.5 -55t-48.5 -145zM347 722h33q-3 -54 -39.5 -89t-99.5 -35 q-58 0 -93.5 33.5t-39.5 90.5h35q4 -39 31 -64t69 -25q40 0 69.5 24.5t34.5 64.5z" />
<glyph unicode="&#x116;" horiz-adv-x="552" d="M517 0h-442v703h422v-38h-380v-278h289v-38h-289v-311h400v-38zM327 832q0 -13 -10 -22.5t-23 -9.5t-22.5 9.5t-9.5 22.5t9.5 23t22.5 10q14 0 23.5 -9.5t9.5 -23.5z" />
<glyph unicode="&#x117;" horiz-adv-x="479" d="M386 104l32 -23q-28 -44 -73 -69t-99 -25q-91 0 -147.5 73t-56.5 191t54.5 190.5t145.5 72.5t143 -72t52 -191v-9h-352q2 -96 47 -157.5t114 -61.5q42 0 80 22t60 59zM86 278h309q-6 90 -47 145t-106 55t-107.5 -55t-48.5 -145zM274 647q0 -13 -10 -22.5t-23 -9.5 t-22.5 9.5t-9.5 22.5t9.5 23t22.5 10t23 -10t10 -23z" />
<glyph unicode="&#x118;" horiz-adv-x="552" d="M499 -165l8 -28q-40 -20 -74 -20q-43 0 -70.5 23.5t-27.5 59.5q0 33 26.5 69t64.5 61h-351v703h422v-38h-380v-278h289v-38h-289v-311h400v-38h-53q-33 -25 -63 -62.5t-30 -62.5q0 -57 65 -57q23 0 63 17z" />
<glyph unicode="&#x119;" horiz-adv-x="479" d="M369 -165l8 -28q-40 -20 -74 -20q-43 0 -70.5 23.5t-27.5 59.5q0 29 23 62.5t54 57.5q-18 -3 -36 -3q-91 0 -147.5 73t-56.5 191t54.5 190.5t145.5 72.5t143 -72t52 -191v-9h-352q2 -96 47 -157.5t114 -61.5q42 0 80 22t60 59l32 -23q-27 -41 -63 -63q-41 -29 -77.5 -72 t-36.5 -71q0 -57 65 -57q23 0 63 17zM86 278h309q-6 90 -47 145t-106 55t-107.5 -55t-48.5 -145z" />
<glyph unicode="&#x11a;" horiz-adv-x="552" d="M517 0h-442v703h422v-38h-380v-278h289v-38h-289v-311h400v-38zM324 762h-55l-129 150h37l121 -117l116 117h36z" />
<glyph unicode="&#x11b;" horiz-adv-x="479" d="M386 104l32 -23q-28 -44 -73 -69t-99 -25q-91 0 -147.5 73t-56.5 191t54.5 190.5t145.5 72.5t143 -72t52 -191v-9h-352q2 -96 47 -157.5t114 -61.5q42 0 80 22t60 59zM86 278h309q-6 90 -47 145t-106 55t-107.5 -55t-48.5 -145zM276 577h-55l-129 150h37l121 -117 l116 117h36z" />
<glyph unicode="&#x11c;" horiz-adv-x="643" d="M598 342v-11q0 -148 -77 -246t-194 -98q-128 0 -205 104t-77 260t78 260.5t206 104.5q86 0 149.5 -49t97.5 -135l-40 -15q-29 75 -82.5 118t-124.5 43q-107 0 -173.5 -94t-66.5 -233t65.5 -232.5t172.5 -93.5q93 0 156.5 79t72.5 200h-197v38h239zM486 762h-38l-114 117 l-116 -117h-36l125 150h55z" />
<glyph unicode="&#x11d;" horiz-adv-x="494" d="M383 17v77q-53 -107 -159 -107q-80 0 -131 76t-51 187t52.5 187.5t133.5 76.5q106 0 155 -92v79h41v-475q0 -116 -60 -177t-141 -61q-47 0 -87 21t-63 59l28 25q48 -68 121 -68q64 0 112.5 54t48.5 138zM383 187v153q-20 62 -59 100t-90 38q-65 0 -107 -66.5t-42 -161.5 q0 -96 40.5 -161.5t104.5 -65.5q55 0 96.5 46t56.5 118zM398 577h-38l-114 117l-116 -117h-36l125 150h55z" />
<glyph unicode="&#x11e;" horiz-adv-x="643" d="M598 342v-11q0 -148 -77 -246t-194 -98q-128 0 -205 104t-77 260t78 260.5t206 104.5q86 0 149.5 -49t97.5 -135l-40 -15q-29 75 -82.5 118t-124.5 43q-107 0 -173.5 -94t-66.5 -233t65.5 -232.5t172.5 -93.5q93 0 156.5 79t72.5 200h-197v38h239zM433 907h33 q-3 -54 -39.5 -89t-99.5 -35q-58 0 -93.5 33.5t-39.5 90.5h35q4 -39 31 -64t69 -25q40 0 69.5 24.5t34.5 64.5z" />
<glyph unicode="&#x11f;" horiz-adv-x="494" d="M383 17v77q-53 -107 -159 -107q-80 0 -131 76t-51 187t52.5 187.5t133.5 76.5q106 0 155 -92v79h41v-475q0 -116 -60 -177t-141 -61q-47 0 -87 21t-63 59l28 25q48 -68 121 -68q64 0 112.5 54t48.5 138zM383 187v153q-20 62 -59 100t-90 38q-65 0 -107 -66.5t-42 -161.5 q0 -96 40.5 -161.5t104.5 -65.5q55 0 96.5 46t56.5 118zM351 722h33q-3 -54 -39.5 -89t-99.5 -35q-58 0 -93.5 33.5t-39.5 90.5h35q4 -39 31 -64t69 -25q40 0 69.5 24.5t34.5 64.5z" />
<glyph unicode="&#x120;" horiz-adv-x="643" d="M598 342v-11q0 -148 -77 -246t-194 -98q-128 0 -205 104t-77 260t78 260.5t206 104.5q86 0 149.5 -49t97.5 -135l-40 -15q-29 75 -82.5 118t-124.5 43q-107 0 -173.5 -94t-66.5 -233t65.5 -232.5t172.5 -93.5q93 0 156.5 79t72.5 200h-197v38h239zM366 832 q0 -13 -10 -22.5t-23 -9.5t-22.5 9.5t-9.5 22.5t9.5 23t22.5 10t23 -9.5t10 -23.5z" />
<glyph unicode="&#x121;" horiz-adv-x="494" d="M383 17v77q-53 -107 -159 -107q-80 0 -131 76t-51 187t52.5 187.5t133.5 76.5q106 0 155 -92v79h41v-475q0 -116 -60 -177t-141 -61q-47 0 -87 21t-63 59l28 25q48 -68 121 -68q64 0 112.5 54t48.5 138zM383 187v153q-20 62 -59 100t-90 38q-65 0 -107 -66.5t-42 -161.5 q0 -96 40.5 -161.5t104.5 -65.5q55 0 96.5 46t56.5 118zM275 647q0 -13 -10 -22.5t-23 -9.5t-22.5 9.5t-9.5 22.5t9.5 23t22.5 10q14 0 23.5 -10t9.5 -23z" />
<glyph unicode="&#x122;" horiz-adv-x="643" d="M598 342v-11q0 -148 -77 -246t-194 -98q-128 0 -205 104t-77 260t78 260.5t206 104.5q86 0 149.5 -49t97.5 -135l-40 -15q-29 75 -82.5 118t-124.5 43q-107 0 -173.5 -94t-66.5 -233t65.5 -232.5t172.5 -93.5q93 0 156.5 79t72.5 200h-197v38h239zM293 -237l-26 10 l44 159h57z" />
<glyph unicode="&#x123;" horiz-adv-x="494" d="M383 17v77q-53 -107 -159 -107q-80 0 -131 76t-51 187t52.5 187.5t133.5 76.5q106 0 155 -92v79h41v-475q0 -116 -60 -177t-141 -61q-47 0 -87 21t-63 59l28 25q48 -68 121 -68q64 0 112.5 54t48.5 138zM383 187v153q-20 62 -59 100t-90 38q-65 0 -107 -66.5t-42 -161.5 q0 -96 40.5 -161.5t104.5 -65.5q55 0 96.5 46t56.5 118zM252 597h-57l75 169l26 -10z" />
<glyph unicode="&#x124;" horiz-adv-x="636" d="M561 0h-42v345h-402v-345h-42v703h42v-320h402v320h42v-703zM470 762h-38l-114 117l-116 -117h-36l125 150h55z" />
<glyph unicode="&#x125;" horiz-adv-x="493" d="M428 0h-41v315q0 76 -34 119t-95 43q-58 0 -102.5 -43.5t-44.5 -126.5v-307h-41v703h41v-275q23 42 63.5 64t88.5 22q82 0 123.5 -58.5t41.5 -151.5v-304zM257 762h-38l-114 117l-116 -117h-36l125 150h55z" />
<glyph unicode="&#x126;" horiz-adv-x="636" d="M561 0h-42v345h-402v-345h-42v513h-70v38h70v152h42v-152h402v152h42v-152h70v-38h-70v-513zM519 383v130h-402v-130h402z" />
<glyph unicode="&#x127;" horiz-adv-x="493" d="M428 0h-41v315q0 76 -34 119t-95 43q-58 0 -102.5 -43.5t-44.5 -126.5v-307h-41v560h-75v37h75v106h41v-106h137v-37h-137v-132q23 42 63.5 64t88.5 22q82 0 123.5 -58.5t41.5 -151.5v-304z" />
<glyph unicode="&#x12a;" horiz-adv-x="192" d="M117 0h-42v703h42v-703zM223 806h-253v37h253v-37z" />
<glyph unicode="&#x12b;" horiz-adv-x="195" d="M118 0h-41v501h41v-501zM224 621h-253v37h253v-37z" />
<glyph unicode="&#x12c;" horiz-adv-x="192" d="M117 0h-42v703h42v-703zM199 907h33q-3 -54 -39.5 -89t-99.5 -35q-58 0 -93.5 33.5t-39.5 90.5h35q4 -39 31 -64t69 -25q40 0 69.5 24.5t34.5 64.5z" />
<glyph unicode="&#x12d;" horiz-adv-x="195" d="M118 0h-41v501h41v-501zM200 722h33q-3 -54 -39.5 -89t-99.5 -35q-58 0 -93.5 33.5t-39.5 90.5h35q4 -39 31 -64t69 -25q40 0 69.5 24.5t34.5 64.5z" />
<glyph unicode="&#x12e;" horiz-adv-x="192" d="M152 -163l8 -28q-40 -20 -74 -20q-43 0 -69.5 23.5t-26.5 59.5q0 37 24.5 71.5t60.5 56.5v703h42v-703q-37 -22 -64 -58t-27 -65q0 -57 63 -57q23 0 63 17z" />
<glyph unicode="&#x12f;" horiz-adv-x="195" d="M164 -165l8 -28q-40 -20 -74 -20q-43 0 -70.5 23.5t-27.5 59.5q0 34 22.5 69t54.5 61v501h41v-501q-31 -23 -56.5 -59.5t-25.5 -65.5q0 -57 65 -57q23 0 63 17zM98 644q-15 0 -25.5 10.5t-10.5 25.5q0 14 10.5 24.5t25.5 10.5q14 0 24.5 -10.5t10.5 -24.5 q0 -15 -10.5 -25.5t-24.5 -10.5z" />
<glyph unicode="&#x130;" horiz-adv-x="192" d="M117 0h-42v703h42v-703zM129 832q0 -13 -10 -22.5t-23 -9.5t-22.5 9.5t-9.5 22.5t9.5 23t22.5 10q14 0 23.5 -9.5t9.5 -23.5z" />
<glyph unicode="&#x131;" horiz-adv-x="195" d="M118 0h-41v501h41v-501z" />
<glyph unicode="&#x134;" horiz-adv-x="505" d="M393 195v508h42v-490q0 -106 -54 -166t-147 -60q-83 0 -141 53.5t-63 133.5l40 10q3 -67 50 -113.5t114 -46.5q70 0 114.5 49t44.5 122zM563 762h-38l-114 117l-116 -117h-36l125 150h55z" />
<glyph unicode="&#x135;" horiz-adv-x="203" d="M85 -92v593h41v-583q0 -57 -27.5 -91.5t-70.5 -34.5q-26 0 -55 15l13 35q17 -14 39 -14q25 0 42.5 22t17.5 58zM255 577h-38l-114 117l-116 -117h-36l125 150h55z" />
<glyph unicode="&#x136;" horiz-adv-x="593" d="M568 0h-47l-236 394l-168 -191v-203h-42v703h42v-444l388 444h51l-244 -277zM278 -237l-26 10l44 159h57z" />
<glyph unicode="&#x137;" horiz-adv-x="458" d="M433 0h-45l-168 281l-109 -125v-156h-41v703h41v-490l251 288h51l-166 -189zM200 -237l-26 10l44 159h57z" />
<glyph unicode="&#x139;" horiz-adv-x="496" d="M476 0h-401v703h42v-665h359v-38zM271 912l-162 -150h-38l128 150h72z" />
<glyph unicode="&#x13a;" horiz-adv-x="181" d="M111 0h-41v703h41v-703zM263 912l-162 -150h-38l128 150h72z" />
<glyph unicode="&#x13b;" horiz-adv-x="496" d="M476 0h-401v703h42v-665h359v-38zM233 -237l-26 10l44 159h57z" />
<glyph unicode="&#x13c;" horiz-adv-x="181" d="M111 0h-41v703h41v-703zM47 -237l-26 10l44 159h57z" />
<glyph unicode="&#x13d;" horiz-adv-x="539" d="M476 0h-401v703h42v-665h359v-38zM405 454l-29 11l75 238h63z" />
<glyph unicode="&#x13e;" horiz-adv-x="372" d="M111 0h-41v703h41v-703zM247 454l-29 11l75 238h63z" />
<glyph unicode="&#x13f;" horiz-adv-x="555" d="M476 0h-401v703h42v-665h359v-38zM519 315q0 -17 -12 -29t-29 -12t-28.5 12t-11.5 29t12 28.5t28 11.5q17 0 29 -11.5t12 -28.5z" />
<glyph unicode="&#x140;" horiz-adv-x="311" d="M111 0h-41v703h41v-703zM304 315q0 -17 -12 -29t-29 -12t-28.5 12t-11.5 29t11.5 28.5t28.5 11.5t29 -11.5t12 -28.5z" />
<glyph unicode="&#x141;" horiz-adv-x="496" d="M476 0h-401v282l-70 -45v42l70 44v380h42v-354l188 118v-41l-188 -118v-270h359v-38z" />
<glyph unicode="&#x142;" horiz-adv-x="198" d="M120 0h-41v335l-79 -50v42l79 50v326h41v-301l78 49v-41l-78 -49v-361z" />
<glyph unicode="&#x143;" horiz-adv-x="650" d="M575 0h-47l-411 636v-636h-42v703h46l412 -637v637h42v-703zM503 912l-162 -150h-38l128 150h72z" />
<glyph unicode="&#x144;" horiz-adv-x="493" d="M428 0h-41v315q0 76 -33.5 119t-94.5 43q-58 0 -103 -43.5t-45 -126.5v-307h-41v501h41v-73q23 42 63.5 64t88.5 22q82 0 123.5 -58.5t41.5 -151.5v-304zM418 727l-162 -150h-38l128 150h72z" />
<glyph unicode="&#x145;" horiz-adv-x="650" d="M575 0h-47l-411 636v-636h-42v703h46l412 -637v637h42v-703zM302 -237l-26 10l44 159h57z" />
<glyph unicode="&#x146;" horiz-adv-x="493" d="M428 0h-41v315q0 76 -33.5 119t-94.5 43q-58 0 -103 -43.5t-45 -126.5v-307h-41v501h41v-73q23 42 63.5 64t88.5 22q82 0 123.5 -58.5t41.5 -151.5v-304zM228 -237l-26 10l44 159h57z" />
<glyph unicode="&#x147;" horiz-adv-x="650" d="M575 0h-47l-411 636v-636h-42v703h46l412 -637v637h42v-703zM374 762h-55l-129 150h37l121 -117l116 117h36z" />
<glyph unicode="&#x148;" horiz-adv-x="493" d="M428 0h-41v315q0 76 -33.5 119t-94.5 43q-58 0 -103 -43.5t-45 -126.5v-307h-41v501h41v-73q23 42 63.5 64t88.5 22q82 0 123.5 -58.5t41.5 -151.5v-304zM271 577h-55l-129 150h37l121 -117l116 117h36z" />
<glyph unicode="&#x14a;" horiz-adv-x="649" d="M463 -200h-62v35h56q35 0 55 23.5t20 68.5v73l-415 636v-636h-42v703h45l412 -630v630h42v-775q0 -57 -28.5 -92.5t-82.5 -35.5z" />
<glyph unicode="&#x14b;" horiz-adv-x="493" d="M317 -200h-57v35h52q35 0 55 24t20 69v387q0 76 -33.5 119t-94.5 43q-58 0 -103 -43.5t-45 -126.5v-307h-41v501h41v-73q23 42 63.5 64t88.5 22q82 0 123.5 -58.5t41.5 -151.5v-376q0 -57 -28.5 -92.5t-82.5 -35.5z" />
<glyph unicode="&#x14c;" horiz-adv-x="654" d="M327 -13q-128 0 -205 104t-77 260t77 260.5t205 104.5t205 -104.5t77 -260.5t-77 -260t-205 -104zM327 25q108 0 173 93.5t65 232.5q0 140 -65 233.5t-173 93.5q-107 0 -172.5 -94t-65.5 -233t65.5 -232.5t172.5 -93.5zM454 806h-253v37h253v-37z" />
<glyph unicode="&#x14d;" horiz-adv-x="498" d="M249 -13q-97 0 -152 72t-55 192t55 191.5t152 71.5t152 -71.5t55 -191.5t-55 -192t-152 -72zM249 23q77 0 120.5 63t43.5 165t-43.5 164.5t-120.5 62.5t-120.5 -62.5t-43.5 -164.5t43.5 -165t120.5 -63zM373 621h-253v37h253v-37z" />
<glyph unicode="&#x14e;" horiz-adv-x="654" d="M327 -13q-128 0 -205 104t-77 260t77 260.5t205 104.5t205 -104.5t77 -260.5t-77 -260t-205 -104zM327 25q108 0 173 93.5t65 232.5q0 140 -65 233.5t-173 93.5q-107 0 -172.5 -94t-65.5 -233t65.5 -232.5t172.5 -93.5zM430 907h33q-3 -54 -39.5 -89t-99.5 -35 q-58 0 -93.5 33.5t-39.5 90.5h35q4 -39 31 -64t69 -25q40 0 69.5 24.5t34.5 64.5z" />
<glyph unicode="&#x14f;" horiz-adv-x="498" d="M249 -13q-97 0 -152 72t-55 192t55 191.5t152 71.5t152 -71.5t55 -191.5t-55 -192t-152 -72zM249 23q77 0 120.5 63t43.5 165t-43.5 164.5t-120.5 62.5t-120.5 -62.5t-43.5 -164.5t43.5 -165t120.5 -63zM349 722h33q-3 -54 -39.5 -89t-99.5 -35q-58 0 -93.5 33.5 t-39.5 90.5h35q4 -39 31 -64t69 -25q40 0 69.5 24.5t34.5 64.5z" />
<glyph unicode="&#x150;" horiz-adv-x="654" d="M327 -13q-128 0 -205 104t-77 260t77 260.5t205 104.5t205 -104.5t77 -260.5t-77 -260t-205 -104zM327 25q108 0 173 93.5t65 232.5q0 140 -65 233.5t-173 93.5q-107 0 -172.5 -94t-65.5 -233t65.5 -232.5t172.5 -93.5zM273 761h-38l113 151h66zM432 761h-38l113 151h66z " />
<glyph unicode="&#x151;" horiz-adv-x="498" d="M249 -13q-97 0 -152 72t-55 192t55 191.5t152 71.5t152 -71.5t55 -191.5t-55 -192t-152 -72zM249 23q77 0 120.5 63t43.5 165t-43.5 164.5t-120.5 62.5t-120.5 -62.5t-43.5 -164.5t43.5 -165t120.5 -63zM187 576h-38l113 151h66zM346 576h-38l113 151h66z" />
<glyph unicode="&#x152;" horiz-adv-x="980" d="M945 0h-618q-128 0 -205 101t-77 251t77 250.5t205 100.5h598v-38h-378v-278h287v-38h-287v-311h398v-38zM503 37v629h-176q-107 0 -172.5 -90.5t-65.5 -223.5q0 -134 65.5 -224.5t172.5 -90.5h176z" />
<glyph unicode="&#x153;" horiz-adv-x="848" d="M755 104l32 -23q-28 -44 -73 -69t-99 -25q-64 0 -111 36t-71 101q-50 -137 -184 -137q-97 0 -152 72t-55 192t55 191.5t152 71.5q134 0 184 -135q23 64 69 99.5t109 35.5q91 0 143 -72t52 -191v-9h-352q2 -96 47 -157.5t114 -61.5q42 0 80 22t60 59zM249 23 q77 0 120.5 62.5t43.5 164.5t-43.5 165t-120.5 63t-120.5 -62.5t-43.5 -164.5t43.5 -165t120.5 -63zM455 278h309q-6 90 -47 145t-106 55t-107.5 -55t-48.5 -145z" />
<glyph unicode="&#x154;" horiz-adv-x="603" d="M558 0h-50l-197 315h-194v-315h-42v703h294q83 0 134.5 -56t51.5 -138t-54 -138t-140 -56zM117 353h249q65 0 105 45t40 111t-40 111t-105 45h-249v-312zM424 912l-162 -150h-38l128 150h72z" />
<glyph unicode="&#x155;" horiz-adv-x="349" d="M111 0h-41v501h41v-73q23 42 63 64t87 22q30 0 63 -11l-16 -39q-26 11 -52 11q-58 0 -101.5 -44t-43.5 -127v-304zM342 727l-162 -150h-38l128 150h72z" />
<glyph unicode="&#x156;" horiz-adv-x="603" d="M558 0h-50l-197 315h-194v-315h-42v703h294q83 0 134.5 -56t51.5 -138t-54 -138t-140 -56zM117 353h249q65 0 105 45t40 111t-40 111t-105 45h-249v-312zM250 -237l-26 10l44 159h57z" />
<glyph unicode="&#x157;" horiz-adv-x="349" d="M111 0h-41v501h41v-73q23 42 63 64t87 22q30 0 63 -11l-16 -39q-26 11 -52 11q-58 0 -101.5 -44t-43.5 -127v-304zM59 -237l-26 10l44 159h57z" />
<glyph unicode="&#x158;" horiz-adv-x="603" d="M558 0h-50l-197 315h-194v-315h-42v703h294q83 0 134.5 -56t51.5 -138t-54 -138t-140 -56zM117 353h249q65 0 105 45t40 111t-40 111t-105 45h-249v-312zM323 762h-55l-129 150h37l121 -117l116 117h36z" />
<glyph unicode="&#x159;" horiz-adv-x="349" d="M111 0h-41v501h41v-73q23 42 63 64t87 22q30 0 63 -11l-16 -39q-26 11 -52 11q-58 0 -101.5 -44t-43.5 -127v-304zM221 577h-55l-129 150h37l121 -117l116 117h36z" />
<glyph unicode="&#x15a;" horiz-adv-x="540" d="M40 138l37 22q24 -66 72.5 -100.5t116.5 -34.5q84 0 132 42.5t48 114.5q0 50 -47 90.5t-162 82.5q-101 37 -143.5 82t-42.5 108q0 83 59.5 127t152.5 44q146 0 223 -118l-33 -26q-69 106 -193 106q-71 0 -118 -33.5t-47 -95.5q0 -55 35.5 -88t132.5 -70 q128 -49 177.5 -98t49.5 -115q0 -89 -64 -140t-162 -51q-158 0 -224 151zM430 912l-162 -150h-38l128 150h72z" />
<glyph unicode="&#x15b;" horiz-adv-x="419" d="M45 83l32 24q52 -84 136 -84q56 0 87 28.5t31 71.5q0 40 -32.5 68t-119.5 59q-129 45 -129 139q0 54 41 89.5t114 35.5q97 0 160 -82l-32 -25q-49 71 -129 71q-50 0 -80.5 -23.5t-30.5 -65.5q0 -38 27.5 -61.5t89.5 -45.5q91 -33 127.5 -69.5t36.5 -88.5q0 -61 -43 -99 t-119 -38q-112 0 -167 96zM377 727l-162 -150h-38l128 150h72z" />
<glyph unicode="&#x15c;" horiz-adv-x="540" d="M40 138l37 22q24 -66 72.5 -100.5t116.5 -34.5q84 0 132 42.5t48 114.5q0 50 -47 90.5t-162 82.5q-101 37 -143.5 82t-42.5 108q0 83 59.5 127t152.5 44q146 0 223 -118l-33 -26q-69 106 -193 106q-71 0 -118 -33.5t-47 -95.5q0 -55 35.5 -88t132.5 -70 q128 -49 177.5 -98t49.5 -115q0 -89 -64 -140t-162 -51q-158 0 -224 151zM412 762h-38l-114 117l-116 -117h-36l125 150h55z" />
<glyph unicode="&#x15d;" horiz-adv-x="419" d="M45 83l32 24q52 -84 136 -84q56 0 87 28.5t31 71.5q0 40 -32.5 68t-119.5 59q-129 45 -129 139q0 54 41 89.5t114 35.5q97 0 160 -82l-32 -25q-49 71 -129 71q-50 0 -80.5 -23.5t-30.5 -65.5q0 -38 27.5 -61.5t89.5 -45.5q91 -33 127.5 -69.5t36.5 -88.5q0 -61 -43 -99 t-119 -38q-112 0 -167 96zM359 577h-38l-114 117l-116 -117h-36l125 150h55z" />
<glyph unicode="&#x15e;" horiz-adv-x="540" d="M175 -196l8 30q40 -18 79 -18t59 14t20 34q0 18 -14 29t-38 11q-25 0 -53 -13l-27 7l42 90q-148 7 -211 150l37 22q24 -66 72.5 -100.5t116.5 -34.5q84 0 132 42.5t48 114.5q0 50 -47 90.5t-162 82.5q-101 37 -143.5 82t-42.5 108q0 83 59.5 127t152.5 44q146 0 223 -118 l-33 -26q-69 106 -193 106q-71 0 -118 -33.5t-47 -95.5q0 -55 35.5 -88t132.5 -70q128 -49 177.5 -98t49.5 -115q0 -85 -58 -135t-150 -55l-32 -66q24 11 49 11q35 0 57.5 -19t22.5 -50q0 -34 -30.5 -55.5t-84.5 -21.5q-46 0 -89 17z" />
<glyph unicode="&#x15f;" horiz-adv-x="419" d="M121 -196l8 30q40 -18 79 -18t59 14t20 34q0 18 -14 29t-38 11q-25 0 -53 -13l-27 7l42 90q-101 5 -152 95l32 24q52 -84 136 -84q56 0 87 28.5t31 71.5q0 40 -32.5 68t-119.5 59q-129 45 -129 139q0 54 41 89.5t114 35.5q97 0 160 -82l-32 -25q-49 71 -129 71 q-50 0 -80.5 -23.5t-30.5 -65.5q0 -38 27.5 -61.5t89.5 -45.5q91 -33 127.5 -69.5t36.5 -88.5q0 -57 -38.5 -94.5t-107.5 -41.5l-32 -66q24 11 49 11q35 0 57.5 -19t22.5 -50q0 -34 -30.5 -55.5t-84.5 -21.5q-46 0 -89 17z" />
<glyph unicode="&#x160;" horiz-adv-x="540" d="M40 138l37 22q24 -66 72.5 -100.5t116.5 -34.5q84 0 132 42.5t48 114.5q0 50 -47 90.5t-162 82.5q-101 37 -143.5 82t-42.5 108q0 83 59.5 127t152.5 44q146 0 223 -118l-33 -26q-69 106 -193 106q-71 0 -118 -33.5t-47 -95.5q0 -55 35.5 -88t132.5 -70 q128 -49 177.5 -98t49.5 -115q0 -89 -64 -140t-162 -51q-158 0 -224 151zM294 762h-55l-129 150h37l121 -117l116 117h36z" />
<glyph unicode="&#x161;" horiz-adv-x="419" d="M45 83l32 24q52 -84 136 -84q56 0 87 28.5t31 71.5q0 40 -32.5 68t-119.5 59q-129 45 -129 139q0 54 41 89.5t114 35.5q97 0 160 -82l-32 -25q-49 71 -129 71q-50 0 -80.5 -23.5t-30.5 -65.5q0 -38 27.5 -61.5t89.5 -45.5q91 -33 127.5 -69.5t36.5 -88.5q0 -61 -43 -99 t-119 -38q-112 0 -167 96zM230 577h-55l-129 150h37l121 -117l116 117h36z" />
<glyph unicode="&#x162;" horiz-adv-x="521" d="M281 0h-42v665h-214v38h471v-37h-215v-666zM215 -237l-26 10l44 159h57z" />
<glyph unicode="&#x163;" horiz-adv-x="306" d="M266 45v-43q-26 -15 -57 -15q-45 0 -74 33t-29 90v353h-81v38h81v202h41v-202h117v-38h-117v-358q0 -36 20 -57.5t48 -21.5t51 19zM151 -237l-26 10l44 159h57z" />
<glyph unicode="&#x164;" horiz-adv-x="521" d="M281 0h-42v665h-214v38h471v-37h-215v-666zM289 762h-55l-129 150h37l121 -117l116 117h36z" />
<glyph unicode="&#x165;" horiz-adv-x="322" d="M266 45v-43q-26 -15 -57 -15q-45 0 -74 33t-29 90v353h-81v38h81v202h41v-202h117v-38h-117v-358q0 -36 20 -57.5t48 -21.5t51 19zM260 577l-26 10l44 159h57z" />
<glyph unicode="&#x166;" horiz-adv-x="521" d="M281 0h-42v346h-105v36h105v283h-214v38h471v-37h-215v-284h106v-36h-106v-346z" />
<glyph unicode="&#x167;" horiz-adv-x="306" d="M266 45v-43q-26 -15 -57 -15q-45 0 -74 33t-29 90v185h-81v38h81v130h-81v38h81v202h41v-202h117v-38h-117v-130h117v-38h-117v-190q0 -36 20 -57.5t48 -21.5t51 19z" />
<glyph unicode="&#x16a;" horiz-adv-x="626" d="M514 285v418h42v-413q0 -153 -55.5 -228t-187.5 -75t-187.5 75t-55.5 228v413h42v-418q0 -133 45 -196.5t156 -63.5t156 63.5t45 196.5zM440 806h-253v37h253v-37z" />
<glyph unicode="&#x16b;" horiz-adv-x="493" d="M423 0h-41v73q-23 -42 -63.5 -64t-88.5 -22q-82 0 -123.5 58.5t-41.5 151.5v304h41v-315q0 -76 33.5 -119t94.5 -43q58 0 103 43.5t45 126.5v307h41v-501zM368 621h-253v37h253v-37z" />
<glyph unicode="&#x16c;" horiz-adv-x="626" d="M514 285v418h42v-413q0 -153 -55.5 -228t-187.5 -75t-187.5 75t-55.5 228v413h42v-418q0 -133 45 -196.5t156 -63.5t156 63.5t45 196.5zM416 907h33q-3 -54 -39.5 -89t-99.5 -35q-58 0 -93.5 33.5t-39.5 90.5h35q4 -39 31 -64t69 -25q40 0 69.5 24.5t34.5 64.5z" />
<glyph unicode="&#x16d;" horiz-adv-x="493" d="M423 0h-41v73q-23 -42 -63.5 -64t-88.5 -22q-82 0 -123.5 58.5t-41.5 151.5v304h41v-315q0 -76 33.5 -119t94.5 -43q58 0 103 43.5t45 126.5v307h41v-501zM344 722h33q-3 -54 -39.5 -89t-99.5 -35q-58 0 -93.5 33.5t-39.5 90.5h35q4 -39 31 -64t69 -25q40 0 69.5 24.5 t34.5 64.5z" />
<glyph unicode="&#x16e;" horiz-adv-x="626" d="M514 285v418h42v-413q0 -153 -55.5 -228t-187.5 -75t-187.5 75t-55.5 228v413h42v-418q0 -133 45 -196.5t156 -63.5t156 63.5t45 196.5zM411 858q0 -41 -28 -69.5t-70 -28.5t-70 28.5t-28 69.5t28 69.5t70 28.5t70 -28.5t28 -69.5zM378 858q0 28 -19 47t-47 19t-46.5 -19 t-18.5 -47t18.5 -47t46.5 -19t47 19t19 47z" />
<glyph unicode="&#x16f;" horiz-adv-x="493" d="M423 0h-41v73q-23 -42 -63.5 -64t-88.5 -22q-82 0 -123.5 58.5t-41.5 151.5v304h41v-315q0 -76 33.5 -119t94.5 -43q58 0 103 43.5t45 126.5v307h41v-501zM335 673q0 -41 -28 -69.5t-70 -28.5t-70 28.5t-28 69.5t28 69.5t70 28.5t70 -28.5t28 -69.5zM302 673q0 28 -19 47 t-47 19t-46.5 -19t-18.5 -47t18.5 -47t46.5 -19t47 19t19 47z" />
<glyph unicode="&#x170;" horiz-adv-x="626" d="M514 285v418h42v-413q0 -153 -55.5 -228t-187.5 -75t-187.5 75t-55.5 228v413h42v-418q0 -133 45 -196.5t156 -63.5t156 63.5t45 196.5zM245 761h-38l113 151h66zM404 761h-38l113 151h66z" />
<glyph unicode="&#x171;" horiz-adv-x="493" d="M423 0h-41v73q-23 -42 -63.5 -64t-88.5 -22q-82 0 -123.5 58.5t-41.5 151.5v304h41v-315q0 -76 33.5 -119t94.5 -43q58 0 103 43.5t45 126.5v307h41v-501zM180 576h-38l113 151h66zM339 576h-38l113 151h66z" />
<glyph unicode="&#x172;" horiz-adv-x="626" d="M490 -165l8 -28q-40 -20 -74 -20q-43 0 -70.5 23.5t-27.5 59.5q0 32 25 68t57 61q-43 -12 -95 -12q-132 0 -187.5 75t-55.5 228v413h42v-418q0 -133 45 -196.5t156 -63.5t156 63.5t45 196.5v418h42v-413q0 -178 -72 -244q-122 -113 -122 -171q0 -57 65 -57q23 0 63 17z " />
<glyph unicode="&#x173;" horiz-adv-x="493" d="M450 -165l8 -28q-40 -20 -74 -20q-43 0 -70.5 23.5t-27.5 59.5t28.5 71.5t67.5 58.5v73q-23 -42 -63.5 -64t-88.5 -22q-82 0 -123.5 58.5t-41.5 151.5v304h41v-315q0 -76 33.5 -119t94.5 -43q58 0 103 43.5t45 126.5v307h41v-501q-39 -24 -70 -60t-31 -65q0 -57 65 -57 q23 0 63 17z" />
<glyph unicode="&#x174;" horiz-adv-x="825" d="M630 0h-52l-164 641l-165 -641h-52l-167 703h42l153 -647l166 647h45l166 -647l153 647h42zM564 762h-38l-114 117l-116 -117h-36l125 150h55z" />
<glyph unicode="&#x175;" horiz-adv-x="708" d="M528 0h-45l-129 452l-129 -452h-46l-149 501h44l128 -456l129 456h45l130 -456l128 456h44zM506 577h-38l-114 117l-116 -117h-36l125 150h55z" />
<glyph unicode="&#x176;" horiz-adv-x="566" d="M304 0h-42v283l-242 420h46l217 -379l216 379h47l-242 -420v-283zM435 762h-38l-114 117l-116 -117h-36l125 150h55z" />
<glyph unicode="&#x177;" horiz-adv-x="454" d="M154 -129l49 127l-178 503h44l155 -454l161 454h44l-242 -644q-25 -65 -87 -65q-17 0 -35 8v34q16 -8 34 -8q39 0 55 45zM378 577h-38l-114 117l-116 -117h-36l125 150h55z" />
<glyph unicode="&#x178;" horiz-adv-x="566" d="M304 0h-42v283l-242 420h46l217 -379l216 379h47l-242 -420v-283zM398 832q0 -13 -10 -22.5t-23 -9.5t-22.5 9.5t-9.5 22.5t9.5 23t22.5 10t23 -9.5t10 -23.5zM233 832q0 -13 -10 -22.5t-23 -9.5t-22.5 9.5t-9.5 22.5t9.5 23t22.5 10q14 0 23.5 -9.5t9.5 -23.5z" />
<glyph unicode="&#x179;" horiz-adv-x="550" d="M511 0h-481v40l439 625h-416v38h462v-40l-439 -625h435v-38zM412 912l-162 -150h-38l128 150h72z" />
<glyph unicode="&#x17a;" horiz-adv-x="403" d="M368 0h-333v33l281 430h-259v38h308v-32l-283 -431h286v-38zM358 727l-162 -150h-38l128 150h72z" />
<glyph unicode="&#x17b;" horiz-adv-x="550" d="M511 0h-481v40l439 625h-416v38h462v-40l-439 -625h435v-38zM305 832q0 -13 -10 -22.5t-23 -9.5t-22.5 9.5t-9.5 22.5t9.5 23t22.5 10q14 0 23.5 -9.5t9.5 -23.5z" />
<glyph unicode="&#x17c;" horiz-adv-x="403" d="M368 0h-333v33l281 430h-259v38h308v-32l-283 -431h286v-38zM244 647q0 -13 -10 -22.5t-23 -9.5t-22.5 9.5t-9.5 22.5t9.5 23t22.5 10t23 -10t10 -23z" />
<glyph unicode="&#x17d;" horiz-adv-x="550" d="M511 0h-481v40l439 625h-416v38h462v-40l-439 -625h435v-38zM309 762h-55l-129 150h37l121 -117l116 117h36z" />
<glyph unicode="&#x17e;" horiz-adv-x="403" d="M368 0h-333v33l281 430h-259v38h308v-32l-283 -431h286v-38zM238 577h-55l-129 150h37l121 -117l116 117h36z" />
<glyph unicode="&#x192;" d="M77 -205v39q23 7 41 27t23 46l116 560h-87v34h94l19 89q26 120 128 120q31 0 50 -13l-1 -39q-22 14 -50 14q-31 0 -54.5 -20.5t-30.5 -54.5l-20 -96h109v-34h-117l-115 -554q-21 -102 -105 -118z" />
<glyph unicode="&#x1fa;" horiz-adv-x="589" d="M569 0h-44l-72 203h-317l-72 -203h-44l248 699q-32 8 -52 34.5t-20 60.5q0 41 28 69.5t70 28.5t70 -28.5t28 -69.5q0 -34 -20 -60.5t-52 -34.5zM440 239l-146 416l-145 -416h291zM359 794q0 28 -19 47t-47 19t-46.5 -19t-18.5 -47t18.5 -47t46.5 -19t47 19t19 47z M465 1065l-162 -150h-38l128 150h72z" />
<glyph unicode="&#x1fb;" horiz-adv-x="496" d="M456 0h-22q-54 0 -54 56v17q-29 -39 -79.5 -61.5t-103.5 -22.5q-66 0 -110.5 36.5t-44.5 107.5q0 83 61 127.5t149 44.5q68 0 128 -27v69q0 59 -40 94.5t-96 35.5q-40 0 -78 -21.5t-63 -61.5l-32 24q25 44 73.5 70t104.5 26q72 0 122 -43.5t50 -130.5v-286q0 -17 19 -17 h16v-37zM380 126v109q-48 33 -125 33q-72 0 -121 -36t-49 -95q0 -53 33 -82t83 -29q48 0 97.5 26.5t81.5 73.5zM343 656q0 -41 -28 -69.5t-70 -28.5t-70 28.5t-28 69.5t28 69.5t70 28.5t70 -28.5t28 -69.5zM310 656q0 28 -19 47t-47 19t-46.5 -19t-18.5 -47t18.5 -47 t46.5 -19t47 19t19 47zM410 940l-162 -150h-38l128 150h72z" />
<glyph unicode="&#x1fc;" horiz-adv-x="954" d="M919 0h-442v199h-291l-128 -199h-48l455 703h434v-38h-380v-278h289v-38h-289v-311h400v-38zM477 237v412l-266 -412h266zM807 912l-162 -150h-38l128 150h72z" />
<glyph unicode="&#x1fd;" horiz-adv-x="820" d="M721 104l34 -23q-28 -44 -73 -69t-99 -25q-59 0 -104.5 31.5t-71.5 87.5q-35 -49 -92 -83t-118 -34q-66 0 -110.5 36.5t-44.5 107.5q0 83 61 127.5t149 44.5q68 0 128 -27v69q0 59 -40 94t-96 35q-40 0 -78 -21t-62 -61l-33 24q25 44 73.5 70t104.5 26q57 0 101.5 -27.5 t60.5 -82.5q54 110 169 110q91 0 145.5 -72.5t54.5 -190.5v-9h-358q2 -96 47 -157.5t114 -61.5q42 0 79 22t59 59zM393 144q-13 44 -14 92q-49 32 -124 32q-72 0 -121 -36t-49 -95q0 -53 33 -82t83 -29q52 0 104 32t88 86zM423 278h314q-6 90 -49 145t-108 55 q-66 0 -108.5 -55t-48.5 -145zM576 727l-162 -150h-38l128 150h72z" />
<glyph unicode="&#x1fe;" horiz-adv-x="654" d="M497 912l-162 -150h-38l128 150h72zM93 -56l-28 17l71 113q-91 103 -91 277q0 156 77 260.5t205 104.5q98 0 167 -63l66 106l28 -17l-70 -113q91 -105 91 -278q0 -156 -77 -260t-205 -104q-97 0 -168 63zM160 111l313 505q-62 62 -146 62q-107 0 -172.5 -94t-65.5 -233 q0 -147 71 -240zM494 592l-313 -505q62 -62 146 -62q108 0 173 93.5t65 232.5q0 148 -71 241z" />
<glyph unicode="&#x1ff;" horiz-adv-x="524" d="M67 -49l-25 19l62 87q-62 71 -62 194q0 118 60.5 190.5t159.5 72.5q76 0 135 -49l60 83l25 -19l-62 -87q62 -73 62 -192q0 -118 -60.5 -190.5t-159.5 -72.5q-79 0 -135 47zM130 92l244 339q-49 47 -112 47q-79 0 -128 -63.5t-49 -163.5q0 -98 45 -159zM394 408l-244 -340 q47 -45 112 -45q79 0 128 63.5t49 163.5q0 94 -45 158zM434 727l-162 -150h-38l128 150h72z" />
<glyph unicode="&#x218;" horiz-adv-x="540" d="M40 138l37 22q24 -66 72.5 -100.5t116.5 -34.5q84 0 132 42.5t48 114.5q0 50 -47 90.5t-162 82.5q-101 37 -143.5 82t-42.5 108q0 83 59.5 127t152.5 44q146 0 223 -118l-33 -26q-69 106 -193 106q-71 0 -118 -33.5t-47 -95.5q0 -55 35.5 -88t132.5 -70 q128 -49 177.5 -98t49.5 -115q0 -89 -64 -140t-162 -51q-158 0 -224 151zM228 -237l-26 10l44 159h57z" />
<glyph unicode="&#x219;" horiz-adv-x="419" d="M45 83l32 24q52 -84 136 -84q56 0 87 28.5t31 71.5q0 40 -32.5 68t-119.5 59q-129 45 -129 139q0 54 41 89.5t114 35.5q97 0 160 -82l-32 -25q-49 71 -129 71q-50 0 -80.5 -23.5t-30.5 -65.5q0 -38 27.5 -61.5t89.5 -45.5q91 -33 127.5 -69.5t36.5 -88.5q0 -61 -43 -99 t-119 -38q-112 0 -167 96zM174 -237l-26 10l44 159h57z" />
<glyph unicode="&#x21a;" horiz-adv-x="521" d="M167 -196l8 30q40 -18 79 -18t59 14t20 34q0 18 -14 29t-38 11q-25 0 -53 -13l-27 7l49 102h-11v665h-214v38h471v-37h-215v-666l-39 -78q24 11 49 11q35 0 57.5 -19t22.5 -50q0 -34 -30.5 -55.5t-84.5 -21.5q-47 0 -89 17z" />
<glyph unicode="&#x21b;" horiz-adv-x="306" d="M102 -196l8 30q40 -18 79 -18t59 14t20 34q0 18 -14 29t-38 11q-25 0 -53 -13l-27 7l44 93q-33 9 -53.5 40.5t-20.5 78.5v353h-81v38h81v202h41v-202h117v-38h-117v-358q0 -36 20 -57.5t48 -21.5t51 19v-43q-26 -15 -57 -15l-32 -65q24 11 49 11q35 0 57.5 -19t22.5 -50 q0 -34 -30.5 -55.5t-84.5 -21.5q-47 0 -89 17z" />
<glyph unicode="&#x237;" horiz-adv-x="195" d="M77 -92v593h41v-583q0 -57 -27.5 -91.5t-70.5 -34.5q-26 0 -55 15l13 35q17 -14 39 -14q25 0 42.5 22t17.5 58z" />
<glyph unicode="&#x2c6;" horiz-adv-x="450" d="M377 577h-38l-114 117l-116 -117h-36l125 150h55z" />
<glyph unicode="&#x2c7;" horiz-adv-x="450" d="M254 577h-55l-129 150h37l121 -117l116 117h36z" />
<glyph unicode="&#x2d8;" horiz-adv-x="450" d="M328 722h33q-3 -54 -39.5 -89t-99.5 -35q-58 0 -93.5 33.5t-39.5 90.5h35q4 -39 31 -64t69 -25q40 0 69.5 24.5t34.5 64.5z" />
<glyph unicode="&#x2d9;" horiz-adv-x="450" d="M257 647q0 -13 -10 -22.5t-23 -9.5t-22.5 9.5t-9.5 22.5t9.5 23t22.5 10q14 0 23.5 -10t9.5 -23z" />
<glyph unicode="&#x2da;" horiz-adv-x="450" d="M323 673q0 -41 -28 -69.5t-70 -28.5t-70 28.5t-28 69.5t28 69.5t70 28.5t70 -28.5t28 -69.5zM290 673q0 28 -19 47t-47 19t-46.5 -19t-18.5 -47t18.5 -47t46.5 -19t47 19t19 47z" />
<glyph unicode="&#x2db;" horiz-adv-x="450" d="M295 -165l8 -28q-40 -20 -74 -20q-43 0 -70.5 23.5t-27.5 59.5q0 34 32 73.5t68 64.5h41q-35 -24 -70 -64.5t-35 -68.5q0 -57 65 -57q23 0 63 17z" />
<glyph unicode="&#x2dc;" horiz-adv-x="450" d="M350 702l31 -5q-14 -89 -92 -89q-32 0 -70 29.5t-60 29.5q-44 0 -58 -59l-32 4q4 43 27.5 67.5t64.5 24.5q34 0 73.5 -29.5t58.5 -29.5q25 0 37.5 14.5t19.5 42.5z" />
<glyph unicode="&#x2dd;" horiz-adv-x="450" d="M180 576h-38l113 151h66zM339 576h-38l113 151h66z" />
<glyph unicode="&#x1e80;" horiz-adv-x="825" d="M630 0h-52l-164 641l-165 -641h-52l-167 703h42l153 -647l166 647h45l166 -647l153 647h42zM432 762h-38l-162 150h72z" />
<glyph unicode="&#x1e81;" horiz-adv-x="708" d="M528 0h-45l-129 452l-129 -452h-46l-149 501h44l128 -456l129 456h45l130 -456l128 456h44zM384 577h-38l-162 150h72z" />
<glyph unicode="&#x1e82;" horiz-adv-x="825" d="M630 0h-52l-164 641l-165 -641h-52l-167 703h42l153 -647l166 647h45l166 -647l153 647h42zM582 912l-162 -150h-38l128 150h72z" />
<glyph unicode="&#x1e83;" horiz-adv-x="708" d="M528 0h-45l-129 452l-129 -452h-46l-149 501h44l128 -456l129 456h45l130 -456l128 456h44zM524 727l-162 -150h-38l128 150h72z" />
<glyph unicode="&#x1e84;" horiz-adv-x="825" d="M630 0h-52l-164 641l-165 -641h-52l-167 703h42l153 -647l166 647h45l166 -647l153 647h42zM527 832q0 -13 -10 -22.5t-23 -9.5t-22.5 9.5t-9.5 22.5t9.5 23t22.5 10q14 0 23.5 -9.5t9.5 -23.5zM362 832q0 -13 -10 -22.5t-23 -9.5t-22.5 9.5t-9.5 22.5t9.5 23t22.5 10 t23 -9.5t10 -23.5z" />
<glyph unicode="&#x1e85;" horiz-adv-x="708" d="M528 0h-45l-129 452l-129 -452h-46l-149 501h44l128 -456l129 456h45l130 -456l128 456h44zM469 647q0 -13 -10 -22.5t-23 -9.5t-22.5 9.5t-9.5 22.5t9.5 23t22.5 10q14 0 23.5 -10t9.5 -23zM304 647q0 -13 -10 -22.5t-23 -9.5t-22.5 9.5t-9.5 22.5t9.5 23t22.5 10 t23 -10t10 -23z" />
<glyph unicode="&#x2009;" horiz-adv-x="120" />
<glyph unicode="&#x2013;" horiz-adv-x="515" d="M465 272h-415v38h415v-38z" />
<glyph unicode="&#x2014;" horiz-adv-x="575" d="M525 272h-475v38h475v-38z" />
<glyph unicode="&#x2018;" horiz-adv-x="210" d="M95 467h-63l109 249l29 -11z" />
<glyph unicode="&#x2019;" horiz-adv-x="210" d="M69 454l-29 11l75 238h63z" />
<glyph unicode="&#x201a;" horiz-adv-x="188" d="M49 -138l-29 11l75 238h63z" />
<glyph unicode="&#x201c;" horiz-adv-x="370" d="M95 467h-63l109 249l29 -11zM255 467h-63l109 249l29 -11z" />
<glyph unicode="&#x201d;" horiz-adv-x="370" d="M229 454l-29 11l75 238h63zM69 454l-29 11l75 238h63z" />
<glyph unicode="&#x201e;" horiz-adv-x="348" d="M209 -138l-29 11l75 238h63zM49 -138l-29 11l75 238h63z" />
<glyph unicode="&#x2020;" horiz-adv-x="480" d="M261 -150h-42v613h-179v38h179v202h42v-202h179v-37h-179v-614z" />
<glyph unicode="&#x2021;" horiz-adv-x="480" d="M261 -150h-42v419h-179v37h179v157h-179v38h179v202h42v-202h179v-37h-179v-158h179v-37h-179v-419z" />
<glyph unicode="&#x2022;" horiz-adv-x="356" d="M178 246q-46 0 -79.5 33t-33.5 80t33 81t80 34q46 0 79.5 -33.5t33.5 -80.5t-33 -80.5t-80 -33.5z" />
<glyph unicode="&#x2026;" horiz-adv-x="659" d="M578 -10q-21 0 -35.5 14.5t-14.5 34.5q0 21 14.5 35.5t34.5 14.5q21 0 35.5 -14.5t14.5 -34.5q0 -21 -14.5 -35.5t-34.5 -14.5zM341 -10q-21 0 -35.5 14.5t-14.5 34.5q0 21 14.5 35.5t34.5 14.5q21 0 35.5 -14.5t14.5 -34.5q0 -21 -14.5 -35.5t-34.5 -14.5zM107 -10 q-21 0 -35.5 14.5t-14.5 34.5q0 21 14.5 35.5t34.5 14.5q21 0 35.5 -14.5t14.5 -34.5q0 -21 -14.5 -35.5t-34.5 -14.5z" />
<glyph unicode="&#x2030;" horiz-adv-x="1141" d="M194 340q-69 0 -106.5 53t-37.5 134q0 77 35.5 133t110.5 56q72 0 108.5 -53.5t36.5 -134.5q0 -74 -36 -131t-111 -57zM196 375q39 0 64.5 27t33.5 58.5t8 65.5q0 67 -28 111.5t-79 44.5q-50 0 -78 -44t-28 -109q0 -23 4.5 -47t15 -49.5t33.5 -41.5t54 -16zM213 -36 l-34 17l409 760l34 -16zM603 -13q-69 0 -106.5 53t-37.5 134q0 77 35.5 133t110.5 56q72 0 108.5 -53.5t36.5 -134.5q0 -74 -36 -131t-111 -57zM605 22q39 0 64.5 27t33.5 58.5t8 65.5q0 67 -28 111.5t-79 44.5q-50 0 -78 -44t-28 -109q0 -23 4.5 -47t15 -49.5t33.5 -41.5 t54 -16zM954 -13q-69 0 -106.5 53t-37.5 134q0 77 35.5 133t110.5 56q72 0 108.5 -53.5t36.5 -134.5q0 -74 -36 -131t-111 -57zM956 22q39 0 64.5 27t33.5 58.5t8 65.5q0 67 -28 111.5t-79 44.5q-50 0 -78 -44t-28 -109q0 -23 4.5 -47t15 -49.5t33.5 -41.5t54 -16z" />
<glyph unicode="&#x2039;" horiz-adv-x="293" d="M233 75l-40 -9l-158 220l158 220l40 -9l-151 -211z" />
<glyph unicode="&#x203a;" horiz-adv-x="293" d="M100 66l-40 9l151 211l-151 211l40 9l158 -220z" />
<glyph unicode="&#x2044;" horiz-adv-x="343" d="M-16 -36l-34 17l409 760l34 -16z" />
<glyph unicode="&#x2070;" horiz-adv-x="500" d="M249 194q-93 0 -146 71.5t-53 188.5q0 116 52.5 187t146.5 71q95 0 148 -71t53 -187q0 -117 -53 -188.5t-148 -71.5zM249 228q75 0 117 63t42 163q0 99 -42 161.5t-117 62.5q-74 0 -115.5 -62t-41.5 -162t41.5 -163t115.5 -63z" />
<glyph unicode="&#x2074;" horiz-adv-x="472" d="M357 203h-41v132h-271v30l270 344h42v-339h80v-35h-80v-132zM316 370v283l-222 -283h222z" />
<glyph unicode="&#x2075;" horiz-adv-x="443" d="M50 275l28 21q47 -72 132 -72q69 0 105 38t36 101q0 59 -33.5 95.5t-96.5 36.5q-79 0 -126 -69l-30 10l13 267h283v-36h-251l-10 -188q51 50 128 50q81 0 123 -46.5t42 -117.5q0 -81 -48 -128t-133 -47q-117 0 -162 85z" />
<glyph unicode="&#x2076;" horiz-adv-x="463" d="M372 685l-15 -34q-40 26 -92 26q-74 0 -121 -65.5t-54 -158.5q23 35 63 56t89 21q78 0 124.5 -47t46.5 -120q0 -77 -50 -123t-132 -46q-49 0 -86 19.5t-56.5 52.5t-29 70t-9.5 78q0 55 13 106t38 95t68.5 70.5t99.5 26.5q63 0 103 -27zM371 366q0 59 -36.5 94.5 t-100.5 35.5q-56 0 -97.5 -39t-41.5 -92q0 -47 36.5 -92t100.5 -45q66 0 102.5 37t36.5 101z" />
<glyph unicode="&#x2077;" horiz-adv-x="435" d="M175 202h-42q23 242 205 465h-298v36h345v-34q-191 -226 -210 -467z" />
<glyph unicode="&#x2078;" horiz-adv-x="470" d="M314 470q106 -30 106 -132q0 -62 -47 -103t-138 -41q-90 0 -137.5 41t-47.5 103q0 102 106 132q-84 31 -84 115q0 54 43 90.5t120 36.5q78 0 121 -36.5t43 -90.5q0 -83 -85 -115zM357 581q0 39 -30.5 68t-91.5 29q-60 0 -91 -29t-31 -68q0 -40 33.5 -67t88.5 -27 t88.5 26.5t33.5 67.5zM378 341q0 52 -41 81.5t-102 29.5t-102 -29.5t-41 -81.5q0 -50 38.5 -81.5t104.5 -31.5t104.5 31.5t38.5 81.5z" />
<glyph unicode="&#x2079;" horiz-adv-x="463" d="M91 221l15 34q40 -26 92 -26q74 0 121 65.5t54 158.5q-23 -35 -63 -56t-89 -21q-78 0 -124.5 47t-46.5 120q0 77 50 123t132 46q49 0 86 -19.5t56.5 -52.5t29 -70t9.5 -78q0 -55 -13 -106t-38 -95t-68.5 -70.5t-99.5 -26.5q-63 0 -103 27zM368 541q0 47 -36.5 92 t-100.5 45q-66 0 -102.5 -37t-36.5 -101q0 -59 36.5 -94.5t100.5 -35.5q56 0 97.5 39t41.5 92z" />
<glyph unicode="&#x2080;" horiz-adv-x="500" d="M249 -9q-93 0 -146 71.5t-53 188.5q0 116 52.5 187t146.5 71q95 0 148 -70.5t53 -187.5t-53 -188.5t-148 -71.5zM249 25q75 0 117 63t42 163q0 99 -42 161.5t-117 62.5q-74 0 -115.5 -62t-41.5 -162t41.5 -163t115.5 -63z" />
<glyph unicode="&#x2081;" horiz-adv-x="293" d="M203 0h-41v421q-52 -44 -132 -44v37q60 3 93 25.5t46 69.5h34v-509z" />
<glyph unicode="&#x2082;" horiz-adv-x="439" d="M389 0h-333q9 61 55 113.5t148 125.5q86 61 86 133q0 42 -35 72.5t-90 30.5q-46 0 -81.5 -23.5t-54.5 -65.5l-34 19q53 104 174 104q71 0 117 -39t46 -102q0 -50 -28.5 -88.5t-97.5 -85.5q-61 -41 -98 -76.5t-58 -81.5h284v-36z" />
<glyph unicode="&#x2083;" horiz-adv-x="454" d="M233 245h-66v35h53q58 0 92.5 29.5t34.5 68.5q0 40 -30 68t-84 28q-49 0 -82.5 -21t-49.5 -53l-35 16q51 93 165 93q77 0 117.5 -36t40.5 -93q0 -82 -83 -112q49 -15 73.5 -53.5t24.5 -81.5q0 -58 -43 -100t-133 -42q-62 0 -111 30t-67 77l33 18q17 -38 56 -64.5 t87 -26.5q62 0 98.5 30t36.5 79q0 48 -34 79.5t-94 31.5z" />
<glyph unicode="&#x2084;" horiz-adv-x="472" d="M357 0h-41v132h-271v30l270 344h42v-339h80v-35h-80v-132zM316 167v283l-222 -283h222z" />
<glyph unicode="&#x2085;" horiz-adv-x="443" d="M50 72l28 21q47 -72 132 -72q69 0 105 37.5t36 101.5q0 59 -33.5 95.5t-96.5 36.5q-79 0 -126 -69l-30 10l13 267h283v-36h-251l-10 -188q51 50 128 50q81 0 123 -46.5t42 -117.5q0 -81 -48 -128t-133 -47q-117 0 -162 85z" />
<glyph unicode="&#x2086;" horiz-adv-x="463" d="M372 482l-15 -34q-40 26 -92 26q-74 0 -121 -65.5t-54 -158.5q23 35 63 56t89 21q78 0 124.5 -47t46.5 -120q0 -77 -50 -123t-132 -46q-49 0 -86 19.5t-56.5 52.5t-29 70t-9.5 78q0 55 13 106t38 95t68.5 70.5t99.5 26.5q63 0 103 -27zM371 163q0 59 -36.5 94.5 t-100.5 35.5q-56 0 -97.5 -39t-41.5 -92q0 -47 36.5 -92t100.5 -45q66 0 102.5 37t36.5 101z" />
<glyph unicode="&#x2087;" horiz-adv-x="435" d="M175 0h-42q23 242 205 465h-298v36h345v-34q-191 -226 -210 -467z" />
<glyph unicode="&#x2088;" horiz-adv-x="470" d="M314 267q106 -30 106 -132q0 -62 -47 -103t-138 -41q-90 0 -137.5 41t-47.5 103q0 102 106 132q-84 31 -84 115q0 54 43 90.5t120 36.5q78 0 121 -36.5t43 -90.5q0 -83 -85 -115zM357 378q0 39 -30.5 68t-91.5 29q-60 0 -91 -29t-31 -68q0 -40 33.5 -67t88.5 -27 t88.5 26.5t33.5 67.5zM378 138q0 52 -41 81.5t-102 29.5t-102 -29.5t-41 -81.5q0 -50 38.5 -81.5t104.5 -31.5t104.5 31.5t38.5 81.5z" />
<glyph unicode="&#x2089;" horiz-adv-x="463" d="M91 18l15 34q40 -26 92 -26q74 0 121 65.5t54 158.5q-23 -35 -63 -56t-89 -21q-78 0 -124.5 47t-46.5 120q0 77 50 123t132 46q49 0 86 -19.5t56.5 -52.5t29 -70t9.5 -78q0 -55 -13 -106t-38 -95t-68.5 -70.5t-99.5 -26.5q-63 0 -103 27zM368 338q0 47 -36.5 92 t-100.5 45q-66 0 -102.5 -37t-36.5 -101q0 -59 36.5 -94.5t100.5 -35.5q56 0 97.5 39t41.5 92z" />
<glyph unicode="&#x20ac;" d="M490 148l37 -17q-31 -68 -80.5 -106t-113.5 -38q-91 0 -152.5 76.5t-79.5 199.5h-101l5 37h92q-2 34 -2 52q0 28 3 57h-98l5 37h97q19 121 80 195.5t151 74.5q73 0 127 -49t83 -135l-39 -15q-24 75 -68.5 118t-102.5 43q-71 0 -120 -64t-65 -168h248l-5 -37h-247 q-3 -29 -3 -57q0 -18 2 -52h253l-5 -37h-243q16 -107 64.5 -172.5t120.5 -65.5q51 0 92 32.5t65 90.5z" />
<glyph unicode="&#x2122;" horiz-adv-x="757" d="M194 338h-35v334h-114v31h264v-31h-115v-334zM707 338h-33v323l-124 -325h-15l-124 325v-323h-33v365h50l115 -302l115 302h49v-365z" />
<glyph unicode="&#x2212;" d="M540 298h-500v39h500v-39z" />
<glyph unicode="&#x2215;" horiz-adv-x="343" d="M-16 -36l-34 17l409 760l34 -16z" />
<glyph unicode="&#x2248;" horiz-adv-x="579" d="M482 460l31 -21q-49 -84 -123 -84q-32 0 -102 36t-101 36q-49 0 -88 -64l-32 20q42 85 126 85q34 0 104 -36t98 -36q30 0 49 15.5t38 48.5zM482 275l31 -21q-49 -84 -123 -84q-32 0 -102 36t-101 36q-49 0 -88 -64l-32 21q41 84 126 84q34 0 104 -36t98 -36q30 0 49 15.5 t38 48.5z" />
<glyph unicode="&#x2260;" d="M530 197h-289l-70 -131l-34 17l61 114h-148v39h169l89 165h-258v39h279l70 130l34 -16l-61 -114h158v-39h-179l-89 -165h268v-39z" />
<glyph unicode="&#x2264;" d="M494 0h-429v39h429v-39zM494 116l-444 240v50l444 239v-45l-410 -218l410 -221v-45z" />
<glyph unicode="&#x2265;" d="M515 0h-429v39h429v-39zM530 356l-444 -240v45l410 221l-410 218v45l444 -239v-50z" />
<glyph unicode="&#x24df;" horiz-adv-x="849" d="M789 351q0 -151 -106.5 -257.5t-257.5 -106.5t-258 106.5t-107 257.5t107 258t258 107t257.5 -107t106.5 -258zM760 351q0 139 -98 237.5t-237 98.5t-237.5 -98.5t-98.5 -237.5t98.5 -237t237.5 -98t237 98t98 237zM346 144h-35v413h166q51 0 84.5 -36t33.5 -87 t-33.5 -87t-84.5 -36h-131v-167zM346 344h130q37 0 60.5 26t23.5 64t-23.5 64t-60.5 26h-130v-180z" />
<glyph unicode="&#xe000;" horiz-adv-x="500" d="M0 500h500v-500h-500v500z" />
<glyph unicode="&#xf6c3;" horiz-adv-x="450" d="M198 -237l-26 10l44 159h57z" />
<glyph unicode="&#xf8ff;" horiz-adv-x="809" d="M689 67l-197 72l-88 -188l-87 187l-195 -71l71 195l-188 89l188 86l-71 197l195 -72l89 188l86 -188l197 72l-72 -197l187 -85l-187 -88zM629 127l-55 155l147 69l-147 69l55 154l-154 -55l-70 149l-70 -149l-154 55l56 -154l-149 -70l149 -70l-56 -153l154 57l69 -151 l71 151z" />
<glyph horiz-adv-x="523" d="M261 -13q-98 0 -154.5 72t-56.5 192q0 119 56.5 191t154.5 72q99 0 155.5 -72t56.5 -191q0 -120 -56.5 -192t-155.5 -72zM261 23q78 0 124 63t46 165q0 101 -46 164t-124 63t-123.5 -63t-45.5 -164q0 -102 45.5 -165t123.5 -63z" />
<glyph horiz-adv-x="307" d="M212 0h-41v418q-63 -47 -141 -47v37q132 10 147 100h35v-508z" />
<glyph horiz-adv-x="497" d="M426 0h-364q10 62 62.5 113.5t175.5 122.5q100 58 100 135q0 45 -35.5 75.5t-108.5 30.5q-55 0 -100 -23.5t-67 -65.5l-34 20q63 106 203 106q89 0 136.5 -39t47.5 -104q0 -51 -28.5 -91.5t-112.5 -88.5q-83 -46 -122 -78.5t-60 -73.5h307v-39z" />
<glyph horiz-adv-x="500" d="M50 3l33 16q46 -102 163 -102q74 0 118 35t44 103q0 135 -172 135h-64v37h59q76 0 118 31.5t42 93.5q0 57 -37.5 91t-107.5 34q-95 0 -144 -89l-32 19q54 107 179 107q87 0 135.5 -45t48.5 -113q0 -114 -106 -144q58 -12 90.5 -53t32.5 -100q0 -82 -54 -130.5t-152 -48.5 q-67 0 -120 32t-74 91z" />
<glyph horiz-adv-x="538" d="M398 -107h-41v156h-327v38l316 414h52v-414h100v-38h-100v-156zM357 87v367l-281 -367h281z" />
<glyph horiz-adv-x="513" d="M50 -18l30 20q52 -85 166 -85q85 0 130 45.5t45 128.5q0 76 -45 118.5t-124 42.5q-43 0 -84 -22.5t-66 -61.5l-32 11l16 322h337v-39h-300l-14 -236q62 62 152 62q94 0 148 -52.5t54 -142.5q0 -99 -57 -156t-158 -57q-68 0 -120 26t-78 76z" />
<glyph horiz-adv-x="542" d="M442 588l-17 -33q-54 29 -112 29q-100 0 -157 -86t-63 -208q27 50 76 78t112 28q96 0 153.5 -56t57.5 -146q0 -94 -61 -150.5t-158 -56.5q-60 0 -105 24t-69.5 64.5t-36.5 86t-12 96.5q0 68 16 130.5t47 115.5t84 85t121 32q74 0 124 -33zM450 197q0 75 -48 119t-127 44 q-70 0 -124.5 -45.5t-54.5 -110.5q0 -26 10 -55.5t30 -58t56 -47.5t81 -19q80 0 128.5 47t48.5 126z" />
<glyph horiz-adv-x="500" d="M201 -108h-47q26 283 250 570h-364v39h410v-42q-114 -141 -175.5 -276.5t-73.5 -290.5z" />
<glyph horiz-adv-x="538" d="M352 325q136 -37 136 -162q0 -77 -57 -126.5t-162 -49.5q-106 0 -162.5 49.5t-56.5 126.5q0 125 135 162q-111 38 -111 140q0 67 52 111.5t143 44.5t142.5 -44.5t51.5 -111.5q0 -102 -111 -140zM421 464q0 49 -38.5 85t-113.5 36t-113.5 -36t-38.5 -85q0 -52 42.5 -87 t109.5 -35t109.5 35t42.5 87zM446 165q0 66 -51.5 103.5t-125.5 37.5q-75 0 -126 -37.5t-51 -103.5q0 -63 48.5 -102.5t128.5 -39.5t128.5 39.5t48.5 102.5z" />
<glyph horiz-adv-x="542" d="M100 -88l17 33q54 -29 112 -29q100 0 157 86t63 208q-27 -50 -76 -78t-112 -28q-96 0 -153.5 56t-57.5 146q0 94 61 151t158 57q60 0 105 -24t69.5 -64.5t36.5 -86.5t12 -97q0 -68 -16 -130.5t-47 -115.5t-84 -85t-121 -32q-74 0 -124 33zM446 296q0 26 -10 55.5 t-30 58.5t-56 48t-81 19q-80 0 -128.5 -47.5t-48.5 -126.5q0 -75 48 -119t127 -44q70 0 124.5 45.5t54.5 110.5z" />
<glyph horiz-adv-x="610" d="M305 -13q-119 0 -187 97.5t-68 267.5q0 169 68 266.5t187 97.5t187 -97.5t68 -266.5q0 -170 -68 -267.5t-187 -97.5zM304 24q104 0 158.5 91.5t54.5 237.5q0 145 -54.5 235.5t-158.5 90.5t-157.5 -91t-53.5 -237t53.5 -236.5t157.5 -90.5z" />
<glyph horiz-adv-x="344" d="M229 0h-42v614q-60 -53 -147 -53v38q133 10 155 111h34v-710z" />
<glyph horiz-adv-x="564" d="M500 0h-445q4 38 22 73t51 68t60.5 56t71.5 55t62 47q48 39 73 63t48 66t23 88q0 78 -50.5 120.5t-133.5 42.5q-61 0 -106.5 -31t-65.5 -74l-33 20q25 52 81 87t127 35q106 0 165 -54.5t59 -145.5q0 -73 -37.5 -128t-121.5 -117q-10 -7 -44.5 -32t-50 -37t-45 -36 t-45 -41t-32.5 -40.5t-26 -45.5h393v-39z" />
<glyph horiz-adv-x="553" d="M55 129l37 21q20 -64 67.5 -95t110.5 -31q81 0 133 40.5t52 124.5q0 159 -192 159h-72v37h66q179 0 179 146q0 66 -43.5 107t-124.5 41q-53 0 -95.5 -30.5t-60.5 -75.5l-35 20q60 123 198 123q98 0 151 -51t53 -130q0 -136 -122 -167q66 -13 103.5 -58.5t37.5 -116.5 q0 -94 -60.5 -150t-169.5 -56q-75 0 -132 37t-81 105z" />
<glyph horiz-adv-x="588" d="M448 0h-42v179h-366v40l349 484h59v-486h110v-38h-110v-179zM406 217v445l-324 -445h324z" />
<glyph horiz-adv-x="572" d="M50 105l31 24q67 -105 191 -105q97 0 152 55.5t55 150.5q0 87 -52.5 138.5t-143.5 51.5q-51 0 -98 -25t-76 -70l-37 12l18 366h386v-39h-348l-17 -283q70 76 180 76q108 0 169.5 -60.5t61.5 -164.5q0 -114 -67.5 -179.5t-183.5 -65.5q-71 0 -131 30.5t-90 87.5z" />
<glyph horiz-adv-x="599" d="M487 681l-20 -36q-49 34 -125 34q-60 0 -107.5 -29t-77 -80.5t-46.5 -113.5t-22 -135q31 67 89.5 100.5t130.5 33.5q109 0 174.5 -64t65.5 -167q0 -108 -68.5 -172.5t-178.5 -64.5q-66 0 -116.5 25t-79 67.5t-42.5 93.5t-14 108q0 120 30.5 216t99.5 157.5t168 61.5 q36 0 76.5 -10t62.5 -25zM303 24q90 0 146.5 57t56.5 147q0 86 -56 138t-145 52t-149 -55.5t-60 -137.5q0 -25 11.5 -57t34.5 -65.5t65.5 -56t95.5 -22.5z" />
<glyph horiz-adv-x="544" d="M235 0h-49q33 354 268 664h-414v39h454v-48q-121 -156 -183 -313t-76 -342z" />
<glyph horiz-adv-x="581" d="M383 375q148 -47 148 -187q0 -89 -62 -145t-179 -56t-178.5 56.5t-61.5 144.5q0 140 148 187q-121 43 -121 162q0 78 56.5 128.5t156.5 50.5q101 0 157.5 -50.5t56.5 -128.5q0 -119 -121 -162zM461 536q0 60 -42.5 101.5t-128.5 41.5q-85 0 -127.5 -41.5t-42.5 -101.5 q0 -63 47 -104t123 -41q77 0 124 41t47 104zM488 190q0 79 -56.5 123t-141.5 44q-84 0 -140.5 -44t-56.5 -123q0 -76 53 -121t144 -45q92 0 145 45t53 121z" />
<glyph horiz-adv-x="599" d="M112 22l20 36q49 -34 125 -34q60 0 107.5 29t77 80.5t46.5 113.5t22 135q-31 -67 -89.5 -100.5t-130.5 -33.5q-109 0 -174.5 64t-65.5 167q0 108 68.5 172.5t178.5 64.5q66 0 116.5 -25t79 -67.5t42.5 -93.5t14 -108q0 -120 -30.5 -216t-99.5 -157.5t-168 -61.5 q-36 0 -76.5 10t-62.5 25zM503 478q0 25 -11.5 57t-34.5 65.5t-65.5 56t-95.5 22.5q-90 0 -146.5 -57t-56.5 -147q0 -86 56 -138t145 -52t149 55.5t60 137.5z" />
<glyph horiz-adv-x="477" d="M259 -55h-42v120q-125 7 -177 126l35 20q19 -53 60 -80.5t97 -27.5q70 0 108.5 33t38.5 90q0 42 -38.5 75t-134.5 67q-85 31 -121 68.5t-36 90.5q0 66 48 104.5t120 42.5v113h42v-115q104 -11 160 -96l-32 -24q-55 85 -159 85q-59 0 -97.5 -28t-38.5 -80q0 -45 28 -69.5 t110 -56.5q107 -41 149.5 -82t42.5 -96q0 -67 -46 -109t-117 -50v-121z" />
<glyph horiz-adv-x="482" d="M287 -56h-43v126q-84 11 -134 79.5t-50 176.5t50 176.5t134 79.5v121h43v-119q100 -6 155 -93l-37 -25q-47 79 -132 79q-75 0 -120 -59.5t-45 -159.5q0 -99 45.5 -159t119.5 -60q85 0 132 79l37 -24q-55 -88 -155 -94v-124z" />
<glyph horiz-adv-x="557" d="M353 0h-278v533q0 82 47.5 132.5t138.5 50.5q98 0 161 -65l-28 -28q-57 55 -132 55q-76 0 -110.5 -42t-34.5 -106v-117h227v-37h-227v-339h228q57 0 89.5 27t32.5 77q0 66 -65 104l21 31q35 -19 59.5 -55t24.5 -78q0 -67 -42 -105t-112 -38z" />
<glyph d="M487 175h-176v-175h-42v175h-176v35h176v73l-13 23h-163v35h143l-209 362h49l214 -381l216 381h47l-209 -362h143v-35h-163l-13 -23v-73h176v-35z" />
<glyph horiz-adv-x="421" d="M-13 -205v39q23 7 41 27t23 46l116 560h-87v34h94l19 89q26 120 128 120q31 0 50 -13l-1 -39q-22 14 -50 14q-31 0 -54.5 -20.5t-30.5 -54.5l-20 -96h109v-34h-117l-115 -554q-21 -102 -105 -118z" />
<glyph horiz-adv-x="593" d="M490 148l37 -17q-31 -68 -80.5 -106.5t-113.5 -38.5q-91 0 -152.5 77t-79.5 200h-101l5 37h92q-2 34 -2 52q0 28 3 57h-98l5 37h97q19 121 80 196t151 75q73 0 127 -49.5t83 -135.5l-39 -15q-24 75 -68.5 118.5t-102.5 43.5q-71 0 -120 -64.5t-65 -168.5h248l-5 -37h-247 q-3 -29 -3 -57q0 -18 2 -52h253l-5 -37h-243q16 -107 64.5 -173t120.5 -66q51 0 92 33t65 91z" />
<glyph horiz-adv-x="626" d="M586 97l-29 -29l-106 105q-60 -50 -139 -50q-78 0 -138 50l-105 -105l-29 29l106 106q-48 59 -48 139q0 78 48 136l-105 105l29 29l105 -104q57 49 137 49q79 0 139 -50l104 105l29 -29l-105 -105q47 -58 47 -136q0 -79 -47 -139zM312 165q74 0 121 50.5t47 126.5 q0 74 -47.5 124t-120.5 50q-72 0 -120 -50.5t-48 -123.5q0 -76 47.5 -126.5t120.5 -50.5z" />
<glyph horiz-adv-x="195" d="M118 0h-41v501h41v-501zM130 647q0 -13 -10 -22.5t-23 -9.5t-22.5 9.5t-9.5 22.5t9.5 23t22.5 10t23 -10t10 -23z" />
<glyph horiz-adv-x="486" d="M463 0h-43l-55 140h-244l-54 -140h-44l195 501h50zM351 175l-108 279l-108 -279h216z" />
<glyph horiz-adv-x="489" d="M294 0h-219v501h218q55 0 94 -35t39 -84q0 -39 -19.5 -69t-56.5 -42q47 -12 73 -48t26 -84q0 -58 -45 -98.5t-110 -40.5zM116 285h178q39 0 64.5 26.5t25.5 64.5t-25.5 63.5t-64.5 25.5h-178v-180zM116 36h179q49 0 81 31t32 76t-32 76t-81 31h-179v-214z" />
<glyph horiz-adv-x="509" d="M418 111l35 -19q-66 -105 -182 -105q-93 0 -159 70.5t-66 193.5q0 122 66 192.5t159 70.5q64 0 115.5 -34.5t81.5 -98.5l-38 -17q-25 56 -67 84.5t-91 28.5q-76 0 -130 -60t-54 -166t54.5 -166.5t130.5 -60.5q89 0 145 87z" />
<glyph horiz-adv-x="514" d="M264 0h-189v501h189q93 0 148.5 -71.5t55.5 -178.5t-55.5 -179t-148.5 -72zM116 37h148q73 0 117.5 61.5t44.5 152.5t-44.5 152t-117.5 61h-148v-427z" />
<glyph horiz-adv-x="450" d="M413 0h-338v501h322v-37h-281v-184h216v-37h-216v-206h297v-37z" />
<glyph horiz-adv-x="426" d="M116 0h-41v501h322v-37h-281v-187h228v-37h-228v-240z" />
<glyph horiz-adv-x="534" d="M488 243v-6q0 -63 -22 -118t-72.5 -93.5t-122.5 -38.5q-93 0 -159 70.5t-66 192.5t66 193t159 71q64 0 115.5 -34.5t81.5 -98.5l-38 -17q-25 56 -67 84.5t-91 28.5q-75 0 -129.5 -60.5t-54.5 -166.5t54.5 -166t130.5 -60q75 0 119.5 49.5t54.5 133.5h-149v36h190z" />
<glyph horiz-adv-x="528" d="M453 0h-41v240h-296v-240h-41v501h41v-224h296v224h41v-501z" />
<glyph horiz-adv-x="191" d="M116 0h-41v501h41v-501z" />
<glyph horiz-adv-x="412" d="M301 140v361h41v-352q0 -76 -42.5 -119t-115.5 -43q-65 0 -110.5 38.5t-50.5 95.5l39 11q2 -46 36.5 -77.5t84.5 -31.5q54 0 86 32.5t32 84.5z" />
<glyph horiz-adv-x="484" d="M457 0h-46l-177 272l-118 -127v-145h-41v501h41v-301l280 301h53l-187 -199z" />
<glyph horiz-adv-x="409" d="M386 0h-311v501h41v-464h270v-37z" />
<glyph horiz-adv-x="626" d="M551 0h-41v428l-184 -428h-27l-183 428v-428h-41v501h50l188 -441l188 441h50v-501z" />
<glyph horiz-adv-x="541" d="M466 0h-39l-311 431v-431h-41v501h38l312 -432v432h41v-501z" />
<glyph horiz-adv-x="535" d="M268 -13q-101 0 -161.5 75.5t-60.5 188.5t60.5 188t161.5 75q100 0 160.5 -75t60.5 -188t-60.5 -188.5t-160.5 -75.5zM268 24q81 0 130 65t49 162t-49 161.5t-130 64.5t-130.5 -64.5t-49.5 -161.5t49.5 -162t130.5 -65z" />
<glyph horiz-adv-x="476" d="M116 0h-41v501h227q63 0 102.5 -42t39.5 -101q0 -60 -39.5 -102t-102.5 -42h-186v-214zM116 251h191q43 0 70 31.5t27 75.5t-27 75t-70 31h-191v-213z" />
<glyph horiz-adv-x="535" d="M441 -66l-28 -21l-67 88q-36 -14 -78 -14q-101 0 -161.5 75.5t-60.5 188.5t60.5 188t161.5 75q100 0 160.5 -75t60.5 -188q0 -77 -29.5 -139t-81.5 -95zM322 33l-46 60l28 21l50 -66q43 28 68 82t25 121q0 97 -49 161.5t-130 64.5t-130.5 -64.5t-49.5 -161.5t49.5 -162 t130.5 -65q28 0 54 9z" />
<glyph horiz-adv-x="498" d="M452 0h-49l-147 221h-140v-221h-41v501h229q63 0 102.5 -40.5t39.5 -99.5t-39.5 -99.5t-102.5 -40.5zM116 257h185q46 0 75 30t29 74q0 43 -29 73t-75 30h-185v-207z" />
<glyph horiz-adv-x="441" d="M393 427l-35 -21q-19 34 -59 53.5t-87 19.5q-55 0 -87.5 -22t-32.5 -65t32 -67.5t105 -47.5q91 -30 128.5 -62t37.5 -92q0 -61 -48 -98.5t-121 -37.5q-63 0 -114 28t-71 82l37 17q16 -44 58 -67.5t91 -23.5q56 0 91.5 28t35.5 75q0 41 -29.5 64.5t-110.5 49.5 q-87 28 -125 61t-38 91q0 56 45.5 89t115.5 33q57 0 107.5 -22t73.5 -65z" />
<glyph horiz-adv-x="418" d="M230 0h-41v464h-162v37h364v-37h-161v-464z" />
<glyph horiz-adv-x="518" d="M407 206v295h41v-292q0 -111 -42.5 -166.5t-146.5 -55.5t-146.5 55t-42.5 167v292h41v-295q0 -93 32.5 -138t115.5 -45t115.5 45t32.5 138z" />
<glyph horiz-adv-x="486" d="M268 0h-50l-195 501h43l177 -454l176 454h44z" />
<glyph horiz-adv-x="668" d="M505 0h-55l-116 449l-116 -449h-55l-131 501h43l118 -453l117 453h47l119 -453l117 453h43z" />
<glyph horiz-adv-x="447" d="M425 0h-50l-151 243l-152 -243h-50l173 267l-151 234h49l131 -209l131 209h48l-150 -234z" />
<glyph horiz-adv-x="456" d="M248 0h-41v199l-183 302h47l157 -261l157 261h47l-184 -302v-199z" />
<glyph horiz-adv-x="435" d="M398 0h-366v40l321 424h-304v37h350v-39l-321 -425h320v-37z" />
<glyph horiz-adv-x="615" d="M540 0h-41v501h41v-501zM116 0h-41v501h322v-37h-281v-187h228v-37h-228v-240z" />
<glyph horiz-adv-x="833" d="M116 0h-41v501h322v-37h-281v-187h228v-37h-228v-240zM810 0h-311v501h41v-464h270v-37z" />
<glyph horiz-adv-x="848" d="M116 0h-41v501h322v-37h-281v-187h228v-37h-228v-240zM540 0h-41v501h322v-37h-281v-187h228v-37h-228v-240z" />
<glyph horiz-adv-x="1039" d="M116 0h-41v501h322v-37h-281v-187h228v-37h-228v-240zM540 0h-41v501h322v-37h-281v-187h228v-37h-228v-240zM964 0h-41v501h41v-501z" />
<glyph horiz-adv-x="1258" d="M116 0h-41v501h322v-37h-281v-187h228v-37h-228v-240zM540 0h-41v501h322v-37h-281v-187h228v-37h-228v-240zM1235 0h-311v501h41v-464h270v-37z" />
<glyph horiz-adv-x="882" d="M393 427l-35 -21q-19 34 -59 53.5t-87 19.5q-55 0 -87.5 -22t-32.5 -65t32 -67.5t105 -47.5q91 -30 128.5 -62t37.5 -92q0 -61 -48 -98.5t-121 -37.5q-63 0 -114 28t-71 82l37 17q16 -44 58 -67.5t91 -23.5q56 0 91.5 28t35.5 75q0 41 -29.5 64.5t-110.5 49.5 q-87 28 -125 61t-38 91q0 56 45.5 89t115.5 33q57 0 107.5 -22t73.5 -65zM834 427l-35 -21q-19 34 -59 53.5t-87 19.5q-55 0 -87.5 -22t-32.5 -65t32 -67.5t105 -47.5q91 -30 128.5 -62t37.5 -92q0 -61 -48 -98.5t-121 -37.5q-63 0 -114 28t-71 82l37 17q16 -44 58 -67.5 t91 -23.5q56 0 91.5 28t35.5 75q0 41 -29.5 64.5t-110.5 49.5q-87 28 -125 61t-38 91q0 56 45.5 89t115.5 33q57 0 107.5 -22t73.5 -65z" />
<glyph horiz-adv-x="486" d="M463 0h-43l-55 140h-244l-54 -140h-44l195 501h50zM351 175l-108 279l-108 -279h216zM266 577h-38l-162 150h72z" />
<glyph horiz-adv-x="486" d="M420 727l-162 -150h-38l128 150h72zM463 0h-43l-55 140h-244l-54 -140h-44l195 501h50zM351 175l-108 279l-108 -279h216z" />
<glyph horiz-adv-x="486" d="M463 0h-43l-55 140h-244l-54 -140h-44l195 501h50zM351 175l-108 279l-108 -279h216zM395 577h-38l-114 117l-116 -117h-36l125 150h55z" />
<glyph horiz-adv-x="486" d="M463 0h-43l-55 140h-244l-54 -140h-44l195 501h50zM351 175l-108 279l-108 -279h216zM369 702l31 -5q-14 -89 -92 -89q-32 0 -70 29.5t-60 29.5q-44 0 -58 -59l-32 4q4 43 27.5 67.5t64.5 24.5q34 0 73.5 -29.5t58.5 -29.5q25 0 37.5 14.5t19.5 42.5z" />
<glyph horiz-adv-x="486" d="M463 0h-43l-55 140h-244l-54 -140h-44l195 501h50zM351 175l-108 279l-108 -279h216zM358 647q0 -13 -10 -22.5t-23 -9.5t-22.5 9.5t-9.5 22.5t9.5 23t22.5 10t23 -10t10 -23zM193 647q0 -13 -10 -22.5t-23 -9.5t-22.5 9.5t-9.5 22.5t9.5 23t22.5 10q14 0 23.5 -10 t9.5 -23z" />
<glyph horiz-adv-x="486" d="M463 0h-43l-55 140h-244l-54 -140h-44l184 473q-28 11 -45 36t-17 56q0 41 28 69.5t70 28.5t70 -28.5t28 -69.5q0 -31 -17 -56t-46 -36zM351 175l-108 279l-108 -279h216zM308 565q0 28 -19 47t-47 19t-46.5 -19t-18.5 -47t18.5 -47t46.5 -19t47 19t19 47z" />
<glyph horiz-adv-x="486" d="M463 0h-43l-55 140h-244l-54 -140h-44l184 473q-28 11 -45 36t-17 56q0 41 28 69.5t70 28.5t70 -28.5t28 -69.5q0 -31 -17 -56t-46 -36zM351 175l-108 279l-108 -279h216zM308 565q0 28 -19 47t-47 19t-46.5 -19t-18.5 -47t18.5 -47t46.5 -19t47 19t19 47zM420 853 l-162 -150h-38l128 150h72z" />
<glyph horiz-adv-x="486" d="M463 0h-43l-55 140h-244l-54 -140h-44l195 501h50zM351 175l-108 279l-108 -279h216zM370 621h-253v37h253v-37z" />
<glyph horiz-adv-x="486" d="M463 0h-43l-55 140h-244l-54 -140h-44l195 501h50zM351 175l-108 279l-108 -279h216zM346 722h33q-3 -54 -39.5 -89t-99.5 -35q-58 0 -93.5 33.5t-39.5 90.5h35q4 -39 31 -64t69 -25q40 0 69.5 24.5t34.5 64.5z" />
<glyph horiz-adv-x="486" d="M485 -165l8 -28q-40 -20 -74 -20q-43 0 -70.5 23.5t-27.5 59.5q0 35 28.5 72t70.5 58l-55 140h-244l-54 -140h-44l195 501h50l195 -501q-43 -23 -74.5 -59t-31.5 -66q0 -57 65 -57q23 0 63 17zM351 175l-108 279l-108 -279h216z" />
<glyph horiz-adv-x="753" d="M716 0h-339v135h-221l-94 -135h-48l348 501h338v-37h-281v-184h216v-37h-216v-206h297v-37zM377 172v283l-196 -283h196z" />
<glyph horiz-adv-x="753" d="M716 0h-339v135h-221l-94 -135h-48l348 501h338v-37h-281v-184h216v-37h-216v-206h297v-37zM377 172v283l-196 -283h196zM655 727l-162 -150h-38l128 150h72z" />
<glyph horiz-adv-x="509" d="M177 -196l8 30q40 -18 79 -18t59 14t20 34q0 18 -14 29t-38 11q-25 0 -53 -13l-27 7l42 90q-88 7 -147.5 76.5t-59.5 186.5q0 122 66 192.5t159 70.5q64 0 115.5 -34.5t81.5 -98.5l-38 -17q-25 56 -67 84.5t-91 28.5q-76 0 -130 -60t-54 -166t54.5 -166.5t130.5 -60.5 q89 0 145 87l35 -19q-63 -98 -169 -104l-32 -66q24 11 49 11q35 0 57.5 -19t22.5 -50q0 -34 -30.5 -55.5t-84.5 -21.5q-47 0 -89 17z" />
<glyph horiz-adv-x="509" d="M418 111l35 -19q-66 -105 -182 -105q-93 0 -159 70.5t-66 193.5q0 122 66 192.5t159 70.5q64 0 115.5 -34.5t81.5 -98.5l-38 -17q-25 56 -67 84.5t-91 28.5q-76 0 -130 -60t-54 -166t54.5 -166.5t130.5 -60.5q89 0 145 87zM442 727l-162 -150h-38l128 150h72z" />
<glyph horiz-adv-x="509" d="M418 111l35 -19q-66 -105 -182 -105q-93 0 -159 70.5t-66 193.5q0 122 66 192.5t159 70.5q64 0 115.5 -34.5t81.5 -98.5l-38 -17q-25 56 -67 84.5t-91 28.5q-76 0 -130 -60t-54 -166t54.5 -166.5t130.5 -60.5q89 0 145 87zM425 577h-38l-114 117l-116 -117h-36l125 150 h55z" />
<glyph horiz-adv-x="509" d="M418 111l35 -19q-66 -105 -182 -105q-93 0 -159 70.5t-66 193.5q0 122 66 192.5t159 70.5q64 0 115.5 -34.5t81.5 -98.5l-38 -17q-25 56 -67 84.5t-91 28.5q-76 0 -130 -60t-54 -166t54.5 -166.5t130.5 -60.5q89 0 145 87zM308 647q0 -13 -10 -22.5t-23 -9.5t-22.5 9.5 t-9.5 22.5t9.5 23t22.5 10t23 -10t10 -23z" />
<glyph horiz-adv-x="509" d="M418 111l35 -19q-66 -105 -182 -105q-93 0 -159 70.5t-66 193.5q0 122 66 192.5t159 70.5q64 0 115.5 -34.5t81.5 -98.5l-38 -17q-25 56 -67 84.5t-91 28.5q-76 0 -130 -60t-54 -166t54.5 -166.5t130.5 -60.5q89 0 145 87zM303 577h-55l-129 150h37l121 -117l116 117h36z " />
<glyph horiz-adv-x="514" d="M264 0h-189v501h189q93 0 148.5 -71.5t55.5 -178.5t-55.5 -179t-148.5 -72zM116 37h148q73 0 117.5 61.5t44.5 152.5t-44.5 152t-117.5 61h-148v-427zM259 577h-55l-129 150h37l121 -117l116 117h36z" />
<glyph horiz-adv-x="514" d="M264 0h-190v240h-60v37h60v224h190q93 0 148.5 -71.5t55.5 -178.5t-55.5 -179t-148.5 -72zM115 37h149q73 0 117.5 61.5t44.5 152.5t-44.5 152t-117.5 61h-149v-187h138v-37h-138v-203z" />
<glyph horiz-adv-x="514" d="M264 0h-190v240h-60v37h60v224h190q93 0 148.5 -71.5t55.5 -178.5t-55.5 -179t-148.5 -72zM115 37h149q73 0 117.5 61.5t44.5 152.5t-44.5 152t-117.5 61h-149v-187h138v-37h-138v-203z" />
<glyph horiz-adv-x="450" d="M413 0h-338v501h322v-37h-281v-184h216v-37h-216v-206h297v-37zM276 577h-38l-162 150h72z" />
<glyph horiz-adv-x="450" d="M413 0h-338v501h322v-37h-281v-184h216v-37h-216v-206h297v-37zM382 727l-162 -150h-38l128 150h72z" />
<glyph horiz-adv-x="450" d="M413 0h-338v501h322v-37h-281v-184h216v-37h-216v-206h297v-37zM387 577h-38l-114 117l-116 -117h-36l125 150h55z" />
<glyph horiz-adv-x="450" d="M413 0h-338v501h322v-37h-281v-184h216v-37h-216v-206h297v-37zM349 647q0 -13 -10 -22.5t-23 -9.5t-22.5 9.5t-9.5 22.5t9.5 23t22.5 10q14 0 23.5 -10t9.5 -23zM184 647q0 -13 -10 -22.5t-23 -9.5t-22.5 9.5t-9.5 22.5t9.5 23t22.5 10t23 -10t10 -23z" />
<glyph horiz-adv-x="450" d="M413 0h-338v501h322v-37h-281v-184h216v-37h-216v-206h297v-37zM362 621h-253v37h253v-37z" />
<glyph horiz-adv-x="450" d="M413 0h-338v501h322v-37h-281v-184h216v-37h-216v-206h297v-37zM339 722h33q-3 -54 -39.5 -89t-99.5 -35q-58 0 -93.5 33.5t-39.5 90.5h35q4 -39 31 -64t69 -25q40 0 69.5 24.5t34.5 64.5z" />
<glyph horiz-adv-x="450" d="M413 0h-338v501h322v-37h-281v-184h216v-37h-216v-206h297v-37zM273 647q0 -13 -10 -22.5t-23 -9.5t-22.5 9.5t-9.5 22.5t9.5 23t22.5 10q14 0 23.5 -10t9.5 -23z" />
<glyph horiz-adv-x="450" d="M405 -165l8 -28q-40 -20 -74 -20q-43 0 -70.5 23.5t-27.5 59.5q0 32 27 68t62 62h-255v501h322v-37h-281v-184h216v-37h-216v-206h297v-37h-43q-33 -25 -63 -62.5t-30 -62.5q0 -57 65 -57q23 0 63 17z" />
<glyph horiz-adv-x="450" d="M413 0h-338v501h322v-37h-281v-184h216v-37h-216v-206h297v-37zM266 577h-55l-129 150h37l121 -117l116 117h36z" />
<glyph horiz-adv-x="534" d="M448 207h-150v36h190q-3 -106 -57.5 -181t-159.5 -75q-93 0 -159 70.5t-66 192.5t66 193t159 71q64 0 115.5 -34.5t81.5 -98.5l-38 -17q-25 56 -67 84.5t-91 28.5q-75 0 -129.5 -60.5t-54.5 -166.5t54.5 -166t130.5 -60q75 0 120 49.5t55 133.5zM431 577h-38l-114 117 l-116 -117h-36l125 150h55z" />
<glyph horiz-adv-x="534" d="M448 207h-150v36h190q-3 -106 -57.5 -181t-159.5 -75q-93 0 -159 70.5t-66 192.5t66 193t159 71q64 0 115.5 -34.5t81.5 -98.5l-38 -17q-25 56 -67 84.5t-91 28.5q-75 0 -129.5 -60.5t-54.5 -166.5t54.5 -166t130.5 -60q75 0 120 49.5t55 133.5zM382 722h33 q-3 -54 -39.5 -89t-99.5 -35q-58 0 -93.5 33.5t-39.5 90.5h35q4 -39 31 -64t69 -25q40 0 69.5 24.5t34.5 64.5z" />
<glyph horiz-adv-x="534" d="M448 207h-150v36h190q-3 -106 -57.5 -181t-159.5 -75q-93 0 -159 70.5t-66 192.5t66 193t159 71q64 0 115.5 -34.5t81.5 -98.5l-38 -17q-25 56 -67 84.5t-91 28.5q-75 0 -129.5 -60.5t-54.5 -166.5t54.5 -166t130.5 -60q75 0 120 49.5t55 133.5zM308 647q0 -13 -10 -22.5 t-23 -9.5t-22.5 9.5t-9.5 22.5t9.5 23t22.5 10t23 -10t10 -23z" />
<glyph horiz-adv-x="534" d="M448 207h-150v36h190q-3 -106 -57.5 -181t-159.5 -75q-93 0 -159 70.5t-66 192.5t66 193t159 71q64 0 115.5 -34.5t81.5 -98.5l-38 -17q-25 56 -67 84.5t-91 28.5q-75 0 -129.5 -60.5t-54.5 -166.5t54.5 -166t130.5 -60q75 0 120 49.5t55 133.5zM242 -237l-26 10l44 159 h57z" />
<glyph horiz-adv-x="528" d="M453 0h-41v240h-296v-240h-41v501h41v-224h296v224h41v-501zM416 577h-38l-114 117l-116 -117h-36l125 150h55z" />
<glyph horiz-adv-x="528" d="M453 0h-41v240h-296v-240h-41v361h-61v36h61v104h41v-104h296v104h41v-104h61v-36h-61v-361zM412 277v84h-296v-84h296z" />
<glyph horiz-adv-x="191" d="M116 0h-41v501h41v-501zM112 577h-38l-162 150h72z" />
<glyph horiz-adv-x="191" d="M116 0h-41v501h41v-501zM279 727l-162 -150h-38l128 150h72z" />
<glyph horiz-adv-x="191" d="M116 0h-41v501h41v-501zM247 577h-38l-114 117l-116 -117h-36l125 150h55z" />
<glyph horiz-adv-x="191" d="M116 0h-41v501h41v-501zM210 647q0 -13 -10 -22.5t-23 -9.5t-22.5 9.5t-9.5 22.5t9.5 23t22.5 10t23 -10t10 -23zM45 647q0 -13 -10 -22.5t-23 -9.5t-22.5 9.5t-9.5 22.5t9.5 23t22.5 10q14 0 23.5 -10t9.5 -23z" />
<glyph horiz-adv-x="191" d="M116 0h-41v501h41v-501zM222 621h-253v37h253v-37z" />
<glyph horiz-adv-x="191" d="M116 0h-41v501h41v-501zM198 722h33q-3 -54 -39.5 -89t-99.5 -35q-58 0 -93.5 33.5t-39.5 90.5h35q4 -39 31 -64t69 -25q40 0 69.5 24.5t34.5 64.5z" />
<glyph horiz-adv-x="191" d="M151 -165l8 -28q-40 -20 -74 -20q-43 0 -69.5 23.5t-26.5 59.5q0 37 25 73t61 57v501h41v-501q-37 -22 -64 -59t-27 -66q0 -57 63 -57q23 0 63 17z" />
<glyph horiz-adv-x="191" d="M116 0h-41v501h41v-501zM128 647q0 -13 -10 -22.5t-23 -9.5t-22.5 9.5t-9.5 22.5t9.5 23t22.5 10t23 -10t10 -23z" />
<glyph horiz-adv-x="191" d="M116 0h-41v501h41v-501z" />
<glyph horiz-adv-x="412" d="M301 140v361h41v-352q0 -76 -42.5 -119t-115.5 -43q-65 0 -110.5 38.5t-50.5 95.5l39 11q2 -46 36.5 -77.5t84.5 -31.5q54 0 86 32.5t32 84.5zM471 577h-38l-114 117l-116 -117h-36l125 150h55z" />
<glyph horiz-adv-x="412" d="M301 140v361h41v-352q0 -76 -42.5 -119t-115.5 -43q-65 0 -110.5 38.5t-50.5 95.5l39 11q2 -46 36.5 -77.5t84.5 -31.5q54 0 86 32.5t32 84.5z" />
<glyph horiz-adv-x="484" d="M457 0h-46l-177 272l-118 -127v-145h-41v501h41v-301l280 301h53l-187 -199zM217 -237l-26 10l44 159h57z" />
<glyph horiz-adv-x="409" d="M386 0h-311v501h41v-464h270v-37zM275 727l-162 -150h-38l128 150h72z" />
<glyph horiz-adv-x="409" d="M386 0h-311v501h41v-464h270v-37zM190 -237l-26 10l44 159h57z" />
<glyph horiz-adv-x="441" d="M386 0h-311v501h41v-464h270v-37zM312 268l-27 10l70 222h59z" />
<glyph horiz-adv-x="461" d="M386 0h-311v501h41v-464h270v-37zM427 285q0 -17 -12 -29t-29 -12t-28.5 12t-11.5 29t12 28.5t28 11.5q17 0 29 -11.5t12 -28.5z" />
<glyph horiz-adv-x="409" d="M386 0h-311v198l-61 -36v37l61 36v266h41v-240l134 82v-37l-134 -82v-187h270v-37z" />
<glyph horiz-adv-x="541" d="M466 0h-39l-311 431v-431h-41v501h38l312 -432v432h41v-501zM396 702l31 -5q-14 -89 -92 -89q-32 0 -70 29.5t-60 29.5q-44 0 -58 -59l-32 4q4 43 27.5 67.5t64.5 24.5q34 0 73.5 -29.5t58.5 -29.5q25 0 37.5 14.5t19.5 42.5z" />
<glyph horiz-adv-x="541" d="M466 0h-39l-311 431v-431h-41v501h38l312 -432v432h41v-501zM442 727l-162 -150h-38l128 150h72z" />
<glyph horiz-adv-x="541" d="M466 0h-39l-311 431v-431h-41v501h38l312 -432v432h41v-501zM222 -237l-26 10l44 159h57z" />
<glyph horiz-adv-x="541" d="M466 0h-39l-311 431v-431h-41v501h38l312 -432v432h41v-501zM309 577h-55l-129 150h37l121 -117l116 117h36z" />
<glyph horiz-adv-x="541" d="M356 -200h-57v35h52q35 0 54.5 24t19.5 69v75l-309 428v-431h-41v501h38l312 -432v432h41v-573q0 -57 -28 -92.5t-82 -35.5z" />
<glyph horiz-adv-x="535" d="M268 -13q-101 0 -161.5 75.5t-60.5 188.5t60.5 188t161.5 75q100 0 160.5 -75t60.5 -188t-60.5 -188.5t-160.5 -75.5zM268 24q81 0 130 65t49 162t-49 161.5t-130 64.5t-130.5 -64.5t-49.5 -161.5t49.5 -162t130.5 -65zM286 577h-38l-162 150h72z" />
<glyph horiz-adv-x="535" d="M268 -13q-101 0 -161.5 75.5t-60.5 188.5t60.5 188t161.5 75q100 0 160.5 -75t60.5 -188t-60.5 -188.5t-160.5 -75.5zM268 24q81 0 130 65t49 162t-49 161.5t-130 64.5t-130.5 -64.5t-49.5 -161.5t49.5 -162t130.5 -65zM440 727l-162 -150h-38l128 150h72z" />
<glyph horiz-adv-x="535" d="M268 -13q-101 0 -161.5 75.5t-60.5 188.5t60.5 188t161.5 75q100 0 160.5 -75t60.5 -188t-60.5 -188.5t-160.5 -75.5zM268 24q81 0 130 65t49 162t-49 161.5t-130 64.5t-130.5 -64.5t-49.5 -161.5t49.5 -162t130.5 -65zM419 577h-38l-114 117l-116 -117h-36l125 150h55z " />
<glyph horiz-adv-x="535" d="M268 -13q-101 0 -161.5 75.5t-60.5 188.5t60.5 188t161.5 75q100 0 160.5 -75t60.5 -188t-60.5 -188.5t-160.5 -75.5zM268 24q81 0 130 65t49 162t-49 161.5t-130 64.5t-130.5 -64.5t-49.5 -161.5t49.5 -162t130.5 -65zM392 702l31 -5q-14 -89 -92 -89q-32 0 -70 29.5 t-60 29.5q-44 0 -58 -59l-32 4q4 43 27.5 67.5t64.5 24.5q34 0 73.5 -29.5t58.5 -29.5q25 0 37.5 14.5t19.5 42.5z" />
<glyph horiz-adv-x="535" d="M268 -13q-101 0 -161.5 75.5t-60.5 188.5t60.5 188t161.5 75q100 0 160.5 -75t60.5 -188t-60.5 -188.5t-160.5 -75.5zM268 24q81 0 130 65t49 162t-49 161.5t-130 64.5t-130.5 -64.5t-49.5 -161.5t49.5 -162t130.5 -65zM382 647q0 -13 -10 -22.5t-23 -9.5t-22.5 9.5 t-9.5 22.5t9.5 23t22.5 10t23 -10t10 -23zM217 647q0 -13 -10 -22.5t-23 -9.5t-22.5 9.5t-9.5 22.5t9.5 23t22.5 10q14 0 23.5 -10t9.5 -23z" />
<glyph horiz-adv-x="535" d="M268 -13q-101 0 -161.5 75.5t-60.5 188.5t60.5 188t161.5 75q100 0 160.5 -75t60.5 -188t-60.5 -188.5t-160.5 -75.5zM268 24q81 0 130 65t49 162t-49 161.5t-130 64.5t-130.5 -64.5t-49.5 -161.5t49.5 -162t130.5 -65zM394 621h-253v37h253v-37z" />
<glyph horiz-adv-x="535" d="M268 -13q-101 0 -161.5 75.5t-60.5 188.5t60.5 188t161.5 75q100 0 160.5 -75t60.5 -188t-60.5 -188.5t-160.5 -75.5zM268 24q81 0 130 65t49 162t-49 161.5t-130 64.5t-130.5 -64.5t-49.5 -161.5t49.5 -162t130.5 -65zM370 722h33q-3 -54 -39.5 -89t-99.5 -35 q-58 0 -93.5 33.5t-39.5 90.5h35q4 -39 31 -64t69 -25q40 0 69.5 24.5t34.5 64.5z" />
<glyph horiz-adv-x="535" d="M268 -13q-101 0 -161.5 75.5t-60.5 188.5t60.5 188t161.5 75q100 0 160.5 -75t60.5 -188t-60.5 -188.5t-160.5 -75.5zM268 24q81 0 130 65t49 162t-49 161.5t-130 64.5t-130.5 -64.5t-49.5 -161.5t49.5 -162t130.5 -65zM214 576h-38l113 151h66zM373 576h-38l113 151h66z " />
<glyph horiz-adv-x="546" d="M78 -49l-25 19l61 85q-68 74 -68 196q0 113 62 188t165 75q78 0 136 -48l59 82l25 -19l-61 -85q68 -74 68 -194q0 -113 -62 -188t-165 -75q-79 0 -136 46zM138 89l248 345q-50 43 -113 43q-83 0 -134 -64.5t-51 -161.5q0 -98 50 -162zM408 411l-248 -345q47 -42 113 -42 q84 0 134.5 64.5t50.5 161.5t-50 161z" />
<glyph horiz-adv-x="546" d="M78 -49l-25 19l61 85q-68 74 -68 196q0 113 62 188t165 75q78 0 136 -48l59 82l25 -19l-61 -85q68 -74 68 -194q0 -113 -62 -188t-165 -75q-79 0 -136 46zM138 89l248 345q-50 43 -113 43q-83 0 -134 -64.5t-51 -161.5q0 -98 50 -162zM408 411l-248 -345q47 -42 113 -42 q84 0 134.5 64.5t50.5 161.5t-50 161zM452 727l-162 -150h-38l128 150h72z" />
<glyph horiz-adv-x="773" d="M736 0h-486q-93 0 -148.5 72t-55.5 179t55.5 178.5t148.5 71.5h470v-37h-281v-184h216v-37h-216v-206h297v-37zM398 37v427h-148q-73 0 -117.5 -61t-44.5 -152t44.5 -152.5t117.5 -61.5h148z" />
<glyph horiz-adv-x="455" d="M116 0h-41v501h41v-82h127q85 0 132.5 -32t47.5 -112q0 -147 -193 -147h-114v-128zM116 164h116q81 0 115.5 26t34.5 85q0 58 -33 83t-107 25h-126v-219z" />
<glyph horiz-adv-x="498" d="M452 0h-49l-147 221h-140v-221h-41v501h229q63 0 102.5 -40.5t39.5 -99.5t-39.5 -99.5t-102.5 -40.5zM116 257h185q46 0 75 30t29 74q0 43 -29 73t-75 30h-185v-207zM412 727l-162 -150h-38l128 150h72z" />
<glyph horiz-adv-x="498" d="M452 0h-49l-147 221h-140v-221h-41v501h229q63 0 102.5 -40.5t39.5 -99.5t-39.5 -99.5t-102.5 -40.5zM116 257h185q46 0 75 30t29 74q0 43 -29 73t-75 30h-185v-207zM212 -237l-26 10l44 159h57z" />
<glyph horiz-adv-x="498" d="M452 0h-49l-147 221h-140v-221h-41v501h229q63 0 102.5 -40.5t39.5 -99.5t-39.5 -99.5t-102.5 -40.5zM116 257h185q46 0 75 30t29 74q0 43 -29 73t-75 30h-185v-207zM268 577h-55l-129 150h37l121 -117l116 117h36z" />
<glyph horiz-adv-x="441" d="M393 427l-35 -21q-19 34 -59 53.5t-87 19.5q-55 0 -87.5 -22t-32.5 -65t32 -67.5t105 -47.5q91 -30 128.5 -62t37.5 -92q0 -61 -48 -98.5t-121 -37.5q-63 0 -114 28t-71 82l37 17q16 -44 58 -67.5t91 -23.5q56 0 91.5 28t35.5 75q0 41 -29.5 64.5t-110.5 49.5 q-87 28 -125 61t-38 91q0 56 45.5 89t115.5 33q57 0 107.5 -22t73.5 -65zM392 727l-162 -150h-38l128 150h72z" />
<glyph horiz-adv-x="441" d="M393 427l-35 -21q-19 34 -59 53.5t-87 19.5q-55 0 -87.5 -22t-32.5 -65t32 -67.5t105 -47.5q91 -30 128.5 -62t37.5 -92q0 -61 -48 -98.5t-121 -37.5q-63 0 -114 28t-71 82l37 17q16 -44 58 -67.5t91 -23.5q56 0 91.5 28t35.5 75q0 41 -29.5 64.5t-110.5 49.5 q-87 28 -125 61t-38 91q0 56 45.5 89t115.5 33q57 0 107.5 -22t73.5 -65zM368 577h-38l-114 117l-116 -117h-36l125 150h55z" />
<glyph horiz-adv-x="441" d="M133 -196l8 30q40 -18 79 -18t59 14t20 34q0 18 -14 29t-38 11q-25 0 -53 -13l-27 7l42 90q-58 3 -103.5 30.5t-64.5 78.5l37 17q16 -44 58 -67.5t91 -23.5q56 0 91.5 28t35.5 75q0 41 -29.5 64.5t-110.5 49.5q-87 28 -125 61t-38 91q0 56 45.5 89t115.5 33 q57 0 107.5 -22t73.5 -65l-35 -21q-19 34 -59 53.5t-87 19.5q-55 0 -87.5 -22t-32.5 -65t32 -67.5t105 -47.5q91 -30 128.5 -62t37.5 -92q0 -58 -43.5 -94.5t-111.5 -40.5l-32 -66q24 11 49 11q35 0 57.5 -19t22.5 -50q0 -34 -30.5 -55.5t-84.5 -21.5q-46 0 -89 17z" />
<glyph horiz-adv-x="441" d="M393 427l-35 -21q-19 34 -59 53.5t-87 19.5q-55 0 -87.5 -22t-32.5 -65t32 -67.5t105 -47.5q91 -30 128.5 -62t37.5 -92q0 -61 -48 -98.5t-121 -37.5q-63 0 -114 28t-71 82l37 17q16 -44 58 -67.5t91 -23.5q56 0 91.5 28t35.5 75q0 41 -29.5 64.5t-110.5 49.5 q-87 28 -125 61t-38 91q0 56 45.5 89t115.5 33q57 0 107.5 -22t73.5 -65zM202 -237l-26 10l44 159h57z" />
<glyph horiz-adv-x="441" d="M393 427l-35 -21q-19 34 -59 53.5t-87 19.5q-55 0 -87.5 -22t-32.5 -65t32 -67.5t105 -47.5q91 -30 128.5 -62t37.5 -92q0 -61 -48 -98.5t-121 -37.5q-63 0 -114 28t-71 82l37 17q16 -44 58 -67.5t91 -23.5q56 0 91.5 28t35.5 75q0 41 -29.5 64.5t-110.5 49.5 q-87 28 -125 61t-38 91q0 56 45.5 89t115.5 33q57 0 107.5 -22t73.5 -65zM240 577h-55l-129 150h37l121 -117l116 117h36z" />
<glyph horiz-adv-x="418" d="M230 0h-41v240h-78v36h78v188h-162v37h364v-37h-161v-188h78v-36h-78v-240z" />
<glyph horiz-adv-x="418" d="M230 0h-41v464h-162v37h364v-37h-161v-464zM163 -237l-26 10l44 159h57z" />
<glyph horiz-adv-x="418" d="M116 -196l8 30q40 -18 79 -18t59 14t20 34q0 18 -14 29t-38 11q-25 0 -53 -13l-27 7l49 102h-10v464h-162v37h364v-37h-161v-464l-39 -78q24 11 49 11q35 0 57.5 -19t22.5 -50q0 -34 -30.5 -55.5t-84.5 -21.5q-47 0 -89 17z" />
<glyph horiz-adv-x="418" d="M230 0h-41v464h-162v37h364v-37h-161v-464zM238 577h-55l-129 150h37l121 -117l116 117h36z" />
<glyph horiz-adv-x="518" d="M407 206v295h41v-292q0 -111 -42.5 -166.5t-146.5 -55.5t-146.5 55t-42.5 167v292h41v-295q0 -93 32.5 -138t115.5 -45t115.5 45t32.5 138zM289 577h-38l-162 150h72z" />
<glyph horiz-adv-x="518" d="M429 727l-162 -150h-38l128 150h72zM407 206v295h41v-292q0 -111 -42.5 -166.5t-146.5 -55.5t-146.5 55t-42.5 167v292h41v-295q0 -93 32.5 -138t115.5 -45t115.5 45t32.5 138z" />
<glyph horiz-adv-x="518" d="M407 206v295h41v-292q0 -111 -42.5 -166.5t-146.5 -55.5t-146.5 55t-42.5 167v292h41v-295q0 -93 32.5 -138t115.5 -45t115.5 45t32.5 138zM411 577h-38l-114 117l-116 -117h-36l125 150h55z" />
<glyph horiz-adv-x="518" d="M407 206v295h41v-292q0 -111 -42.5 -166.5t-146.5 -55.5t-146.5 55t-42.5 167v292h41v-295q0 -93 32.5 -138t115.5 -45t115.5 45t32.5 138zM374 647q0 -13 -10 -22.5t-23 -9.5t-22.5 9.5t-9.5 22.5t9.5 23t22.5 10t23 -10t10 -23zM209 647q0 -13 -10 -22.5t-23 -9.5 t-22.5 9.5t-9.5 22.5t9.5 23t22.5 10q14 0 23.5 -10t9.5 -23z" />
<glyph horiz-adv-x="518" d="M407 206v295h41v-292q0 -111 -42.5 -166.5t-146.5 -55.5t-146.5 55t-42.5 167v292h41v-295q0 -93 32.5 -138t115.5 -45t115.5 45t32.5 138zM386 621h-253v37h253v-37z" />
<glyph horiz-adv-x="518" d="M407 206v295h41v-292q0 -111 -42.5 -166.5t-146.5 -55.5t-146.5 55t-42.5 167v292h41v-295q0 -93 32.5 -138t115.5 -45t115.5 45t32.5 138zM362 722h33q-3 -54 -39.5 -89t-99.5 -35q-58 0 -93.5 33.5t-39.5 90.5h35q4 -39 31 -64t69 -25q40 0 69.5 24.5t34.5 64.5z" />
<glyph horiz-adv-x="518" d="M407 206v295h41v-292q0 -111 -42.5 -166.5t-146.5 -55.5t-146.5 55t-42.5 167v292h41v-295q0 -93 32.5 -138t115.5 -45t115.5 45t32.5 138zM357 673q0 -41 -28 -69.5t-70 -28.5t-70 28.5t-28 69.5t28 69.5t70 28.5t70 -28.5t28 -69.5zM324 673q0 28 -19 47t-47 19 t-46.5 -19t-18.5 -47t18.5 -47t46.5 -19t47 19t19 47z" />
<glyph horiz-adv-x="518" d="M407 206v295h41v-292q0 -111 -42.5 -166.5t-146.5 -55.5t-146.5 55t-42.5 167v292h41v-295q0 -93 32.5 -138t115.5 -45t115.5 45t32.5 138zM187 576h-38l113 151h66zM346 576h-38l113 151h66z" />
<glyph horiz-adv-x="518" d="M385 -165l8 -28q-40 -20 -74 -20q-43 0 -70.5 23.5t-27.5 59.5q0 29 23 62t56 58q-33 -3 -41 -3q-104 0 -146.5 55t-42.5 167v292h41v-295q0 -93 32.5 -138t115.5 -45t115.5 45t32.5 138v295h41v-292q0 -159 -88 -202q-34 -23 -68.5 -63.5t-34.5 -68.5q0 -57 65 -57 q23 0 63 17z" />
<glyph horiz-adv-x="668" d="M505 0h-55l-116 449l-116 -449h-55l-131 501h43l118 -453l117 453h47l119 -453l117 453h43zM486 577h-38l-114 117l-116 -117h-36l125 150h55z" />
<glyph horiz-adv-x="668" d="M505 0h-55l-116 449l-116 -449h-55l-131 501h43l118 -453l117 453h47l119 -453l117 453h43zM353 577h-38l-162 150h72z" />
<glyph horiz-adv-x="668" d="M505 0h-55l-116 449l-116 -449h-55l-131 501h43l118 -453l117 453h47l119 -453l117 453h43zM512 727l-162 -150h-38l128 150h72z" />
<glyph horiz-adv-x="668" d="M505 0h-55l-116 449l-116 -449h-55l-131 501h43l118 -453l117 453h47l119 -453l117 453h43zM449 647q0 -13 -10 -22.5t-23 -9.5t-22.5 9.5t-9.5 22.5t9.5 23t22.5 10q14 0 23.5 -10t9.5 -23zM284 647q0 -13 -10 -22.5t-23 -9.5t-22.5 9.5t-9.5 22.5t9.5 23t22.5 10 t23 -10t10 -23z" />
<glyph horiz-adv-x="456" d="M248 0h-41v199l-183 302h47l157 -261l157 261h47l-184 -302v-199zM402 727l-162 -150h-38l128 150h72z" />
<glyph horiz-adv-x="456" d="M248 0h-41v199l-183 302h47l157 -261l157 261h47l-184 -302v-199zM380 577h-38l-114 117l-116 -117h-36l125 150h55z" />
<glyph horiz-adv-x="456" d="M248 0h-41v199l-183 302h47l157 -261l157 261h47l-184 -302v-199zM343 647q0 -13 -10 -22.5t-23 -9.5t-22.5 9.5t-9.5 22.5t9.5 23t22.5 10q14 0 23.5 -10t9.5 -23zM178 647q0 -13 -10 -22.5t-23 -9.5t-22.5 9.5t-9.5 22.5t9.5 23t22.5 10t23 -10t10 -23z" />
<glyph horiz-adv-x="435" d="M398 0h-366v40l321 424h-304v37h350v-39l-321 -425h320v-37zM382 727l-162 -150h-38l128 150h72z" />
<glyph horiz-adv-x="435" d="M398 0h-366v40l321 424h-304v37h350v-39l-321 -425h320v-37zM261 647q0 -13 -10 -22.5t-23 -9.5t-22.5 9.5t-9.5 22.5t9.5 23t22.5 10q14 0 23.5 -10t9.5 -23z" />
<glyph horiz-adv-x="435" d="M398 0h-366v40l321 424h-304v37h350v-39l-321 -425h320v-37zM258 577h-55l-129 150h37l121 -117l116 117h36z" />
<glyph horiz-adv-x="431" d="M235 -120h-43v132q-104 9 -152 87l32 25q51 -76 142 -76q57 0 90.5 24t33.5 62q0 37 -34 62.5t-125 49.5q-133 35 -133 131q0 46 40.5 78t105.5 36v117h43v-118q86 -13 137 -73l-32 -27q-23 32 -60.5 48.5t-74.5 16.5q-50 0 -83 -19.5t-33 -57.5q0 -65 125 -99 q91 -24 129 -59t38 -84t-40.5 -83.5t-105.5 -40.5v-132z" />
<glyph horiz-adv-x="451" d="M264 -120h-42v128q-79 11 -125.5 75.5t-46.5 166.5q0 101 46.5 166t125.5 76v116h42v-114q95 -6 147 -88l-36 -25q-44 74 -124 74q-70 0 -112.5 -55t-42.5 -150q0 -94 42.5 -149t112.5 -55q81 0 124 74l36 -25q-52 -83 -147 -89v-126z" />
<glyph horiz-adv-x="626" d="M586 7l-29 -29l-106 105q-60 -50 -139 -50q-78 0 -138 50l-105 -105l-29 29l106 106q-48 59 -48 139q0 78 48 136l-105 105l29 29l105 -104q57 49 137 49q79 0 139 -50l104 105l29 -29l-105 -105q47 -58 47 -136q0 -79 -47 -139zM312 75q74 0 121 50.5t47 126.5 q0 74 -47.5 124t-120.5 50q-72 0 -120 -50.5t-48 -123.5q0 -76 47.5 -126.5t120.5 -50.5z" />
<glyph horiz-adv-x="451" d="M297 0h-227v376q0 69 43 103.5t101 34.5q37 0 70.5 -14.5t50.5 -38.5l-27 -28q-39 44 -94 44q-43 0 -72.5 -24.5t-29.5 -77.5v-79h159v-37h-159v-222h185q35 0 56 20.5t21 50.5q0 41 -46 70l23 29q23 -14 41.5 -40.5t18.5 -56.5q0 -50 -32 -80t-82 -30z" />
<glyph horiz-adv-x="451" d="M384 124h-138v-124h-41v124h-137v34h137v69l-14 22h-123v34h102l-140 218h47l149 -238l149 238h46l-139 -218h102v-34h-123l-15 -23v-68h138v-34z" />
<glyph horiz-adv-x="346" d="M-15 -206v36q45 8 54 53l86 417h-75v34h82l18 87q10 47 41 69.5t67 22.5q29 0 48 -12v-38q-19 14 -44 14q-58 0 -71 -54l-19 -89h100v-34h-107l-86 -415q-17 -81 -94 -91z" />
<glyph horiz-adv-x="502" d="M422 104l33 -23q-56 -94 -160 -94q-74 0 -125 49.5t-68 135.5h-82l4 34h73q-2 28 -2 45q0 15 2 45h-77l4 34h78q17 85 68 134.5t125 49.5q107 0 162 -93l-33 -24q-51 80 -129 80q-55 0 -95 -39.5t-55 -107.5h196l-5 -34h-197q-2 -30 -2 -45q0 -17 2 -45h202l-5 -34h-191 q16 -68 55.5 -108t94.5 -40q76 0 127 80z" />
<glyph horiz-adv-x="417" d="M229 105h-43v115q-102 10 -146 82l30 25q49 -71 138 -71q53 0 84.5 21.5t31.5 57.5q0 34 -32 57t-117 46q-127 35 -127 124q0 43 37.5 72.5t100.5 33.5v108h43v-109q84 -11 132 -68l-30 -27q-22 30 -59 45.5t-72 15.5q-47 0 -78 -17.5t-31 -52.5q0 -61 117 -93 q85 -23 122 -56t37 -78q0 -47 -37 -79t-101 -37v-115z" />
<glyph horiz-adv-x="420" d="M248 105h-43v118q-71 11 -113 70.5t-42 150.5t42 151t113 71v110h43v-109q85 -6 132 -78l-32 -23q-42 65 -115 65q-62 0 -100.5 -51t-38.5 -136q0 -84 38.5 -135t100.5 -51q73 0 113 65l32 -23q-47 -72 -130 -79v-116z" />
<glyph horiz-adv-x="461" d="M307 203h-237v375q0 69 45 103.5t104 34.5q38 0 73.5 -14.5t52.5 -38.5l-27 -28q-39 44 -99 44q-44 0 -75.5 -24.5t-31.5 -77.5v-78h169v-37h-169v-222h195q35 0 56 20.5t21 50.5q0 41 -46 70l23 29q23 -14 41.5 -40.5t18.5 -56.5q0 -50 -32 -80t-82 -30z" />
<glyph horiz-adv-x="451" d="M384 327h-138v-124h-41v124h-137v34h137v69l-14 22h-123v34h102l-140 217h47l149 -237l149 237h46l-139 -217h102v-34h-123l-15 -23v-68h138v-34z" />
<glyph horiz-adv-x="341" d="M-20 -6v36q45 8 54 53l86 417h-75v34h82l18 87q10 47 41 69.5t67 22.5q29 0 48 -12v-38q-19 14 -44 14q-58 0 -71 -54l-19 -89h100v-34h-107l-86 -415q-17 -81 -94 -91z" />
<glyph horiz-adv-x="502" d="M422 306l33 -23q-56 -94 -160 -94q-74 0 -125 49.5t-68 135.5h-82l4 34h73q-2 28 -2 45q0 15 2 45h-77l4 34h78q17 85 68 134.5t125 49.5q107 0 162 -93l-33 -24q-51 80 -129 80q-55 0 -95 -39.5t-55 -107.5h196l-5 -34h-197q-2 -30 -2 -45q0 -17 2 -45h202l-5 -34h-191 q16 -68 55.5 -108t94.5 -40q76 0 127 80z" />
<glyph d="M563 211l-29 -29l-106 105q-60 -50 -139 -50q-78 0 -138 50l-105 -105l-29 29l106 106q-48 59 -48 139q0 78 48 136l-105 105l29 29l105 -104q57 49 137 49q79 0 139 -50l104 105l29 -29l-105 -105q47 -58 47 -136q0 -79 -47 -139zM289 279q74 0 121 50.5t47 126.5 q0 74 -47.5 124t-120.5 50q-72 0 -120 -50.5t-48 -123.5q0 -76 47.5 -126.5t120.5 -50.5z" />
<glyph horiz-adv-x="187" d="M134 234q0 -17 -12 -29t-29 -12t-28.5 12t-11.5 29q0 16 11.5 28t28.5 12t29 -11.5t12 -28.5z" />
<glyph horiz-adv-x="417" d="M229 -98h-43v115q-102 10 -146 82l30 25q49 -71 138 -71q53 0 84.5 21.5t31.5 57.5q0 34 -32 57t-117 46q-127 35 -127 124q0 43 37.5 72.5t100.5 33.5v108h43v-109q84 -11 132 -68l-30 -27q-22 30 -59 45.5t-72 15.5q-47 0 -78 -17.5t-31 -52.5q0 -61 117 -93 q85 -23 122 -56t37 -78q0 -47 -37 -79t-101 -37v-115z" />
<glyph horiz-adv-x="420" d="M248 -98h-43v118q-71 11 -113 70.5t-42 150.5t42 151t113 71v110h43v-109q85 -6 132 -78l-32 -23q-42 65 -115 65q-62 0 -100.5 -51t-38.5 -136q0 -84 38.5 -135t100.5 -51q73 0 113 65l32 -23q-47 -72 -130 -79v-116z" />
<glyph horiz-adv-x="451" d="M307 0h-237v375q0 69 45 103.5t104 34.5q38 0 73.5 -14.5t52.5 -38.5l-27 -28q-39 44 -99 44q-44 0 -75.5 -24.5t-31.5 -77.5v-78h169v-37h-169v-222h195q35 0 56 20.5t21 50.5q0 41 -46 70l23 29q23 -14 41.5 -40.5t18.5 -56.5q0 -50 -32 -80t-82 -30z" />
<glyph horiz-adv-x="451" d="M384 124h-138v-124h-41v124h-137v34h137v69l-14 22h-123v34h102l-140 217h47l149 -237l149 237h46l-139 -217h102v-34h-123l-15 -23v-68h138v-34z" />
<glyph horiz-adv-x="341" d="M-20 -209v36q45 8 54 53l86 417h-75v34h82l18 87q10 47 41 69.5t67 22.5q29 0 48 -12v-38q-19 14 -44 14q-58 0 -71 -54l-19 -89h100v-34h-107l-86 -415q-17 -81 -94 -91z" />
<glyph horiz-adv-x="502" d="M422 104l33 -23q-56 -94 -160 -94q-74 0 -125 49.5t-68 135.5h-82l4 34h73q-2 28 -2 45q0 15 2 45h-77l4 34h78q17 85 68 134.5t125 49.5q107 0 162 -93l-33 -24q-51 80 -129 80q-55 0 -95 -39.5t-55 -107.5h196l-5 -34h-197q-2 -30 -2 -45q0 -17 2 -45h202l-5 -34h-191 q16 -68 55.5 -108t94.5 -40q76 0 127 80z" />
<glyph d="M563 8l-29 -29l-106 105q-60 -50 -139 -50q-78 0 -138 50l-105 -105l-29 29l106 106q-48 59 -48 139q0 78 48 136l-105 105l29 29l105 -104q57 49 137 49q79 0 139 -50l104 105l29 -29l-105 -105q47 -58 47 -136q0 -79 -47 -139zM289 76q74 0 121 50.5t47 126.5 q0 74 -47.5 124t-120.5 50q-72 0 -120 -50.5t-48 -123.5q0 -76 47.5 -126.5t120.5 -50.5z" />
<glyph horiz-adv-x="187" d="M52 59l-29 11l56 194h63z" />
<glyph horiz-adv-x="270" d="M230 437h-190v36h190v-36z" />
<glyph horiz-adv-x="187" d="M134 30q0 -17 -12 -29t-29 -12t-28.5 12t-11.5 29q0 16 11.5 28t28.5 12t29 -11.5t12 -28.5z" />
<glyph horiz-adv-x="187" d="M49 -139l-29 11l56 194h63z" />
<glyph horiz-adv-x="270" d="M230 234h-190v36h190v-36z" />
<glyph horiz-adv-x="270" d="M230 234h-190v36h190v-36z" />
</font>
</defs>
</svg>
